<svg width="32" height="32" viewBox="0 0 32 32" fill="none" xmlns="http://www.w3.org/2000/svg">
<g clip-path="url(#clip0_144_970)">
<path d="M6.00645 1.45005C4.99395 1.8438 4.1377 2.3688 3.28145 3.22505C2.4252 4.07505 1.9002 4.93755 1.50645 5.9438C1.1252 6.9188 0.868945 8.03755 0.793945 9.67505C0.718945 11.3125 0.700195 11.8375 0.700195 16.0125C0.700195 20.1875 0.718945 20.7125 0.793945 22.35C0.868945 23.9876 1.13145 25.1063 1.50645 26.0813C1.9002 27.0938 2.4252 27.95 3.28145 28.8063C4.1377 29.6625 4.99395 30.1875 6.00645 30.5813C6.98145 30.9625 8.1002 31.2188 9.7377 31.2938C11.3752 31.3688 11.9002 31.3876 16.0752 31.3876C20.2502 31.3876 20.7752 31.3688 22.4127 31.2938C24.0502 31.2188 25.1689 30.9563 26.1439 30.5813C27.1564 30.1875 28.0127 29.6625 28.8689 28.8063C29.7252 27.95 30.2502 27.0938 30.6439 26.0813C31.0252 25.1063 31.2814 23.9876 31.3564 22.35C31.4314 20.7125 31.4502 20.1875 31.4502 16.0125C31.4502 11.8375 31.4314 11.3125 31.3564 9.67505C31.2814 8.03755 31.0189 6.9188 30.6439 5.9438C30.2502 4.93755 29.7252 4.07505 28.8752 3.22505C28.0189 2.3688 27.1627 1.8438 26.1502 1.45005C25.1752 1.0688 24.0564 0.812549 22.4189 0.737549C20.7814 0.662549 20.2564 0.643799 16.0814 0.643799C11.9064 0.643799 11.3814 0.662549 9.74395 0.737549C8.10019 0.806299 6.98145 1.0688 6.00645 1.45005ZM22.2877 3.50005C23.7877 3.5688 24.6002 3.8188 25.1439 4.0313C25.8627 4.31255 26.3752 4.6438 26.9127 5.1813C27.4502 5.7188 27.7814 6.2313 28.0627 6.95005C28.2752 7.4938 28.5252 8.3063 28.5939 9.8063C28.6689 11.425 28.6814 11.9125 28.6814 16.0188C28.6814 20.125 28.6627 20.6126 28.5939 22.2313C28.5252 23.7313 28.2752 24.5438 28.0627 25.0875C27.7814 25.8063 27.4502 26.3188 26.9127 26.8563C26.3752 27.3938 25.8627 27.725 25.1439 28.0063C24.6002 28.2188 23.7877 28.4688 22.2877 28.5375C20.6689 28.6126 20.1814 28.625 16.0752 28.625C11.9689 28.625 11.4814 28.6063 9.8627 28.5375C8.3627 28.4688 7.5502 28.2188 7.00645 28.0063C6.2877 27.725 5.7752 27.3938 5.2377 26.8563C4.7002 26.3188 4.36895 25.8063 4.0877 25.0875C3.8752 24.5438 3.6252 23.7313 3.55645 22.2313C3.48145 20.6126 3.46895 20.125 3.46895 16.0188C3.46895 11.9125 3.4877 11.425 3.55645 9.8063C3.6252 8.3063 3.8752 7.4938 4.0877 6.95005C4.36895 6.2313 4.7002 5.7188 5.2377 5.1813C5.7752 4.6438 6.2877 4.31255 7.00645 4.0313C7.5502 3.8188 8.3627 3.5688 9.8627 3.50005C11.4814 3.42505 11.9689 3.41255 16.0752 3.41255C20.1814 3.41255 20.6689 3.42505 22.2877 3.50005Z" fill="url(#paint0_linear_144_970)"/>
<path d="M8.18164 16.0187C8.18164 20.3812 11.7191 23.9125 16.0754 23.9125C20.4316 23.9125 23.9691 20.375 23.9691 16.0187C23.9691 11.6625 20.4379 8.125 16.0754 8.125C11.7129 8.125 8.18164 11.6562 8.18164 16.0187ZM21.2004 16.0187C21.2004 18.85 18.9066 21.1437 16.0754 21.1437C13.2441 21.1437 10.9504 18.85 10.9504 16.0187C10.9504 13.1875 13.2441 10.8938 16.0754 10.8938C18.9066 10.8938 21.2004 13.1875 21.2004 16.0187Z" fill="url(#paint1_linear_144_970)"/>
<path d="M24.2876 9.65625C25.3059 9.65625 26.1313 8.83078 26.1313 7.8125C26.1313 6.79422 25.3059 5.96875 24.2876 5.96875C23.2693 5.96875 22.4438 6.79422 22.4438 7.8125C22.4438 8.83078 23.2693 9.65625 24.2876 9.65625Z" fill="#E3AE68"/>
</g>
<defs>
<linearGradient id="paint0_linear_144_970" x1="17.0204" y1="-13.9595" x2="12.349" y2="64.5509" gradientUnits="userSpaceOnUse">
<stop offset="0.217291" stop-color="#E3AE68"/>
<stop offset="0.580921" stop-color="#A1541B"/>
<stop offset="1" stop-color="#74310D"/>
</linearGradient>
<linearGradient id="paint1_linear_144_970" x1="16.5607" y1="0.625937" x2="14.1613" y2="40.9425" gradientUnits="userSpaceOnUse">
<stop offset="0.217291" stop-color="#E3AE68"/>
<stop offset="0.580921" stop-color="#A1541B"/>
<stop offset="1" stop-color="#74310D"/>
</linearGradient>
<clipPath id="clip0_144_970">
<rect width="32" height="32" fill="white"/>
</clipPath>
</defs>
</svg>
