<svg width="189" height="33" viewBox="0 0 189 33" fill="none" xmlns="http://www.w3.org/2000/svg">
<path d="M6.03409 25.5H0.761364L8.79545 2.22727H15.1364L23.1591 25.5H17.8864L12.0568 7.54545H11.875L6.03409 25.5ZM5.70455 16.3523H18.1591V20.1932H5.70455V16.3523ZM39.9858 13.0227L35.554 13.2955C35.4782 12.9167 35.3153 12.5758 35.0653 12.2727C34.8153 11.9621 34.4858 11.7159 34.0767 11.5341C33.6752 11.3447 33.1941 11.25 32.6335 11.25C31.8835 11.25 31.2509 11.4091 30.7358 11.7273C30.2206 12.0379 29.9631 12.4545 29.9631 12.9773C29.9631 13.3939 30.1297 13.7462 30.4631 14.0341C30.7964 14.322 31.3684 14.553 32.179 14.7273L35.3381 15.3636C37.035 15.7121 38.3002 16.2727 39.1335 17.0455C39.9669 17.8182 40.3835 18.8333 40.3835 20.0909C40.3835 21.2348 40.0464 22.2386 39.3722 23.1023C38.7055 23.9659 37.7888 24.6402 36.6222 25.125C35.4631 25.6023 34.1259 25.8409 32.6108 25.8409C30.3002 25.8409 28.4593 25.3598 27.0881 24.3977C25.7244 23.428 24.9252 22.1098 24.6903 20.4432L29.4517 20.1932C29.5956 20.8977 29.9441 21.4356 30.4972 21.8068C31.0502 22.1705 31.7585 22.3523 32.6222 22.3523C33.4706 22.3523 34.1525 22.1894 34.6676 21.8636C35.1903 21.5303 35.4555 21.1023 35.4631 20.5795C35.4555 20.1402 35.2699 19.7803 34.9062 19.5C34.5426 19.2121 33.982 18.9924 33.2244 18.8409L30.2017 18.2386C28.4972 17.8977 27.2282 17.3068 26.3949 16.4659C25.5691 15.625 25.1562 14.553 25.1562 13.25C25.1562 12.1288 25.4593 11.1629 26.0653 10.3523C26.679 9.54167 27.5388 8.91667 28.6449 8.47727C29.7585 8.03788 31.0616 7.81818 32.554 7.81818C34.7585 7.81818 36.4934 8.28409 37.7585 9.21591C39.0313 10.1477 39.7737 11.4167 39.9858 13.0227ZM43.4318 32.0455V8.04545H48.2045V10.9773H48.4205C48.6326 10.5076 48.9394 10.0303 49.3409 9.54545C49.75 9.05303 50.2803 8.64394 50.9318 8.31818C51.5909 7.98485 52.4091 7.81818 53.3864 7.81818C54.6591 7.81818 55.8333 8.15152 56.9091 8.81818C57.9848 9.47727 58.8447 10.4735 59.4886 11.8068C60.1326 13.1326 60.4545 14.7955 60.4545 16.7955C60.4545 18.7424 60.1402 20.3864 59.5114 21.7273C58.8902 23.0606 58.0417 24.072 56.9659 24.7614C55.8977 25.4432 54.7008 25.7841 53.375 25.7841C52.4356 25.7841 51.6364 25.6288 50.9773 25.3182C50.3258 25.0076 49.7917 24.6174 49.375 24.1477C48.9583 23.6705 48.6402 23.1894 48.4205 22.7045H48.2727V32.0455H43.4318ZM48.1705 16.7727C48.1705 17.8106 48.3144 18.7159 48.6023 19.4886C48.8902 20.2614 49.3068 20.8636 49.8523 21.2955C50.3977 21.7197 51.0606 21.9318 51.8409 21.9318C52.6288 21.9318 53.2955 21.7159 53.8409 21.2841C54.3864 20.8447 54.7992 20.2386 55.0795 19.4659C55.3674 18.6856 55.5114 17.7879 55.5114 16.7727C55.5114 15.7652 55.3712 14.8788 55.0909 14.1136C54.8106 13.3485 54.3977 12.75 53.8523 12.3182C53.3068 11.8864 52.6364 11.6705 51.8409 11.6705C51.053 11.6705 50.3864 11.8788 49.8409 12.2955C49.303 12.7121 48.8902 13.303 48.6023 14.0682C48.3144 14.8333 48.1705 15.7348 48.1705 16.7727ZM63.6818 25.5V8.04545H68.5227V25.5H63.6818ZM66.1136 5.79545C65.3939 5.79545 64.7765 5.55682 64.2614 5.07954C63.7538 4.5947 63.5 4.01515 63.5 3.34091C63.5 2.67424 63.7538 2.10227 64.2614 1.625C64.7765 1.14015 65.3939 0.897726 66.1136 0.897726C66.8333 0.897726 67.447 1.14015 67.9545 1.625C68.4697 2.10227 68.7273 2.67424 68.7273 3.34091C68.7273 4.01515 68.4697 4.5947 67.9545 5.07954C67.447 5.55682 66.8333 5.79545 66.1136 5.79545ZM72.4006 25.5V8.04545H77.0938V11.0909H77.2756C77.5938 10.0076 78.1278 9.18939 78.8778 8.63636C79.6278 8.07576 80.4915 7.79545 81.4688 7.79545C81.7112 7.79545 81.9725 7.81061 82.2528 7.84091C82.5331 7.87121 82.7794 7.91288 82.9915 7.96591V12.2614C82.7642 12.1932 82.4498 12.1326 82.0483 12.0795C81.6468 12.0265 81.2794 12 80.946 12C80.2339 12 79.5975 12.1553 79.0369 12.4659C78.4839 12.7689 78.0445 13.1932 77.7188 13.7386C77.4006 14.2841 77.2415 14.9129 77.2415 15.625V25.5H72.4006ZM89.9716 25.8295C88.858 25.8295 87.8655 25.6364 86.9943 25.25C86.1231 24.8561 85.4337 24.2765 84.9261 23.5114C84.4261 22.7386 84.1761 21.7765 84.1761 20.625C84.1761 19.6553 84.3542 18.8409 84.7102 18.1818C85.0663 17.5227 85.5511 16.9924 86.1648 16.5909C86.7784 16.1894 87.4754 15.8864 88.2557 15.6818C89.0436 15.4773 89.8693 15.3333 90.733 15.25C91.7481 15.1439 92.5663 15.0455 93.1875 14.9545C93.8087 14.8561 94.2595 14.7121 94.5398 14.5227C94.8201 14.3333 94.9602 14.053 94.9602 13.6818V13.6136C94.9602 12.8939 94.733 12.3371 94.2784 11.9432C93.8314 11.5492 93.1951 11.3523 92.3693 11.3523C91.4981 11.3523 90.8049 11.5455 90.2898 11.9318C89.7746 12.3106 89.4337 12.7879 89.267 13.3636L84.7898 13C85.017 11.9394 85.464 11.0227 86.1307 10.25C86.7973 9.4697 87.6572 8.87121 88.7102 8.45454C89.7708 8.0303 90.9981 7.81818 92.392 7.81818C93.3617 7.81818 94.2898 7.93182 95.1761 8.15909C96.0701 8.38636 96.8617 8.73864 97.5511 9.21591C98.2481 9.69318 98.7973 10.3068 99.1989 11.0568C99.6004 11.7992 99.8011 12.6894 99.8011 13.7273V25.5H95.2102V23.0795H95.0739C94.7936 23.625 94.4186 24.1061 93.9489 24.5227C93.4792 24.9318 92.9148 25.2538 92.2557 25.4886C91.5966 25.7159 90.8352 25.8295 89.9716 25.8295ZM91.358 22.4886C92.0701 22.4886 92.6989 22.3485 93.2443 22.0682C93.7898 21.7803 94.2178 21.3939 94.5284 20.9091C94.839 20.4242 94.9943 19.875 94.9943 19.2614V17.4091C94.8428 17.5076 94.6345 17.5985 94.3693 17.6818C94.1117 17.7576 93.8201 17.8295 93.4943 17.8977C93.1686 17.9583 92.8428 18.0152 92.517 18.0682C92.1913 18.1136 91.8958 18.1553 91.6307 18.1932C91.0625 18.2765 90.5663 18.4091 90.142 18.5909C89.7178 18.7727 89.3883 19.0189 89.1534 19.3295C88.9186 19.6326 88.8011 20.0114 88.8011 20.4659C88.8011 21.125 89.0398 21.6288 89.517 21.9773C90.0019 22.3182 90.6155 22.4886 91.358 22.4886ZM118.08 13.0227L113.648 13.2955C113.572 12.9167 113.409 12.5758 113.159 12.2727C112.909 11.9621 112.58 11.7159 112.17 11.5341C111.769 11.3447 111.288 11.25 110.727 11.25C109.977 11.25 109.345 11.4091 108.83 11.7273C108.314 12.0379 108.057 12.4545 108.057 12.9773C108.057 13.3939 108.223 13.7462 108.557 14.0341C108.89 14.322 109.462 14.553 110.273 14.7273L113.432 15.3636C115.129 15.7121 116.394 16.2727 117.227 17.0455C118.061 17.8182 118.477 18.8333 118.477 20.0909C118.477 21.2348 118.14 22.2386 117.466 23.1023C116.799 23.9659 115.883 24.6402 114.716 25.125C113.557 25.6023 112.22 25.8409 110.705 25.8409C108.394 25.8409 106.553 25.3598 105.182 24.3977C103.818 23.428 103.019 22.1098 102.784 20.4432L107.545 20.1932C107.689 20.8977 108.038 21.4356 108.591 21.8068C109.144 22.1705 109.852 22.3523 110.716 22.3523C111.564 22.3523 112.246 22.1894 112.761 21.8636C113.284 21.5303 113.549 21.1023 113.557 20.5795C113.549 20.1402 113.364 19.7803 113 19.5C112.636 19.2121 112.076 18.9924 111.318 18.8409L108.295 18.2386C106.591 17.8977 105.322 17.3068 104.489 16.4659C103.663 15.625 103.25 14.553 103.25 13.25C103.25 12.1288 103.553 11.1629 104.159 10.3523C104.773 9.54167 105.633 8.91667 106.739 8.47727C107.852 8.03788 109.155 7.81818 110.648 7.81818C112.852 7.81818 114.587 8.28409 115.852 9.21591C117.125 10.1477 117.867 11.4167 118.08 13.0227ZM121.526 25.5V8.04545H126.366V25.5H121.526ZM123.957 5.79545C123.238 5.79545 122.62 5.55682 122.105 5.07954C121.598 4.5947 121.344 4.01515 121.344 3.34091C121.344 2.67424 121.598 2.10227 122.105 1.625C122.62 1.14015 123.238 0.897726 123.957 0.897726C124.677 0.897726 125.291 1.14015 125.798 1.625C126.313 2.10227 126.571 2.67424 126.571 3.34091C126.571 4.01515 126.313 4.5947 125.798 5.07954C125.291 5.55682 124.677 5.79545 123.957 5.79545ZM133.074 25.7955C132.324 25.7955 131.68 25.5303 131.142 25C130.612 24.4621 130.347 23.8182 130.347 23.0682C130.347 22.3258 130.612 21.6894 131.142 21.1591C131.68 20.6288 132.324 20.3636 133.074 20.3636C133.801 20.3636 134.438 20.6288 134.983 21.1591C135.528 21.6894 135.801 22.3258 135.801 23.0682C135.801 23.5682 135.672 24.0265 135.415 24.4432C135.165 24.8523 134.835 25.1818 134.426 25.4318C134.017 25.6742 133.566 25.7955 133.074 25.7955ZM144.616 15.4091V25.5H139.776V8.04545H144.389V11.125H144.594C144.98 10.1098 145.628 9.30682 146.537 8.71591C147.446 8.11742 148.548 7.81818 149.844 7.81818C151.056 7.81818 152.113 8.08333 153.014 8.61364C153.916 9.14394 154.616 9.90151 155.116 10.8864C155.616 11.8636 155.866 13.0303 155.866 14.3864V25.5H151.026V15.25C151.033 14.1818 150.76 13.3485 150.207 12.75C149.654 12.1439 148.893 11.8409 147.923 11.8409C147.272 11.8409 146.696 11.9811 146.196 12.2614C145.704 12.5417 145.317 12.9508 145.037 13.4886C144.764 14.0189 144.624 14.6591 144.616 15.4091ZM167.636 25.8409C165.841 25.8409 164.295 25.4773 163 24.75C161.712 24.0152 160.72 22.9773 160.023 21.6364C159.326 20.2879 158.977 18.6932 158.977 16.8523C158.977 15.0568 159.326 13.4811 160.023 12.125C160.72 10.7689 161.701 9.71212 162.966 8.95454C164.239 8.19697 165.731 7.81818 167.443 7.81818C168.595 7.81818 169.667 8.00379 170.659 8.375C171.659 8.73864 172.53 9.28788 173.273 10.0227C174.023 10.7576 174.606 11.6818 175.023 12.7955C175.439 13.9015 175.648 15.197 175.648 16.6818V18.0114H160.909V15.0114H171.091C171.091 14.3144 170.939 13.697 170.636 13.1591C170.333 12.6212 169.913 12.2008 169.375 11.8977C168.845 11.5871 168.227 11.4318 167.523 11.4318C166.788 11.4318 166.136 11.6023 165.568 11.9432C165.008 12.2765 164.568 12.7273 164.25 13.2955C163.932 13.8561 163.769 14.4811 163.761 15.1705V18.0227C163.761 18.8864 163.92 19.6326 164.239 20.2614C164.564 20.8902 165.023 21.375 165.614 21.7159C166.205 22.0568 166.905 22.2273 167.716 22.2273C168.254 22.2273 168.746 22.1515 169.193 22C169.64 21.8485 170.023 21.6212 170.341 21.3182C170.659 21.0152 170.902 20.6439 171.068 20.2045L175.545 20.5C175.318 21.5758 174.852 22.5152 174.148 23.3182C173.451 24.1136 172.549 24.7348 171.443 25.1818C170.345 25.6212 169.076 25.8409 167.636 25.8409ZM188.091 8.04545V11.6818H177.58V8.04545H188.091ZM179.966 3.86364H184.807V20.1364C184.807 20.5833 184.875 20.9318 185.011 21.1818C185.148 21.4242 185.337 21.5947 185.58 21.6932C185.83 21.7917 186.117 21.8409 186.443 21.8409C186.67 21.8409 186.898 21.822 187.125 21.7841C187.352 21.7386 187.527 21.7045 187.648 21.6818L188.409 25.2841C188.167 25.3598 187.826 25.447 187.386 25.5455C186.947 25.6515 186.413 25.7159 185.784 25.7386C184.617 25.7841 183.595 25.6288 182.716 25.2727C181.845 24.9167 181.167 24.3636 180.682 23.6136C180.197 22.8636 179.958 21.9167 179.966 20.7727V3.86364Z" fill="#A20F0F"/>
</svg>
