<svg width="1431" height="419" viewBox="0 0 1431 419" fill="none" xmlns="http://www.w3.org/2000/svg">
<g clip-path="url(#clip0_144_753)">
<g opacity="0.5">
<path opacity="0.5" fill-rule="evenodd" clip-rule="evenodd" d="M196.2 147.6V118.4H166.5V147.6H196.2ZM197.1 147.6H209V148.4H197.1V178.6H209V179.4H197.1V208.6H214V209.4H197.1V239.6H214V240.4H197.1V269.6H214V270.4H197.1V300.6H214V301.4H197.1V330.6H209V331.4H197.1V361.6H209V362.4H197.1V391.6H209V392.4H197.1V409.7H196.3V392.4H166.6V409.7H165.8V392.4H136.1V409.7H135.3V392.4H105.6V409.7H104.8V392.4H75.1V409.7H74.3V392.4H44.6V409.7H43.8V392.4H14.1V409.7H13.3V392.4H-16.4V409.7H-17.2V392.4H-46.9V409.7H-47.7V392.4H-77.8V408.9V409.7H-78.6H-107.4H-108.2V408.9V392.4H-125.8H-126.2V392V362.4V362V361.6V331V330.6H-125.8H-108.2V301.4H-125.8H-126.2V301V270V269.6H-125.8H-108.2V240.4H-125.8H-126.2V240V209V208.6H-125.8H-108.2V179.4H-125.8H-126.2V179V148V147.6H-125.8H-108.2V118.4H-125.8H-126.2V118V87V86.6H-125.8H-108.2V70.8V70H-107.4H-78.6H-77.8V70.8V86.5H-47.7V70H-46.9V86.6H-17.2V70H-16.4V86.6H13.3V70H14.1V86.6H43.8V70H44.6V86.6H74.3V70H75.1V86.6H104.8V70H105.6V86.6H135.3V70H136.1V86.6H165.8V70H166.6V86.6H196.3V70H197.1V86.6H209V87.4H197.1V117.6H209V118.4H197.1V147.6ZM-125.6 361.6V331.4H-108.4V361.6H-125.6ZM-107.5 361.6V331.4H-78.7V361.6H-107.5ZM-77.9 361.6V331.4H-47.8V361.6H-77.9ZM-46.9 361.6V331.4H-17.2V361.6H-46.9ZM-16.4 361.6V331.4H13.3V361.6H-16.4ZM14.1 361.6V331.4H43.8V361.6H14.1ZM44.6 361.6V331.4H74.3V361.6H44.6ZM75.1 361.6V331.4H104.8V361.6H75.1ZM105.6 361.6V331.4H135.3V361.6H105.6ZM136.1 361.6V331.4H165.8V361.6H136.1ZM166.6 361.6V331.4H196.3V361.6H166.6ZM-125.6 362.4H-108.4V391.6H-125.6V362.4ZM-107.5 391.6V362.4H-78.7V391.6H-107.5ZM-78.7 392.4V408.9H-107.5V392.4H-78.7ZM-77.9 391.6V362.4H-47.8V391.6H-77.9ZM-46.9 391.6V362.4H-17.2V391.6H-46.9ZM-16.4 391.6V362.4H13.3V391.6H-16.4ZM14.1 391.6V362.4H43.8V391.6H14.1ZM44.6 391.6V362.4H74.3V391.6H44.6ZM75.1 391.6V362.4H104.8V391.6H75.1ZM105.6 391.6V362.4H135.3V391.6H105.6ZM136.1 391.6V362.4H165.8V391.6H136.1ZM166.6 391.6V362.4H196.3V391.6H166.6ZM196.2 330.6H166.5V301.4H196.2V330.6ZM165.7 330.6H136V301.4H165.7V330.6ZM135.2 330.6H105.5V301.4H135.2V330.6ZM104.7 330.6H75V301.4H104.7V330.6ZM74.2 330.6H44.5V301.4H74.2V330.6ZM43.7 330.6H14V301.4H43.7V330.6ZM13.2 330.6H-16.5V301.4H13.2V330.6ZM-17.3 330.6H-47V301.4H-17.3V330.6ZM-47.8 330.6H-77.9V301.4H-47.8V330.6ZM-78.7 330.6H-107.5V301.4H-78.7V330.6ZM-107.5 269.6V240.4H-78.7V269.6H-107.5ZM-78.7 270.4H-107.5V300.6H-78.7V270.4ZM-77.9 269.6V240.4H-47.8V269.6H-77.9ZM-47.8 270.4H-77.9V300.6H-47.8V270.4ZM-46.9 269.6V240.4H-17.2V269.6H-46.9ZM-17.3 270.4H-47V300.6H-17.3V270.4ZM-16.4 269.6V240.4H13.3V269.6H-16.4ZM13.2 270.4H-16.5V300.6H13.2V270.4ZM14.1 269.6V240.4H43.8V269.6H14.1ZM43.7 270.4H14V300.6H43.7V270.4ZM44.6 269.6V240.4H74.3V269.6H44.6ZM74.2 270.4H44.5V300.6H74.2V270.4ZM75.1 269.6V240.4H104.8V269.6H75.1ZM104.7 270.4H75V300.6H104.7V270.4ZM105.6 269.6V240.4H135.3V269.6H105.6ZM135.2 270.4H105.5V300.6H135.2V270.4ZM136.1 269.6V240.4H165.8V269.6H136.1ZM165.7 270.4H136V300.6H165.7V270.4ZM166.6 269.6V240.4H196.3V269.6H166.6ZM196.2 270.4H166.5V300.6H196.2V270.4ZM-108.4 300.6V270.4H-125.6V300.6H-108.4ZM196.2 239.6V209.4H166.5V239.6H196.2ZM196.2 208.6H166.5V179.4H196.2V208.6ZM165.7 239.6V209.4H136V239.6H165.7ZM165.7 208.6H136V179.4H165.7V208.6ZM135.2 239.6V209.4H105.5V239.6H135.2ZM135.2 208.6H105.5V179.4H135.2V208.6ZM104.7 239.6V209.4H75V239.6H104.7ZM104.7 208.6H75V179.4H104.7V208.6ZM74.2 239.6V209.4H44.5V239.6H74.2ZM74.2 208.6H44.5V179.4H74.2V208.6ZM43.7 239.6V209.4H14V239.6H43.7ZM43.7 208.6H14V179.4H43.7V208.6ZM13.2 239.6V209.4H-16.5V239.6H13.2ZM13.2 208.6H-16.5V179.4H13.2V208.6ZM-17.3 239.6V209.4H-47V239.6H-17.3ZM-17.3 208.6H-47V179.4H-17.3V208.6ZM-47.8 239.6V209.4H-77.9V239.6H-47.8ZM-47.8 208.6H-77.9V179.4H-47.8V208.6ZM-78.7 239.6V209.4H-107.5V239.6H-78.7ZM-78.7 208.6H-107.5V179.4H-78.7V208.6ZM-108.4 239.6V209.4H-125.6V239.6H-108.4ZM-107.5 147.6V118.4H-78.7V147.6H-107.5ZM-78.7 148.4H-107.5V178.6H-78.7V148.4ZM-77.9 147.6V118.4H-47.8V147.6H-77.9ZM-47.8 148.4H-77.9V178.6H-47.8V148.4ZM-46.9 147.6V118.4H-17.2V147.6H-46.9ZM-17.3 148.4H-47V178.6H-17.3V148.4ZM-16.4 147.6V118.4H13.3V147.6H-16.4ZM13.2 148.4H-16.5V178.6H13.2V148.4ZM14.1 147.6V118.4H43.8V147.6H14.1ZM43.7 148.4H14V178.6H43.7V148.4ZM44.6 147.6V118.4H74.3V147.6H44.6ZM74.2 148.4H44.5V178.6H74.2V148.4ZM75.1 147.6V118.4H104.8V147.6H75.1ZM104.7 148.4H75V178.6H104.7V148.4ZM105.6 147.6V118.4H135.3V147.6H105.6ZM135.2 148.4H105.5V178.6H135.2V148.4ZM136.1 147.6V118.4H165.8V147.6H136.1ZM165.7 148.4H136V178.6H165.7V148.4ZM166.6 148.4H196.3V178.6H166.6V148.4ZM-108.4 178.6V148.4H-125.6V178.6H-108.4ZM166.6 117.6H196.3V87.4H166.6V117.6ZM165.7 117.6V87.4H136V117.6H165.7ZM135.2 117.6V87.4H105.5V117.6H135.2ZM104.7 117.6V87.4H75V117.6H104.7ZM74.2 117.6V87.4H44.5V117.6H74.2ZM43.7 117.6V87.4H14V117.6H43.7ZM13.2 117.6V87.4H-16.5V117.6H13.2ZM-17.3 117.6V87.4H-47V117.6H-17.3ZM-47.8 117.6V87.4H-77.9V117.6H-47.8ZM-78.7 117.6V87.4H-107.5V117.6H-78.7ZM-107.5 70.8V86.5H-78.7V70.8H-107.5ZM-108.4 117.6V87.4H-125.6V117.6H-108.4Z" fill="url(#paint0_radial_144_753)"/>
<path opacity="0.5" fill-rule="evenodd" clip-rule="evenodd" d="M531.2 118.3V148H501.5V118.3H531.2ZM549 148H532.1V118.3H549V117.5H532.1V87.8H549V87H532.1V70H531.3V86.9H501.6V70H500.8V86.9H471.1V70H470.3V86.9H440.6V70H439.8V86.9H410.1V70H409.3V86.9H379.6V70H378.8V86.9H349.1V70H348.3V86.9H318.6V70H317.8V86.9H288.1V70H287.3V86.9H257.2V70.8V70H256.4H227.6H226.8V70.8V86.9H209.4V87.7H226.8V117.4H209.4V118.2H226.8V148H209.4V148.8H226.8V178.5H209.4V179.3H214.2V179.4H226.8V208.6H214.2V209.4H226.8V239.6H214.2V240.4H226.8V269.6H214.2V270.4H226.8V300.6H214.2V301.4H226.8V330.6H214.2H209.2V331.4H226.8V361.5H209.4V361.6H209.2V362.4H226.8V392H209.4V392.8H226.8V408.9V409.7H227.6H256.4H257.2V408.9V392.8H287.3V409.7H288.1V392.8H317.8V409.7H318.6V392.8H348.3V409.7H349.1V392.8H378.8V409.7H379.6V392.8H409.3V409.7H410.1V392.8H439.8V409.7H440.6V392.8H470.3V409.7H471.1V392.8H500.8V409.7H501.6V392.8H531.3V409.7H532.1V392.8H549V392H532.1V362.4H549V362.3V361.5H532.1V331.4H549V330.6H532.1V301.4H549V300.6H532.1V270.4H549V269.6H532.1V240.4H549V239.6H532.1V209.4H549V208.6H532.1V179.4H549V179.3V178.5H532.1V148.8H549V148ZM501.6 361.5H531.3V331.4H501.6V361.5ZM471.1 361.5H500.8V331.4H471.1V361.5ZM440.6 361.5H470.3V331.4H440.6V361.5ZM410.1 361.5H439.8V331.4H410.1V361.5ZM379.6 361.5H409.3V331.4H379.6V361.5ZM349.1 361.5H378.8V331.4H349.1V361.5ZM318.6 361.5H348.3V331.4H318.6V361.5ZM288.1 361.5H317.8V331.4H288.1V361.5ZM257.1 361.5H287.2V331.4H257.1V361.5ZM227.5 361.5H256.3V331.4H227.5V361.5ZM531.2 392H501.5V362.4H531.2V392ZM500.7 392H471V362.4H500.7V392ZM470.2 392H440.5V362.4H470.2V392ZM439.7 392H410V362.4H439.7V392ZM409.2 392H379.5V362.4H409.2V392ZM378.7 392H349V362.4H378.7V392ZM348.2 392H318.5V362.4H348.2V392ZM317.7 392H288V362.4H317.7V392ZM287.2 392H257.1V362.4H287.2V392ZM256.3 392.8V408.9H227.5V392.8H256.3ZM227.5 392H256.3V362.4H227.5V392ZM531.2 301.4V330.6H501.5V301.4H531.2ZM501.6 300.6H531.3V270.4H501.6V300.6ZM500.7 301.4V330.6H471V301.4H500.7ZM471.1 300.6H500.8V270.4H471.1V300.6ZM470.2 301.4V330.6H440.5V301.4H470.2ZM440.6 300.6H470.3V270.4H440.6V300.6ZM439.7 301.4V330.6H410V301.4H439.7ZM410.1 300.6H439.8V270.4H410.1V300.6ZM409.2 301.4V330.6H379.5V301.4H409.2ZM379.6 300.6H409.3V270.4H379.6V300.6ZM378.7 301.4V330.6H349V301.4H378.7ZM349.1 300.6H378.8V270.4H349.1V300.6ZM348.2 301.4V330.6H318.5V301.4H348.2ZM318.6 300.6H348.3V270.4H318.6V300.6ZM317.7 301.4V330.6H288V301.4H317.7ZM288.1 300.6H317.8V270.4H288.1V300.6ZM287.2 301.4V330.6H257.1V301.4H287.2ZM257.1 300.6H287.2V270.4H257.1V300.6ZM256.3 301.4V330.6H227.5V301.4H256.3ZM227.5 300.6H256.3V270.4H227.5V300.6ZM227.5 209.4V239.6H256.3V209.4H227.5ZM257.1 209.4V239.6H287.2V209.4H257.1ZM257.1 240.4H287.2V269.6H257.1V240.4ZM288.1 209.4V239.6H317.8V209.4H288.1ZM288.1 240.4H317.8V269.6H288.1V240.4ZM318.6 209.4V239.6H348.3V209.4H318.6ZM318.6 240.4H348.3V269.6H318.6V240.4ZM349.1 209.4V239.6H378.8V209.4H349.1ZM349.1 240.4H378.8V269.6H349.1V240.4ZM379.6 209.4V239.6H409.3V209.4H379.6ZM379.6 240.4H409.3V269.6H379.6V240.4ZM410.1 209.4V239.6H439.8V209.4H410.1ZM410.1 240.4H439.8V269.6H410.1V240.4ZM440.6 209.4V239.6H470.3V209.4H440.6ZM440.6 240.4H470.3V269.6H440.6V240.4ZM471.1 209.4V239.6H500.8V209.4H471.1ZM471.1 240.4H500.8V269.6H471.1V240.4ZM501.6 209.4V239.6H531.3V209.4H501.6ZM501.6 240.4H531.3V269.6H501.6V240.4ZM256.3 240.4V269.6H227.5V240.4H256.3ZM531.2 179.4V208.6H501.5V179.4H531.2ZM500.7 179.4V208.6H471V179.4H500.7ZM470.2 179.4V208.6H440.5V179.4H470.2ZM439.7 179.4V208.6H410V179.4H439.7ZM409.2 179.4V208.6H379.5V179.4H409.2ZM378.7 179.4V208.6H349V179.4H378.7ZM348.2 179.4V208.6H318.5V179.4H348.2ZM317.7 179.4V208.6H288V179.4H317.7ZM287.2 179.4V208.6H257.1V179.4H287.2ZM256.3 179.4V208.6H227.5V179.4H256.3ZM227.5 118.3V148H256.3V118.3H227.5ZM257.1 118.3V148H287.2V118.3H257.1ZM257.1 148.8H287.2V178.5H257.1V148.8ZM288.1 118.3V148H317.8V118.3H288.1ZM288.1 148.8H317.8V178.5H288.1V148.8ZM318.6 118.3V148H348.3V118.3H318.6ZM318.6 148.8H348.3V178.5H318.6V148.8ZM349.1 118.3V148H378.8V118.3H349.1ZM349.1 148.8H378.8V178.5H349.1V148.8ZM379.6 118.3V148H409.3V118.3H379.6ZM379.6 148.8H409.3V178.5H379.6V148.8ZM410.1 118.3V148H439.8V118.3H410.1ZM410.1 148.8H439.8V178.5H410.1V148.8ZM440.6 118.3V148H470.3V118.3H440.6ZM440.6 148.8H470.3V178.5H440.6V148.8ZM471.1 118.3V148H500.8V118.3H471.1ZM471.1 148.8H500.8V178.5H471.1V148.8ZM531.2 148.8H501.5V178.5H531.2V148.8ZM256.3 148.8V178.5H227.5V148.8H256.3ZM531.2 117.4H501.5V87.8H531.2V117.4ZM500.7 87.8V117.5H471V87.8H500.7ZM470.2 87.8V117.5H440.5V87.8H470.2ZM439.7 87.8V117.5H410V87.8H439.7ZM409.2 87.8V117.5H379.5V87.8H409.2ZM378.7 87.8V117.5H349V87.8H378.7ZM348.2 87.8V117.5H318.5V87.8H348.2ZM317.7 87.8V117.5H288V87.8H317.7ZM287.2 87.8V117.5H257.1V87.8H287.2ZM256.3 87.8V117.5H227.5V87.8H256.3ZM227.5 86.9V70.8H256.3V86.9H227.5Z" fill="url(#paint1_radial_144_753)"/>
</g>
<path fill-rule="evenodd" clip-rule="evenodd" d="M796.1 328.5C790.6 325.4 785.4 321.8 780.6 317.8L707.9 256.3C656 212.4 583.9 201.5 521.3 227.9C454.9 256 378.2 241.8 326.2 191.9L272.4 140.1C237.3 106.3 190.5 87.5 141.8 87.5H-25V90.5H141.7C189.6 90.5 235.7 109.1 270.3 142.3L324.1 194.1C376.9 244.9 454.9 259.3 522.4 230.7C583.9 204.7 654.9 215.4 705.9 258.6L778.6 320.1C783.2 324 788.1 327.5 793.3 330.4C767.5 347.5 736 354.9 704.7 350.4L649.9 342.6C620.6 338.4 590.7 341.2 562.6 350.8L420.4 399.2C400.4 406 379.5 409.3 358.4 409.1L-46 404.3V407.3L358.4 412.1C379.8 412.4 401.1 409 421.4 402.1L563.6 353.7C591.2 344.3 620.6 341.5 649.5 345.6L704.3 353.4C736.8 358 769.6 350.2 796.3 332.1C810.9 339.9 827.3 344 844 344V341C828.3 341 812.9 337.2 799.1 330.1C804.8 326 810.2 321.4 815.3 316.4L853.4 278.3C865.1 266.6 881 260 897.5 260V257C880.1 257 863.5 263.9 851.2 276.2L813.1 314.3C807.9 319.5 802.2 324.3 796.1 328.5Z" fill="url(#paint2_linear_144_753)"/>
<path d="M1351.5 300H1326.8C1300.1 300 1274.7 290 1253 274.5C1252.7 274.3 1252.3 274 1251.9 273.7C1240.4 265.1 1224.5 263.7 1213.2 272.6M1351.5 300C1351.5 300 1256 306.7 1213.3 272.6M1351.5 300H1447M1213.3 272.6C1209.1 276 1204.5 281 1204.5 281L1169.9 320.5C1145.8 348.1 1104.8 350.1 1077.3 328.1C1077.3 328.1 1083.4 323.6 1086.1 320.5L1120.7 281C1144.7 253.5 1185.7 250.6 1213.3 272.6ZM941.4 272.6C944.5 275.1 947.5 277.9 950.2 281L984.8 320.5C1008.9 348.1 1049.9 350.1 1077.4 328.1C1077.4 328.1 1071.4 323.6 1068.6 320.5L1034 281C1010 253.5 969 250.6 941.4 272.6ZM941.4 272.6C938.3 275.1 935.4 277.9 932.6 281L898 320.5C883.8 336.8 863.6 344.1 843.9 342.9M941.4 272.6C930.1 263.6 916.6 258.8 903 258.1M1188.9 298.9V261.2M1161 329.5V259.3M1131.6 342.1V271.1M1105.7 341.5V297.5M917.9 297.9V260.2M890 328.3V258.3M860.6 341.1V271.1M835.7 341.1V293.6M967.2 300.4V260.2M995.1 330V259.3M1024.5 342.3V272.1M1050.4 341.2V299.5" stroke="url(#paint3_linear_144_753)" stroke-width="3"/>
<path d="M1312 300H-52M-52 300L-42.9 294.5M-52 300L-42.9 305.5" stroke="url(#paint4_linear_144_753)" stroke-dasharray="4 4"/>
<path d="M486.5 300C486.5 300 444.5 293.5 419.5 282.5C353.2 253.3 343.6 199.8 258.7 199.8C193.2 199.8 166.3 227.8 115 237.9C37.6 253.1 -1.4 198.8 -50 146.5" stroke="#1D5CFF" stroke-dasharray="4 4"/>
<path d="M460 300C460 300 448.5 298 443 296C408.2 283.3 393.5 249 360 249C326.5 249 312.7 263.3 286.5 268.5C219.3 281.7 202.1 192.4 134.5 179.5C40.3 162.6 -105.4 292.1 -112.3 298.3C-112.5 298.5 -112.5 298.7 -112.5 299V300.6" stroke="url(#paint5_linear_144_753)" stroke-dasharray="4 4"/>
<path d="M1400 303.5C1397.79 303.5 1396 301.709 1396 299.5C1396 297.291 1397.79 295.5 1400 295.5C1402.21 295.5 1404 297.291 1404 299.5C1404 301.709 1402.21 303.5 1400 303.5Z" fill="#0E0818" stroke="#01056C" stroke-width="3"/>
<path d="M1324 303.5C1321.79 303.5 1320 301.709 1320 299.5C1320 297.291 1321.79 295.5 1324 295.5C1326.21 295.5 1328 297.291 1328 299.5C1328 301.709 1326.21 303.5 1324 303.5Z" fill="#0E0818" stroke="#04097D" stroke-width="3"/>
<path d="M689 353C686.791 353 685 351.209 685 349C685 346.791 686.791 345 689 345C691.209 345 693 346.791 693 349C693 351.209 691.209 353 689 353Z" fill="#0E0818" stroke="#1D5CFF" stroke-width="3"/>
<path d="M605 220C602.791 220 601 218.209 601 216C601 213.791 602.791 212 605 212C607.209 212 609 213.791 609 216C609 218.209 607.209 220 605 220Z" fill="#0E0818" stroke="#1D5CFF" stroke-width="3"/>
<path d="M1163 261C1160.79 261 1159 259.209 1159 257C1159 254.791 1160.79 253 1163 253C1165.21 253 1167 254.791 1167 257C1167 259.209 1165.21 261 1163 261Z" fill="#0E0818" stroke="#1D5CFF" stroke-width="3"/>
<path d="M1029 346C1026.79 346 1025 344.209 1025 342C1025 339.791 1026.79 338 1029 338C1031.21 338 1033 339.791 1033 342C1033 344.209 1031.21 346 1029 346Z" fill="#0E0818" stroke="#0C13A7" stroke-width="3"/>
<path d="M904 261C901.791 261 900 259.209 900 257C900 254.791 901.791 253 904 253C906.209 253 908 254.791 908 257C908 259.209 906.209 261 904 261Z" fill="#0E0818" stroke="#1D5CFF" stroke-width="3"/>
<path d="M1244 274C1241.79 274 1240 272.209 1240 270C1240 267.791 1241.79 266 1244 266C1246.21 266 1248 267.791 1248 270C1248 272.209 1246.21 274 1244 274Z" fill="#0E0818" stroke="#1D5CFF" stroke-width="3"/>
<path d="M1115 346C1112.79 346 1111 344.209 1111 342C1111 339.791 1112.79 338 1115 338C1117.21 338 1119 339.791 1119 342C1119 344.209 1117.21 346 1115 346Z" fill="#0E0818" stroke="#060B87" stroke-width="3"/>
<path d="M981 261C978.791 261 977 259.209 977 257C977 254.791 978.791 253 981 253C983.209 253 985 254.791 985 257C985 259.209 983.209 261 981 261Z" fill="#0E0818" stroke="#1D5CFF" stroke-width="3"/>
<path d="M847 346C844.791 346 843 344.209 843 342C843 339.791 844.791 338 847 338C849.209 338 851 339.791 851 342C851 344.209 849.209 346 847 346Z" fill="#0E0818" stroke="#1D5CFF" stroke-width="3"/>
<path opacity="0.5" d="M119 190.5C112.096 190.5 106.5 184.904 106.5 178C106.5 171.096 112.096 165.5 119 165.5C125.904 165.5 131.5 171.096 131.5 178C131.5 184.904 125.904 190.5 119 190.5Z" stroke="#FF00E5"/>
<path d="M119 182C116.791 182 115 180.209 115 178C115 175.791 116.791 174 119 174C121.209 174 123 175.791 123 178C123 180.209 121.209 182 119 182Z" fill="#0F0821" stroke="#FF00E5" stroke-width="2"/>
<path opacity="0.2" d="M118.5 202.5C105.245 202.5 94.5 191.755 94.5 178.5C94.5 165.245 105.245 154.5 118.5 154.5C131.755 154.5 142.5 165.245 142.5 178.5C142.5 191.755 131.755 202.5 118.5 202.5Z" stroke="#FF00E5"/>
</g>
<defs>
<radialGradient id="paint0_radial_144_753" cx="0" cy="0" r="1" gradientUnits="userSpaceOnUse" gradientTransform="translate(198.534 252.988) rotate(-177.165) scale(262.822 189.648)">
<stop stop-color="#1D26FF"/>
<stop offset="0.6875" stop-color="#1D26FF" stop-opacity="0.63"/>
<stop offset="1" stop-color="#1D26FF" stop-opacity="0"/>
</radialGradient>
<radialGradient id="paint1_radial_144_753" cx="0" cy="0" r="1" gradientUnits="userSpaceOnUse" gradientTransform="translate(221.04 248.031) rotate(0.32899) scale(348.507 183.739)">
<stop stop-color="#A9008C"/>
<stop offset="1" stop-color="#890670"/>
</radialGradient>
<linearGradient id="paint2_linear_144_753" x1="835.882" y1="449.619" x2="77.1792" y2="232.298" gradientUnits="userSpaceOnUse">
<stop stop-color="#1D5CFF"/>
<stop offset="1" stop-color="#2100FF" stop-opacity="0.19"/>
</linearGradient>
<linearGradient id="paint3_linear_144_753" x1="1127.75" y1="264.272" x2="1147.42" y2="349.272" gradientUnits="userSpaceOnUse">
<stop stop-color="#1D5CFF"/>
<stop offset="1" stop-color="#00056B"/>
</linearGradient>
<linearGradient id="paint4_linear_144_753" x1="1312.02" y1="300" x2="440.523" y2="300" gradientUnits="userSpaceOnUse">
<stop stop-color="#04097D"/>
<stop offset="0.6381" stop-color="#1D5CFF"/>
<stop offset="1" stop-color="#FF00E5"/>
</linearGradient>
<linearGradient id="paint5_linear_144_753" x1="402.468" y1="324.863" x2="-53.0319" y2="225.863" gradientUnits="userSpaceOnUse">
<stop stop-color="#FF00E5"/>
<stop offset="0.5677" stop-color="#FF00E5" stop-opacity="0.8629"/>
<stop offset="1" stop-color="#FF00E5" stop-opacity="0"/>
</linearGradient>
<clipPath id="clip0_144_753">
<rect width="1430.9" height="419" fill="white" transform="matrix(-1 0 0 1 1431 0)"/>
</clipPath>
</defs>
</svg>
