<svg width="571" height="114" viewBox="0 0 571 114" fill="none" xmlns="http://www.w3.org/2000/svg">
<path d="M0 16H528.273L550 114H23.0054L0 16Z" fill="#FBBE00"/>
<path d="M18 0H549.154L571 98H41.1309L18 0Z" fill="#A20F0F"/>
<path d="M163.207 40.5455V58H159.517V40.5455H163.207ZM177.067 48.642L173.744 48.8466C173.687 48.5625 173.565 48.3068 173.377 48.0795C173.19 47.8466 172.942 47.6619 172.636 47.5256C172.335 47.3835 171.974 47.3125 171.553 47.3125C170.991 47.3125 170.516 47.4318 170.13 47.6705C169.744 47.9034 169.55 48.2159 169.55 48.608C169.55 48.9205 169.675 49.1847 169.925 49.4006C170.175 49.6165 170.604 49.7898 171.212 49.9205L173.582 50.3977C174.854 50.6591 175.803 51.0795 176.428 51.6591C177.053 52.2386 177.366 53 177.366 53.9432C177.366 54.8011 177.113 55.554 176.607 56.2017C176.107 56.8494 175.42 57.3551 174.545 57.7188C173.675 58.0767 172.673 58.2557 171.536 58.2557C169.803 58.2557 168.423 57.8949 167.394 57.1733C166.371 56.446 165.772 55.4574 165.596 54.2074L169.167 54.0199C169.275 54.5483 169.536 54.9517 169.951 55.2301C170.366 55.5028 170.897 55.6392 171.545 55.6392C172.181 55.6392 172.692 55.517 173.079 55.2727C173.471 55.0227 173.67 54.7017 173.675 54.3097C173.67 53.9801 173.531 53.7102 173.258 53.5C172.985 53.2841 172.565 53.1193 171.996 53.0057L169.729 52.554C168.451 52.2983 167.499 51.8551 166.874 51.2244C166.255 50.5937 165.945 49.7898 165.945 48.8125C165.945 47.9716 166.173 47.2472 166.627 46.6392C167.087 46.0312 167.732 45.5625 168.562 45.233C169.397 44.9034 170.374 44.7386 171.494 44.7386C173.147 44.7386 174.448 45.0881 175.397 45.7869C176.352 46.4858 176.908 47.4375 177.067 48.642ZM179.652 58V44.9091H183.283V58H179.652ZM181.476 43.2216C180.936 43.2216 180.473 43.0426 180.087 42.6847C179.706 42.321 179.516 41.8864 179.516 41.3807C179.516 40.8807 179.706 40.4517 180.087 40.0938C180.473 39.7301 180.936 39.5483 181.476 39.5483C182.016 39.5483 182.476 39.7301 182.857 40.0938C183.243 40.4517 183.436 40.8807 183.436 41.3807C183.436 41.8864 183.243 42.321 182.857 42.6847C182.476 43.0426 182.016 43.2216 181.476 43.2216ZM311.207 49.392V52.2727H303.246V49.392H311.207ZM314.3 58V44.9091H317.761V47.2188H317.914C318.187 46.4517 318.641 45.8466 319.278 45.4034C319.914 44.9602 320.675 44.7386 321.562 44.7386C322.46 44.7386 323.224 44.9631 323.854 45.4119C324.485 45.8551 324.906 46.4574 325.116 47.2188H325.252C325.519 46.4688 326.002 45.8693 326.701 45.4205C327.406 44.9659 328.238 44.7386 329.198 44.7386C330.42 44.7386 331.411 45.1278 332.173 45.9062C332.94 46.679 333.323 47.7756 333.323 49.196V58H329.701V49.9119C329.701 49.1847 329.508 48.6392 329.121 48.2756C328.735 47.9119 328.252 47.7301 327.673 47.7301C327.013 47.7301 326.499 47.9403 326.13 48.3608C325.761 48.7756 325.576 49.3239 325.576 50.0057V58H322.056V49.8352C322.056 49.1932 321.871 48.6818 321.502 48.3011C321.138 47.9205 320.658 47.7301 320.062 47.7301C319.658 47.7301 319.295 47.8324 318.971 48.0369C318.653 48.2358 318.4 48.517 318.212 48.8807C318.025 49.2386 317.931 49.6591 317.931 50.142V58H314.3ZM344.586 52.4261V44.9091H348.217V58H344.731V55.6222H344.594C344.299 56.3892 343.808 57.0057 343.12 57.4716C342.438 57.9375 341.606 58.1705 340.623 58.1705C339.748 58.1705 338.978 57.9716 338.313 57.5739C337.648 57.1761 337.129 56.6108 336.754 55.8778C336.384 55.1449 336.197 54.267 336.191 53.2443V44.9091H339.822V52.5966C339.827 53.3693 340.035 53.9801 340.444 54.429C340.853 54.8778 341.401 55.1023 342.089 55.1023C342.526 55.1023 342.935 55.0028 343.316 54.804C343.697 54.5994 344.004 54.2983 344.237 53.9006C344.475 53.5028 344.592 53.0114 344.586 52.4261ZM361.499 58.2131C360.505 58.2131 359.604 57.9574 358.798 57.446C357.996 56.929 357.36 56.1705 356.888 55.1705C356.423 54.1648 356.19 52.9318 356.19 51.4716C356.19 49.9716 356.431 48.7244 356.914 47.7301C357.397 46.7301 358.039 45.983 358.84 45.4886C359.647 44.9886 360.531 44.7386 361.491 44.7386C362.224 44.7386 362.835 44.8636 363.323 45.1136C363.817 45.358 364.215 45.6648 364.516 46.0341C364.823 46.3977 365.056 46.7557 365.215 47.108H365.326V40.5455H368.948V58H365.369V55.9034H365.215C365.045 56.267 364.803 56.6278 364.491 56.9858C364.184 57.3381 363.783 57.6307 363.289 57.8636C362.8 58.0966 362.204 58.2131 361.499 58.2131ZM362.65 55.3239C363.235 55.3239 363.729 55.1648 364.133 54.8466C364.542 54.5227 364.854 54.071 365.07 53.4915C365.292 52.9119 365.403 52.233 365.403 51.4545C365.403 50.6761 365.295 50 365.079 49.4261C364.863 48.8523 364.55 48.4091 364.141 48.0966C363.732 47.7841 363.235 47.6278 362.65 47.6278C362.053 47.6278 361.55 47.7898 361.141 48.1136C360.732 48.4375 360.423 48.8864 360.212 49.4602C360.002 50.0341 359.897 50.6989 359.897 51.4545C359.897 52.2159 360.002 52.8892 360.212 53.4744C360.428 54.054 360.738 54.5085 361.141 54.8381C361.55 55.1619 362.053 55.3239 362.65 55.3239ZM371.933 58V44.9091H375.564V58H371.933ZM373.757 43.2216C373.217 43.2216 372.754 43.0426 372.368 42.6847C371.987 42.321 371.797 41.8864 371.797 41.3807C371.797 40.8807 371.987 40.4517 372.368 40.0938C372.754 39.7301 373.217 39.5483 373.757 39.5483C374.297 39.5483 374.757 39.7301 375.138 40.0938C375.524 40.4517 375.717 40.8807 375.717 41.3807C375.717 41.8864 375.524 42.321 375.138 42.6847C374.757 43.0426 374.297 43.2216 373.757 43.2216ZM394.919 48.642L391.595 48.8466C391.538 48.5625 391.416 48.3068 391.229 48.0795C391.041 47.8466 390.794 47.6619 390.487 47.5256C390.186 47.3835 389.825 47.3125 389.405 47.3125C388.842 47.3125 388.368 47.4318 387.982 47.6705C387.595 47.9034 387.402 48.2159 387.402 48.608C387.402 48.9205 387.527 49.1847 387.777 49.4006C388.027 49.6165 388.456 49.7898 389.064 49.9205L391.433 50.3977C392.706 50.6591 393.655 51.0795 394.28 51.6591C394.905 52.2386 395.217 53 395.217 53.9432C395.217 54.8011 394.964 55.554 394.459 56.2017C393.959 56.8494 393.271 57.3551 392.396 57.7188C391.527 58.0767 390.524 58.2557 389.388 58.2557C387.655 58.2557 386.274 57.8949 385.246 57.1733C384.223 56.446 383.624 55.4574 383.447 54.2074L387.018 54.0199C387.126 54.5483 387.388 54.9517 387.803 55.2301C388.217 55.5028 388.749 55.6392 389.396 55.6392C390.033 55.6392 390.544 55.517 390.93 55.2727C391.322 55.0227 391.521 54.7017 391.527 54.3097C391.521 53.9801 391.382 53.7102 391.109 53.5C390.837 53.2841 390.416 53.1193 389.848 53.0057L387.581 52.554C386.303 52.2983 385.351 51.8551 384.726 51.2244C384.107 50.5937 383.797 49.7898 383.797 48.8125C383.797 47.9716 384.024 47.2472 384.479 46.6392C384.939 46.0312 385.584 45.5625 386.413 45.233C387.249 44.9034 388.226 44.7386 389.345 44.7386C390.999 44.7386 392.3 45.0881 393.249 45.7869C394.203 46.4858 394.76 47.4375 394.919 48.642ZM397.504 58V44.9091H401.134V58H397.504ZM399.327 43.2216C398.788 43.2216 398.325 43.0426 397.938 42.6847C397.558 42.321 397.367 41.8864 397.367 41.3807C397.367 40.8807 397.558 40.4517 397.938 40.0938C398.325 39.7301 398.788 39.5483 399.327 39.5483C399.867 39.5483 400.327 39.7301 400.708 40.0938C401.094 40.4517 401.288 40.8807 401.288 41.3807C401.288 41.8864 401.094 42.321 400.708 42.6847C400.327 43.0426 399.867 43.2216 399.327 43.2216ZM407.673 50.4318V58H404.043V44.9091H407.503V47.2188H407.656C407.946 46.4574 408.432 45.8551 409.114 45.4119C409.795 44.9631 410.622 44.7386 411.594 44.7386C412.503 44.7386 413.295 44.9375 413.972 45.3352C414.648 45.733 415.173 46.3011 415.548 47.0398C415.923 47.7727 416.111 48.6477 416.111 49.6648V58H412.48V50.3125C412.486 49.5114 412.281 48.8864 411.866 48.4375C411.452 47.983 410.881 47.7557 410.153 47.7557C409.665 47.7557 409.233 47.8608 408.858 48.071C408.489 48.2812 408.199 48.5881 407.989 48.9915C407.784 49.3892 407.679 49.8693 407.673 50.4318ZM418.972 58V44.9091H422.603V58H418.972ZM420.796 43.2216C420.256 43.2216 419.793 43.0426 419.407 42.6847C419.026 42.321 418.836 41.8864 418.836 41.3807C418.836 40.8807 419.026 40.4517 419.407 40.0938C419.793 39.7301 420.256 39.5483 420.796 39.5483C421.336 39.5483 421.796 39.7301 422.177 40.0938C422.563 40.4517 422.756 40.8807 422.756 41.3807C422.756 41.8864 422.563 42.321 422.177 42.6847C421.796 43.0426 421.336 43.2216 420.796 43.2216ZM429.849 40.5455L429.517 52.767H426.398L426.057 40.5455H429.849ZM427.957 58.2216C427.395 58.2216 426.912 58.0227 426.509 57.625C426.105 57.2216 425.906 56.7386 425.912 56.1761C425.906 55.6193 426.105 55.142 426.509 54.7443C426.912 54.3466 427.395 54.1477 427.957 54.1477C428.497 54.1477 428.972 54.3466 429.381 54.7443C429.79 55.142 429.997 55.6193 430.003 56.1761C429.997 56.5511 429.898 56.8949 429.705 57.2074C429.517 57.5142 429.27 57.7614 428.963 57.9489C428.656 58.1307 428.321 58.2216 427.957 58.2216Z" fill="white"/>
<path d="M194.822 58H190.868L196.893 40.5455H201.649L207.666 58H203.712L199.339 44.5341H199.203L194.822 58ZM194.575 51.1392H203.916V54.0199H194.575V51.1392ZM218.837 45.5653C218.769 44.8778 218.477 44.3437 217.96 43.9631C217.442 43.5824 216.741 43.392 215.854 43.392C215.252 43.392 214.744 43.4773 214.329 43.6477C213.914 43.8125 213.596 44.0426 213.374 44.3381C213.158 44.6335 213.05 44.9688 213.05 45.3438C213.039 45.6562 213.104 45.929 213.246 46.1619C213.394 46.3949 213.596 46.5966 213.852 46.767C214.107 46.9318 214.403 47.0767 214.738 47.2017C215.073 47.321 215.431 47.4233 215.812 47.5085L217.38 47.8835C218.141 48.054 218.84 48.2812 219.477 48.5653C220.113 48.8494 220.664 49.1989 221.13 49.6136C221.596 50.0284 221.957 50.517 222.212 51.0795C222.474 51.642 222.607 52.2869 222.613 53.0142C222.607 54.0824 222.335 55.0085 221.795 55.7926C221.261 56.571 220.488 57.1761 219.477 57.608C218.471 58.0341 217.258 58.2472 215.837 58.2472C214.428 58.2472 213.201 58.0312 212.156 57.5994C211.116 57.1676 210.303 56.5284 209.718 55.6818C209.138 54.8295 208.835 53.7756 208.806 52.5199H212.377C212.417 53.1051 212.585 53.5937 212.88 53.9858C213.181 54.3722 213.582 54.6648 214.082 54.8636C214.587 55.0568 215.158 55.1534 215.795 55.1534C216.42 55.1534 216.962 55.0625 217.423 54.8807C217.888 54.6989 218.249 54.446 218.505 54.1222C218.761 53.7983 218.888 53.4261 218.888 53.0057C218.888 52.6136 218.772 52.2841 218.539 52.017C218.312 51.75 217.977 51.5227 217.533 51.3352C217.096 51.1477 216.559 50.9773 215.923 50.8239L214.022 50.3466C212.55 49.9886 211.388 49.429 210.536 48.6676C209.684 47.9062 209.261 46.8807 209.266 45.5909C209.261 44.5341 209.542 43.6108 210.11 42.821C210.684 42.0312 211.471 41.4148 212.471 40.9716C213.471 40.5284 214.607 40.3068 215.88 40.3068C217.175 40.3068 218.306 40.5284 219.272 40.9716C220.244 41.4148 220.999 42.0312 221.539 42.821C222.079 43.6108 222.357 44.5256 222.374 45.5653H218.837ZM225.095 58V40.5455H231.982C233.305 40.5455 234.433 40.7983 235.365 41.304C236.297 41.804 237.007 42.5 237.496 43.392C237.99 44.2784 238.237 45.3011 238.237 46.4602C238.237 47.6193 237.987 48.642 237.487 49.5284C236.987 50.4148 236.263 51.1051 235.314 51.5994C234.371 52.0937 233.229 52.3409 231.888 52.3409H227.499V49.3835H231.291C232.001 49.3835 232.587 49.2614 233.047 49.017C233.513 48.767 233.859 48.4233 234.087 47.9858C234.32 47.5426 234.436 47.0341 234.436 46.4602C234.436 45.8807 234.32 45.375 234.087 44.9432C233.859 44.5057 233.513 44.1676 233.047 43.929C232.581 43.6847 231.99 43.5625 231.274 43.5625H228.786V58H225.095ZM244.325 40.5455V58H240.634V40.5455H244.325ZM247.361 58V40.5455H254.247C255.565 40.5455 256.69 40.7812 257.622 41.2528C258.56 41.7187 259.273 42.3807 259.761 43.2386C260.256 44.0909 260.503 45.0937 260.503 46.2472C260.503 47.4062 260.253 48.4034 259.753 49.2386C259.253 50.0682 258.528 50.7045 257.58 51.1477C256.636 51.5909 255.494 51.8125 254.153 51.8125H249.543V48.8466H253.557C254.261 48.8466 254.847 48.75 255.312 48.5568C255.778 48.3636 256.125 48.0739 256.352 47.6875C256.585 47.3011 256.702 46.821 256.702 46.2472C256.702 45.6676 256.585 45.179 256.352 44.7812C256.125 44.3835 255.776 44.0824 255.304 43.8778C254.838 43.6676 254.25 43.5625 253.54 43.5625H251.051V58H247.361ZM256.787 50.0568L261.125 58H257.051L252.807 50.0568H256.787ZM266.119 58H262.165L268.19 40.5455H272.946L278.963 58H275.009L270.636 44.5341H270.5L266.119 58ZM265.872 51.1392H275.213V54.0199H265.872V51.1392ZM290.134 45.5653C290.066 44.8778 289.773 44.3437 289.256 43.9631C288.739 43.5824 288.038 43.392 287.151 43.392C286.549 43.392 286.04 43.4773 285.626 43.6477C285.211 43.8125 284.893 44.0426 284.671 44.3381C284.455 44.6335 284.347 44.9688 284.347 45.3438C284.336 45.6562 284.401 45.929 284.543 46.1619C284.691 46.3949 284.893 46.5966 285.148 46.767C285.404 46.9318 285.7 47.0767 286.035 47.2017C286.37 47.321 286.728 47.4233 287.109 47.5085L288.677 47.8835C289.438 48.054 290.137 48.2812 290.773 48.5653C291.41 48.8494 291.961 49.1989 292.427 49.6136C292.893 50.0284 293.254 50.517 293.509 51.0795C293.771 51.642 293.904 52.2869 293.91 53.0142C293.904 54.0824 293.631 55.0085 293.092 55.7926C292.558 56.571 291.785 57.1761 290.773 57.608C289.768 58.0341 288.555 58.2472 287.134 58.2472C285.725 58.2472 284.498 58.0312 283.452 57.5994C282.413 57.1676 281.6 56.5284 281.015 55.6818C280.435 54.8295 280.131 53.7756 280.103 52.5199H283.674C283.714 53.1051 283.881 53.5937 284.177 53.9858C284.478 54.3722 284.879 54.6648 285.379 54.8636C285.884 55.0568 286.455 55.1534 287.092 55.1534C287.717 55.1534 288.259 55.0625 288.719 54.8807C289.185 54.6989 289.546 54.446 289.802 54.1222C290.058 53.7983 290.185 53.4261 290.185 53.0057C290.185 52.6136 290.069 52.2841 289.836 52.017C289.609 51.75 289.273 51.5227 288.83 51.3352C288.393 51.1477 287.856 50.9773 287.219 50.8239L285.319 50.3466C283.847 49.9886 282.685 49.429 281.833 48.6676C280.981 47.9062 280.558 46.8807 280.563 45.5909C280.558 44.5341 280.839 43.6108 281.407 42.821C281.981 42.0312 282.768 41.4148 283.768 40.9716C284.768 40.5284 285.904 40.3068 287.177 40.3068C288.472 40.3068 289.603 40.5284 290.569 40.9716C291.54 41.4148 292.296 42.0312 292.836 42.821C293.376 43.6108 293.654 44.5256 293.671 45.5653H290.134ZM300.082 40.5455V58H296.392V40.5455H300.082Z" fill="#FBBE00"/>
</svg>
