<?xml version="1.0" encoding="UTF-8"?>
<!DOCTYPE svg PUBLIC "-//W3C//DTD SVG 1.1//EN" "http://www.w3.org/Graphics/SVG/1.1/DTD/svg11.dtd">
<svg xmlns="http://www.w3.org/2000/svg" version="1.1" width="1406px" height="629px" style="shape-rendering:geometricPrecision; text-rendering:geometricPrecision; image-rendering:optimizeQuality; fill-rule:evenodd; clip-rule:evenodd" xmlns:xlink="http://www.w3.org/1999/xlink">
<g><path style="opacity:0.993" fill="#a20f0f" d="M 685.5,-0.5 C 698.167,-0.5 710.833,-0.5 723.5,-0.5C 781.51,7.74792 825.343,37.0813 855,87.5C 877.023,129.634 881.69,173.634 869,219.5C 847.272,284.229 803.105,324.062 736.5,339C 656.841,349.913 596.008,321.413 554,253.5C 531.977,211.372 527.31,167.372 540,121.5C 559.167,63.6667 597.667,25.1667 655.5,6C 665.541,3.36072 675.541,1.19405 685.5,-0.5 Z"/></g>
<g><path style="opacity:1" fill="#fdfcfc" d="M 723.5,224.5 C 723.666,220.486 723.499,216.486 723,212.5C 722.283,213.044 721.783,213.711 721.5,214.5C 713.363,223.668 703.029,228.002 690.5,227.5C 661.838,225.209 650.338,209.876 656,181.5C 661.221,170.796 669.721,164.296 681.5,162C 693.497,160 705.497,158 717.5,156C 718.931,155.535 720.097,154.701 721,153.5C 722.045,143.039 717.212,137.705 706.5,137.5C 697.945,137.066 691.945,140.733 688.5,148.5C 678.465,149.498 668.465,149.164 658.5,147.5C 662.079,130.417 672.412,119.584 689.5,115C 709.144,110.273 727.144,113.606 743.5,125C 748.341,129.513 751.508,135.013 753,141.5C 753.5,169.498 753.667,197.498 753.5,225.5C 743.319,225.827 733.319,225.494 723.5,224.5 Z"/></g>
<g><path style="opacity:1" fill="#a21311" d="M 719.5,176.5 C 724.458,193.603 717.791,202.936 699.5,204.5C 688.661,204.495 684.161,199.162 686,188.5C 688.638,184.872 692.138,182.372 696.5,181C 704.384,179.923 712.051,178.423 719.5,176.5 Z"/></g>
<g><path style="opacity:1" fill="#bb6969" d="M 723.5,224.5 C 722.833,221.167 722.167,217.833 721.5,214.5C 721.783,213.711 722.283,213.044 723,212.5C 723.499,216.486 723.666,220.486 723.5,224.5 Z"/></g>
<g><path style="opacity:0.953" fill="#a10f0e" d="M 454.5,398.5 C 471.037,398.865 478.537,407.198 477,423.5C 469.876,436.91 459.376,440.41 445.5,434C 433.5,423.333 433.5,412.667 445.5,402C 448.459,400.396 451.459,399.229 454.5,398.5 Z"/></g>
<g><path style="opacity:0.953" fill="#a10f0e" d="M 908.5,398.5 C 925.037,398.865 932.537,407.198 931,423.5C 923.876,436.91 913.376,440.41 899.5,434C 887.5,423.333 887.5,412.667 899.5,402C 902.459,400.396 905.459,399.229 908.5,398.5 Z"/></g>
<g><path style="opacity:0.972" fill="#a10f0e" d="M 1405.5,573.5 C 1405.5,575.5 1405.5,577.5 1405.5,579.5C 1389.97,583.954 1374.64,583.454 1359.5,578C 1348.76,572.028 1342.92,562.861 1342,550.5C 1341.5,527.169 1341.33,503.836 1341.5,480.5C 1335.91,480.807 1330.41,480.473 1325,479.5C 1324.5,470.173 1324.33,460.839 1324.5,451.5C 1330.17,451.5 1335.83,451.5 1341.5,451.5C 1341.18,441.251 1341.51,431.084 1342.5,421C 1354.83,420.5 1367.16,420.333 1379.5,420.5C 1379.5,430.833 1379.5,441.167 1379.5,451.5C 1387.5,451.5 1395.5,451.5 1403.5,451.5C 1403.67,460.839 1403.5,470.173 1403,479.5C 1395.25,480.482 1387.42,480.815 1379.5,480.5C 1379.33,501.836 1379.5,523.169 1380,544.5C 1380.83,548 1383,550.167 1386.5,551C 1391.18,551.461 1395.85,551.295 1400.5,550.5C 1401.72,558.381 1403.39,566.048 1405.5,573.5 Z"/></g>
<g><path style="opacity:0.975" fill="#a10f0e" d="M -0.5,552.5 C -0.5,546.833 -0.5,541.167 -0.5,535.5C 3.24498,520.257 12.9116,510.757 28.5,507C 41.3927,504.345 54.3927,502.345 67.5,501C 77.9287,498.897 80.4287,493.063 75,483.5C 65.5777,476.086 55.7443,475.586 45.5,482C 42.4164,484.843 40.0831,488.176 38.5,492C 27.1305,491.664 15.7972,490.664 4.5,489C 5.16563,479.326 9.16563,470.993 16.5,464C 32.6725,451.373 51.0058,446.706 71.5,450C 87.3113,451.486 100.145,458.319 110,470.5C 111.608,473.382 112.941,476.382 114,479.5C 115.465,513.126 115.965,546.792 115.5,580.5C 103.5,580.5 91.5,580.5 79.5,580.5C 79.6658,575.821 79.4992,571.155 79,566.5C 69.7905,578.196 57.6238,583.862 42.5,583.5C 29.3179,583.387 17.8179,579.054 8,570.5C 3.77218,565.049 0.938849,559.049 -0.5,552.5 Z M 77.5,522.5 C 81.6949,542.32 73.6949,553.654 53.5,556.5C 47.5557,556.355 42.389,554.355 38,550.5C 33.055,539.37 36.555,532.203 48.5,529C 58.4742,527.609 68.1409,525.443 77.5,522.5 Z"/></g>
<g><path style="opacity:0.968" fill="#a10f0e" d="M 187.5,449.5 C 203.908,447.68 219.575,450.18 234.5,457C 246.627,464.412 253.294,475.245 254.5,489.5C 242.868,490.623 231.202,491.289 219.5,491.5C 216.748,481.851 210.248,476.851 200,476.5C 194.777,476.786 189.943,478.286 185.5,481C 179.445,488.622 181.111,494.289 190.5,498C 204.931,500.953 219.264,504.286 233.5,508C 253.541,515.914 261.041,530.414 256,551.5C 253.148,560.687 247.648,567.854 239.5,573C 213.342,586.614 187.009,586.947 160.5,574C 148.736,566.383 142.07,555.55 140.5,541.5C 152.83,540.596 165.164,540.096 177.5,540C 181.221,550.458 188.721,555.624 200,555.5C 206.333,555.279 212,553.279 217,549.5C 220.389,544.306 219.555,539.806 214.5,536C 198.167,531.667 181.833,527.333 165.5,523C 147.869,514.234 141.035,500.067 145,480.5C 148.193,469.305 155.027,461.139 165.5,456C 172.689,452.877 180.022,450.71 187.5,449.5 Z"/></g>
<g><path style="opacity:0.976" fill="#a10f0e" d="M 321.5,628.5 C 309.167,628.5 296.833,628.5 284.5,628.5C 284.5,569.5 284.5,510.5 284.5,451.5C 296.833,451.5 309.167,451.5 321.5,451.5C 321.334,457.842 321.5,464.175 322,470.5C 333.393,451.692 349.893,445.192 371.5,451C 389.307,456.807 401.141,468.641 407,486.5C 410.361,501.314 411.361,516.314 410,531.5C 404.678,567.178 384.178,584.011 348.5,582C 337.345,580.008 328.845,574.175 323,564.5C 322.822,585.906 322.322,607.239 321.5,628.5 Z M 345.5,479.5 C 359.791,480.62 368.291,488.286 371,502.5C 374.094,516.931 372.094,530.598 365,543.5C 352.959,555.49 340.959,555.49 329,543.5C 321.56,530.361 319.56,516.361 323,501.5C 325.848,489.149 333.348,481.816 345.5,479.5 Z"/></g>
<g><path style="opacity:0.973" fill="#a10f0e" d="M 567.5,449.5 C 573.176,449.334 578.843,449.501 584.5,450C 588.374,450.727 591.707,452.393 594.5,455C 591.025,465.093 587.358,475.093 583.5,485C 579.136,483.957 574.636,483.123 570,482.5C 559.685,483.152 552.351,488.152 548,497.5C 546.526,525.103 546.026,552.769 546.5,580.5C 533.833,580.5 521.167,580.5 508.5,580.5C 508.5,537.5 508.5,494.5 508.5,451.5C 520.833,451.5 533.167,451.5 545.5,451.5C 545.334,456.844 545.501,462.177 546,467.5C 550.76,458.549 557.926,452.549 567.5,449.5 Z"/></g>
<g><path style="opacity:0.975" fill="#a10f0e" d="M 657.5,449.5 C 676.783,447.263 694.449,451.429 710.5,462C 717.398,467.961 721.565,475.461 723,484.5C 723.5,516.498 723.667,548.498 723.5,580.5C 711.5,580.5 699.5,580.5 687.5,580.5C 687.666,575.821 687.499,571.155 687,566.5C 677.791,578.196 665.624,583.862 650.5,583.5C 617.036,581.247 603.202,563.58 609,530.5C 614.168,518.142 623.335,510.308 636.5,507C 649.393,504.345 662.393,502.345 675.5,501C 685.929,498.897 688.429,493.063 683,483.5C 674.965,477.013 666.131,475.846 656.5,480C 651.856,482.641 648.689,486.475 647,491.5C 646.107,492.081 645.107,492.415 644,492.5C 634.86,491.419 625.694,490.586 616.5,490C 614.616,489.784 612.949,489.117 611.5,488C 618.44,465.232 633.774,452.399 657.5,449.5 Z M 685.5,522.5 C 689.695,542.32 681.695,553.654 661.5,556.5C 655.556,556.355 650.389,554.355 646,550.5C 641.055,539.37 644.555,532.203 656.5,529C 666.474,527.609 676.141,525.443 685.5,522.5 Z"/></g>
<g><path style="opacity:0.968" fill="#a10f0e" d="M 795.5,449.5 C 811.908,447.68 827.575,450.18 842.5,457C 854.627,464.412 861.294,475.245 862.5,489.5C 850.868,490.623 839.202,491.289 827.5,491.5C 824.748,481.851 818.248,476.851 808,476.5C 802.777,476.786 797.943,478.286 793.5,481C 787.445,488.622 789.111,494.289 798.5,498C 812.931,500.953 827.264,504.286 841.5,508C 861.541,515.914 869.041,530.414 864,551.5C 861.148,560.687 855.648,567.854 847.5,573C 821.342,586.614 795.009,586.947 768.5,574C 756.736,566.383 750.07,555.55 748.5,541.5C 760.83,540.596 773.164,540.096 785.5,540C 789.221,550.458 796.721,555.624 808,555.5C 814.333,555.279 820,553.279 825,549.5C 828.389,544.306 827.555,539.806 822.5,536C 806.167,531.667 789.833,527.333 773.5,523C 755.869,514.234 749.035,500.067 753,480.5C 756.193,469.305 763.027,461.139 773.5,456C 780.689,452.877 788.022,450.71 795.5,449.5 Z"/></g>
<g><path style="opacity:0.974" fill="#a10f0e" d="M 1102.5,449.5 C 1135.21,446.387 1153.37,461.054 1157,493.5C 1157.5,522.498 1157.67,551.498 1157.5,580.5C 1144.83,580.5 1132.17,580.5 1119.5,580.5C 1119.67,553.498 1119.5,526.498 1119,499.5C 1115.62,484.807 1106.45,478.974 1091.5,482C 1083.23,484.599 1078.07,490.099 1076,498.5C 1075.5,525.831 1075.33,553.165 1075.5,580.5C 1062.83,580.5 1050.17,580.5 1037.5,580.5C 1037.5,537.5 1037.5,494.5 1037.5,451.5C 1049.5,451.5 1061.5,451.5 1073.5,451.5C 1073.33,457.842 1073.5,464.175 1074,470.5C 1080.26,459.07 1089.76,452.07 1102.5,449.5 Z"/></g>
<g><path style="opacity:0.966" fill="#a10f0e" d="M 1234.5,449.5 C 1276.87,446.395 1300.7,465.728 1306,507.5C 1306.67,513.5 1306.67,519.5 1306,525.5C 1277.24,526.495 1248.41,526.829 1219.5,526.5C 1220.51,544.177 1229.84,553.51 1247.5,554.5C 1258.22,554.65 1265.88,549.983 1270.5,540.5C 1271.67,540.167 1272.83,539.833 1274,539.5C 1284.16,540.377 1294.33,541.211 1304.5,542C 1305.02,542.561 1305.36,543.228 1305.5,544C 1299.04,565.459 1284.7,578.125 1262.5,582C 1239.39,586.517 1218.72,581.517 1200.5,567C 1184.96,548.683 1179.13,527.516 1183,503.5C 1187.81,473.446 1204.98,455.446 1234.5,449.5 Z M 1239.5,478.5 C 1257.05,476.739 1267.38,484.406 1270.5,501.5C 1253.49,501.833 1236.49,501.499 1219.5,500.5C 1222.42,489.591 1229.08,482.258 1239.5,478.5 Z"/></g>
<g><path style="opacity:0.974" fill="#a10f0e" d="M 438.5,451.5 C 451.167,451.5 463.833,451.5 476.5,451.5C 476.5,494.5 476.5,537.5 476.5,580.5C 463.833,580.5 451.167,580.5 438.5,580.5C 438.5,537.5 438.5,494.5 438.5,451.5 Z"/></g>
<g><path style="opacity:0.974" fill="#a10f0e" d="M 892.5,451.5 C 905.167,451.5 917.833,451.5 930.5,451.5C 930.5,494.5 930.5,537.5 930.5,580.5C 917.833,580.5 905.167,580.5 892.5,580.5C 892.5,537.5 892.5,494.5 892.5,451.5 Z"/></g>
<g><path style="opacity:0.958" fill="#a10f0e" d="M 980.5,540.5 C 997.351,540.516 1005.52,548.849 1005,565.5C 1000.15,580.842 989.984,586.009 974.5,581C 963.231,573.301 960.398,563.135 966,550.5C 969.64,545.348 974.474,542.014 980.5,540.5 Z"/></g>
</svg>
