<svg width="514" height="474" viewBox="0 0 514 474" fill="none" xmlns="http://www.w3.org/2000/svg">
<g opacity="0.3">
<path d="M-31.1528 158.06L-14.3671 150.82L-0.140009 162.299L-2.71969 181.173L-19.5053 188.413L-33.7324 176.934L-31.1528 158.06Z" stroke="#0093AD" stroke-width="4"/>
<path d="M492.542 307.804L475.757 315.044L461.529 303.565L464.109 284.691L480.895 277.451L495.122 288.93L492.542 307.804Z" stroke="#11C2CD" stroke-width="4"/>
<path d="M493.336 348.889L487.657 351.962L482.292 348.368L482.608 341.663L488.287 338.59L493.652 342.184L493.336 348.889Z" stroke="#11C2CD"/>
<path d="M484.323 333.143L477.399 336.89L470.857 332.508L471.244 324.302L478.169 320.555L484.71 324.937L484.323 333.143Z" stroke="#11C2CD" stroke-width="2"/>
<path d="M47.0412 153.894L60.4237 149.021L70.9703 158.592L68.1193 173.112L54.7369 177.985L44.1903 168.414L47.0412 153.894Z" stroke="#11C2CD" stroke-width="2"/>
<path d="M414.348 311.97L400.966 316.843L390.419 307.272L393.27 292.752L406.653 287.879L417.199 297.45L414.348 311.97Z" stroke="#11C2CD" stroke-width="2"/>
<path d="M44.6926 70.4889L58.6238 65.4166L69.6029 75.3799L66.6432 90.454L52.712 95.5264L41.7329 85.5631L44.6926 70.4889Z" stroke="#11C2CD"/>
<path d="M416.697 395.375L402.766 400.447L391.787 390.484L394.746 375.41L408.678 370.338L419.657 380.301L416.697 395.375Z" stroke="#11C2CD"/>
<path d="M205.508 166.535L219.439 161.463L230.418 171.426L227.458 186.5L213.527 191.572L202.548 181.609L205.508 166.535Z" stroke="#11C2CD"/>
<path d="M255.882 299.329L241.951 304.402L230.972 294.438L233.931 279.364L247.863 274.292L258.842 284.255L255.882 299.329Z" stroke="#11C2CD"/>
<path d="M193.455 174.043L213.013 166.922L228.426 180.91L224.274 202.057L204.716 209.178L189.303 195.19L193.455 174.043Z" stroke="#11C2CD"/>
<path d="M267.935 291.821L248.377 298.942L232.963 284.954L237.116 263.807L256.673 256.686L272.087 270.674L267.935 291.821Z" stroke="#11C2CD"/>
<path d="M68.4784 106.181L71.3383 108.776L70.5693 112.692L66.9405 114.014L64.0806 111.418L64.8496 107.502L68.4784 106.181Z" fill="#11C2CD"/>
<path d="M392.911 359.683L390.051 357.088L390.82 353.171L394.449 351.85L397.309 354.445L396.54 358.362L392.911 359.683Z" fill="#0093AD"/>
<path d="M121.171 83.0797L124.27 85.385L123.885 89.3578L120.401 91.0251L117.303 88.7198L117.688 84.7471L121.171 83.0797Z" fill="#11C2CD"/>
<path d="M340.218 382.784L337.12 380.479L337.505 376.506L340.988 374.839L344.087 377.144L343.701 381.117L340.218 382.784Z" fill="#0093AD"/>
<path d="M154.09 99.8334L160.347 104.116L159.9 111.939L153.196 115.481L146.938 111.198L147.386 103.375L154.09 99.8334Z" fill="#11C2CD"/>
<path d="M307.299 366.031L301.042 361.748L301.489 353.925L308.194 350.383L314.451 354.666L314.004 362.489L307.299 366.031Z" fill="#0093AD"/>
<path d="M79.2732 246.8L85.5305 251.082L85.0832 258.905L78.3787 262.447L72.1215 258.164L72.5687 250.341L79.2732 246.8Z" fill="#0093AD"/>
<path d="M382.116 219.064L375.859 214.782L376.306 206.959L383.011 203.417L389.268 207.7L388.821 215.523L382.116 219.064Z" fill="#0093AD"/>
<path d="M300.015 188.101L304.239 190.992L303.937 196.274L299.411 198.665L295.187 195.773L295.489 190.492L300.015 188.101Z" fill="#0093AD"/>
<path d="M161.374 277.763L157.15 274.872L157.452 269.59L161.978 267.199L166.202 270.09L165.9 275.372L161.374 277.763Z" fill="#0093AD"/>
<path d="M341.031 165.498L347.9 170.199L347.409 178.788L340.049 182.676L333.18 177.975L333.671 169.386L341.031 165.498Z" fill="#0093AD"/>
<path d="M120.358 300.366L113.489 295.665L113.98 287.076L121.34 283.188L128.21 287.889L127.719 296.478L120.358 300.366Z" fill="#0093AD"/>
<path d="M387.206 170.546L395.654 177.762L393.782 189.091L383.46 193.205L375.012 185.989L376.884 174.66L387.206 170.546Z" fill="#0093AD"/>
<path d="M74.184 295.318L65.7355 288.102L67.6081 276.773L77.9293 272.659L86.3779 279.875L84.5052 291.204L74.184 295.318Z" fill="#0093AD"/>
<path d="M422.068 212.468L429.319 218.661L427.711 228.384L418.853 231.915L411.602 225.721L413.209 215.998L422.068 212.468Z" fill="#0093AD"/>
<path d="M39.3218 253.396L32.0707 247.203L33.6779 237.48L42.5362 233.949L49.7873 240.143L48.1801 249.866L39.3218 253.396Z" fill="#0093AD"/>
<path d="M40.4433 302.743L44.2673 305.36L43.9939 310.142L39.8966 312.306L36.0726 309.689L36.3459 304.907L40.4433 302.743Z" fill="#0093AD"/>
<path d="M420.946 163.121L417.122 160.504L417.395 155.722L421.493 153.558L425.317 156.175L425.043 160.957L420.946 163.121Z" fill="#0093AD"/>
<path d="M13.5619 289.438L20.4633 294.161L19.9699 302.79L12.5753 306.696L5.67391 301.973L6.16724 293.344L13.5619 289.438Z" fill="#0093AD"/>
<path d="M447.828 176.426L440.926 171.703L441.42 163.074L448.814 159.168L455.716 163.891L455.222 172.52L447.828 176.426Z" fill="#0093AD"/>
<path d="M84.9207 58.1565L113.773 47.6513L136.512 68.286L130.39 99.4645L101.538 109.97L78.7991 89.335L84.9207 58.1565Z" stroke="#0093AD"/>
<path d="M376.469 407.707L347.616 418.213L324.878 397.578L330.999 366.399L359.852 355.894L382.59 376.529L376.469 407.707Z" stroke="#11C2CD"/>
<path d="M159.735 42.8147L182.831 34.4053L201.033 50.9233L196.124 75.9273L173.027 84.3367L154.826 67.8188L159.735 42.8147Z" stroke="#11C2CD" stroke-width="2"/>
<path d="M301.655 423.049L278.558 431.458L260.356 414.941L265.266 389.936L288.362 381.527L306.564 398.045L301.655 423.049Z" stroke="#11C2CD" stroke-width="2"/>
<path d="M233.758 92.4731L248.922 86.952L260.872 97.7967L257.644 114.239L242.48 119.76L230.53 108.916L233.758 92.4731Z" stroke="#11C2CD" stroke-width="2"/>
<path d="M227.631 373.391L212.468 378.912L200.517 368.067L203.746 351.625L218.909 346.104L230.86 356.948L227.631 373.391Z" stroke="#11C2CD" stroke-width="2"/>
<path d="M254.406 165.004L268.147 160.001L278.976 169.828L276.049 184.735L262.308 189.738L251.479 179.911L254.406 165.004Z" stroke="#11C2CD" stroke-width="2"/>
<path d="M206.983 300.86L193.242 305.863L182.414 296.036L185.34 281.129L199.081 276.126L209.91 285.953L206.983 300.86Z" stroke="#11C2CD" stroke-width="2"/>
<path d="M251.944 185.463L270.87 178.572L285.786 192.108L281.76 212.612L262.834 219.503L247.918 205.967L251.944 185.463Z" stroke="#11C2CD" stroke-width="2"/>
<path d="M209.445 280.401L190.519 287.292L175.603 273.756L179.629 253.252L198.555 246.361L213.471 259.897L209.445 280.401Z" stroke="#11C2CD" stroke-width="2"/>
<path d="M335.556 213.959L349.152 209.009L359.867 218.733L356.971 233.484L343.375 238.434L332.66 228.71L335.556 213.959Z" stroke="#11C2CD" stroke-width="2"/>
<path d="M125.833 251.904L112.237 256.855L101.522 247.131L104.418 232.38L118.014 227.43L128.729 237.154L125.833 251.904Z" stroke="#11C2CD" stroke-width="2"/>
<path d="M377.819 240.309L396.786 233.403L411.734 246.968L407.699 267.515L388.732 274.421L373.784 260.856L377.819 240.309Z" stroke="#11C2CD" stroke-width="2"/>
<path d="M83.5706 225.555L64.6036 232.461L49.6558 218.896L53.6902 198.349L72.6572 191.443L87.6049 205.007L83.5706 225.555Z" stroke="#11C2CD" stroke-width="2"/>
<path d="M301.007 112.257L330.208 101.625L353.221 122.509L347.026 154.064L317.825 164.696L294.812 143.812L301.007 112.257Z" stroke="#11C2CD"/>
<path d="M160.382 353.607L131.181 364.239L108.168 343.355L114.364 311.8L143.565 301.168L166.578 322.052L160.382 353.607Z" stroke="#11C2CD"/>
<path d="M330.87 96.1659L371.539 81.3584L403.59 110.444L394.964 154.375L354.295 169.183L322.245 140.097L330.87 96.1659Z" stroke="#11C2CD"/>
<path d="M130.519 369.698L89.8506 384.506L57.7999 355.42L66.4255 311.489L107.094 296.681L139.145 325.767L130.519 369.698Z" stroke="#11C2CD"/>
<path d="M234.833 108.765L245.457 104.897L253.829 112.495L251.563 124.037L240.939 127.905L232.567 120.308L234.833 108.765Z" stroke="#11C2CD" stroke-width="2"/>
<path d="M226.556 357.099L215.933 360.967L207.561 353.369L209.827 341.826L220.45 337.958L228.823 345.556L226.556 357.099Z" stroke="#11C2CD" stroke-width="2"/>
<path d="M181.112 74.0413L198.357 67.7623L211.948 80.0956L208.279 98.7847L191.033 105.064L177.443 92.7303L181.112 74.0413Z" stroke="#11C2CD" stroke-width="2"/>
<path d="M280.277 391.823L263.032 398.102L249.442 385.768L253.111 367.079L270.356 360.8L283.947 373.134L280.277 391.823Z" stroke="#11C2CD" stroke-width="2"/>
<path d="M69.4367 72.3739L82.2704 67.7011L92.3845 76.8795L89.6423 90.8459L76.8086 95.5187L66.6945 86.3403L69.4367 72.3739Z" stroke="#11C2CD" stroke-width="3"/>
<path d="M391.952 393.49L379.119 398.163L369.005 388.984L371.747 375.018L384.581 370.345L394.695 379.524L391.952 393.49Z" stroke="#11C2CD" stroke-width="3"/>
<circle cx="116.948" cy="122.456" r="3.22906" transform="rotate(-5.03455 116.948 122.456)" fill="#11C2CD"/>
<circle cx="344.441" cy="343.408" r="3.22906" transform="rotate(174.965 344.441 343.408)" fill="#0093AD"/>
<circle cx="97.8506" cy="261.364" r="3.22906" transform="rotate(-5.03455 97.8506 261.364)" fill="#0093AD"/>
<circle cx="363.539" cy="204.5" r="3.22906" transform="rotate(174.965 363.539 204.5)" fill="#0093AD"/>
</g>
</svg>
