<svg width="380" height="420" viewBox="0 0 380 420" fill="none" xmlns="http://www.w3.org/2000/svg">
<g clip-path="url(#clip0_332_574)">
<path d="M123.3 147.705L73.3807 348.804C69.0733 366.155 76.4214 384.318 91.6047 393.76C110.646 405.599 142.126 418.415 190.265 419.885C241.288 421.442 275.235 406.786 295.307 393.482C309.846 383.846 316.734 366.096 312.532 349.17L262.521 147.705" fill="#F4F4F4"/>
<path d="M192.911 157.046C259.094 157.046 312.745 138.956 312.745 116.64C312.745 94.3247 259.094 76.2344 192.911 76.2344C126.729 76.2344 73.0772 94.3247 73.0772 116.64C73.0772 138.956 126.729 157.046 192.911 157.046Z" fill="#262626"/>
<path d="M192.911 157.717C160.832 157.717 130.662 153.502 107.961 145.847C85.0333 138.116 72.4065 127.744 72.4065 116.641C72.4065 105.538 85.0333 95.1654 107.961 87.4344C130.662 79.7798 160.832 75.5645 192.911 75.5645C224.991 75.5645 255.16 79.7798 277.861 87.4344C300.789 95.1654 313.416 105.538 313.416 116.641C313.416 127.744 300.789 138.116 277.861 145.847C255.16 153.502 224.991 157.717 192.911 157.717ZM192.911 76.9057C160.973 76.9057 130.957 81.0961 108.39 88.7049C86.0509 96.2373 73.7479 106.159 73.7479 116.641C73.7479 127.123 86.0509 137.044 108.39 144.577C130.957 152.186 160.973 156.376 192.911 156.376C224.849 156.376 254.866 152.186 277.433 144.577C299.772 137.044 312.075 127.123 312.075 116.641C312.075 106.159 299.772 96.2373 277.433 88.7049C254.866 81.0961 224.849 76.9057 192.911 76.9057Z" fill="#262626"/>
<path d="M192.911 141.654C279.866 141.654 350.357 122.264 350.357 98.3454C350.357 74.4269 279.866 55.0371 192.911 55.0371C105.956 55.0371 35.4651 74.4269 35.4651 98.3454C35.4651 122.264 105.956 141.654 192.911 141.654Z" fill="#B53F3F"/>
<path d="M192.911 142.324C150.797 142.324 111.196 137.811 81.4018 129.616C51.3463 121.349 34.7938 110.244 34.7938 98.3461C34.7938 86.4484 51.3463 75.3435 81.4018 67.0762C111.196 58.8807 150.797 54.3672 192.911 54.3672C235.025 54.3672 274.626 58.8807 304.421 67.0762C334.476 75.3435 351.029 86.4484 351.029 98.3461C351.029 110.244 334.476 121.349 304.421 129.616C274.627 137.811 235.025 142.324 192.911 142.324ZM192.911 55.7084C150.914 55.7084 111.439 60.2046 81.7574 68.3688C67.3647 72.3281 56.0753 76.9314 48.2031 82.0501C40.1953 87.258 36.1352 92.7404 36.1352 98.3455C36.1352 103.951 40.1953 109.433 48.2031 114.641C56.0753 119.76 67.3642 124.364 81.7574 128.322C111.439 136.486 150.914 140.983 192.911 140.983C234.908 140.983 274.384 136.486 304.065 128.322C318.458 124.363 329.747 119.76 337.619 114.641C345.627 109.433 349.687 103.951 349.687 98.3455C349.687 92.7404 345.627 87.258 337.619 82.0501C329.747 76.9308 318.458 72.3275 304.065 68.3688C274.384 60.2046 234.908 55.7084 192.911 55.7084Z" fill="#262626"/>
<path d="M265.354 73.1031C265.354 92.2489 232.167 96.759 197.559 97.5784C159.857 98.4714 120.468 91.9559 120.468 73.1031C120.468 33.0992 152.901 0.669922 192.911 0.669922C232.92 0.669922 265.354 33.0992 265.354 73.1031H265.354Z" fill="white"/>
<path d="M255.952 69.3143C255.591 69.3143 255.293 69.0276 255.282 68.6645C255.068 61.7442 253.716 54.9867 251.264 48.5801C251.131 48.2343 251.304 47.8463 251.65 47.7143C251.996 47.5823 252.383 47.7548 252.516 48.1006C255.022 54.6473 256.404 61.552 256.622 68.6228C256.634 68.9929 256.343 69.3021 255.972 69.3137C255.965 69.3137 255.958 69.3137 255.951 69.3137L255.952 69.3143Z" fill="#262626"/>
<path d="M245.934 37.3382C245.715 37.3382 245.5 37.2311 245.372 37.0342C236.597 23.5781 222.604 13.9077 206.981 10.502C206.619 10.4232 206.39 10.0659 206.469 9.70395C206.548 9.34201 206.905 9.11211 207.267 9.19144C223.231 12.6713 237.53 22.5525 246.496 36.3016C246.698 36.612 246.61 37.0272 246.3 37.2294C246.187 37.3029 246.06 37.3382 245.935 37.3382H245.934Z" fill="#262626"/>
<path d="M190.535 98.3336C158.507 98.3336 134.12 92.9497 124.569 83.6232C121.402 80.532 119.798 76.9925 119.798 73.1038C119.798 32.7941 152.596 0 192.911 0C233.226 0 266.025 32.7941 266.025 73.1038C266.025 82.1349 258.823 88.7813 244.62 92.8582C233.692 95.9952 218.303 97.7586 197.575 98.2497C195.191 98.3064 192.842 98.3342 190.535 98.3342L190.535 98.3336ZM192.911 1.34063C153.335 1.34063 121.138 33.533 121.138 73.1032C121.138 76.6172 122.608 79.8336 125.505 82.6631C135.492 92.4146 162.42 97.7377 197.543 96.9079C226.365 96.2251 264.683 93.0151 264.683 73.1026C264.683 33.5325 232.486 1.34005 192.911 1.34005V1.34063Z" fill="#262626"/>
<path d="M75.6806 104.142C80.876 104.142 85.0877 99.9306 85.0877 94.7359C85.0877 89.5412 80.876 85.3301 75.6806 85.3301C70.4853 85.3301 66.2736 89.5412 66.2736 94.7359C66.2736 99.9306 70.4853 104.142 75.6806 104.142Z" fill="white"/>
<path d="M75.6806 104.813C70.124 104.813 65.6029 100.293 65.6029 94.7366C65.6029 89.1806 70.124 84.6602 75.6806 84.6602C81.2373 84.6602 85.7584 89.1806 85.7584 94.7366C85.7584 100.293 81.2373 104.813 75.6806 104.813ZM75.6806 86.0008C70.863 86.0008 66.9442 89.9196 66.9442 94.736C66.9442 99.5524 70.8636 103.471 75.6806 103.471C80.4977 103.471 84.417 99.5524 84.417 94.736C84.417 89.9196 80.4977 86.0008 75.6806 86.0008Z" fill="#262626"/>
<path d="M192.911 131.079C198.107 131.079 202.318 126.868 202.318 121.673C202.318 116.479 198.107 112.268 192.911 112.268C187.716 112.268 183.504 116.479 183.504 121.673C183.504 126.868 187.716 131.079 192.911 131.079Z" fill="white"/>
<path d="M192.911 131.75C187.355 131.75 182.833 127.23 182.833 121.674C182.833 116.118 187.355 111.598 192.911 111.598C198.468 111.598 202.989 116.118 202.989 121.674C202.989 127.23 198.468 131.75 192.911 131.75ZM192.911 112.938C188.094 112.938 184.175 116.857 184.175 121.673C184.175 126.49 188.094 130.409 192.911 130.409C197.728 130.409 201.648 126.49 201.648 121.673C201.648 116.857 197.728 112.938 192.911 112.938Z" fill="#262626"/>
<path d="M310.121 104.142C315.316 104.142 319.528 99.9306 319.528 94.7359C319.528 89.5412 315.316 85.3301 310.121 85.3301C304.926 85.3301 300.714 89.5412 300.714 94.7359C300.714 99.9306 304.926 104.142 310.121 104.142Z" fill="white"/>
<path d="M310.121 104.813C304.564 104.813 300.043 100.293 300.043 94.7366C300.043 89.1806 304.564 84.6602 310.121 84.6602C315.678 84.6602 320.199 89.1806 320.199 94.7366C320.199 100.293 315.678 104.813 310.121 104.813ZM310.121 86.0008C305.303 86.0008 301.385 89.9196 301.385 94.736C301.385 99.5524 305.304 103.471 310.121 103.471C314.938 103.471 318.857 99.5524 318.857 94.736C318.857 89.9196 314.938 86.0008 310.121 86.0008Z" fill="#262626"/>
<path d="M260.128 121.673C265.323 121.673 269.535 117.462 269.535 112.267C269.535 107.072 265.323 102.861 260.128 102.861C254.932 102.861 250.721 107.072 250.721 112.267C250.721 117.462 254.932 121.673 260.128 121.673Z" fill="white"/>
<path d="M260.128 122.344C254.571 122.344 250.05 117.824 250.05 112.268C250.05 106.712 254.571 102.191 260.128 102.191C265.684 102.191 270.206 106.712 270.206 112.268C270.206 117.824 265.684 122.344 260.128 122.344ZM260.128 103.532C255.31 103.532 251.391 107.451 251.391 112.267C251.391 117.084 255.311 121.002 260.128 121.002C264.945 121.002 268.864 117.084 268.864 112.267C268.864 107.451 264.945 103.532 260.128 103.532Z" fill="#262626"/>
<path d="M125.694 122.954C130.89 122.954 135.101 118.743 135.101 113.548C135.101 108.354 130.89 104.143 125.694 104.143C120.499 104.143 116.287 108.354 116.287 113.548C116.287 118.743 120.499 122.954 125.694 122.954Z" fill="white"/>
<path d="M125.694 123.625C120.138 123.625 115.616 119.105 115.616 113.549C115.616 107.993 120.138 103.473 125.694 103.473C131.251 103.473 135.772 107.993 135.772 113.549C135.772 119.105 131.251 123.625 125.694 123.625ZM125.694 104.813C120.877 104.813 116.958 108.732 116.958 113.548C116.958 118.365 120.877 122.284 125.694 122.284C130.511 122.284 134.431 118.365 134.431 113.548C134.431 108.732 130.511 104.813 125.694 104.813Z" fill="#262626"/>
<path d="M292.662 64.8349C291.423 68.5851 287.891 71.2942 283.725 71.2942C278.53 71.2942 274.318 67.0835 274.318 61.889C274.318 61.6787 274.327 61.4732 274.341 61.2676C280.765 62.3407 286.885 63.5296 292.662 64.8349Z" fill="white"/>
<path d="M283.724 71.9651C278.168 71.9651 273.647 67.4452 273.647 61.8893C273.647 61.6646 273.656 61.444 273.671 61.2239L273.719 60.4844L274.45 60.6066C280.911 61.6854 287.088 62.8882 292.809 64.1814L293.529 64.3441L293.298 65.0454C291.931 69.1843 288.084 71.9651 283.724 71.9651H283.724ZM274.99 62.0572C275.08 66.796 278.963 70.6239 283.724 70.6239C287.254 70.6239 290.397 68.5212 291.762 65.3205C286.504 64.1478 280.869 63.0515 274.99 62.0572Z" fill="#262626"/>
<path d="M110.494 61.8906C110.494 67.0846 106.282 71.2958 101.087 71.2958C97.0009 71.2958 93.5224 68.6898 92.2215 65.0467C97.9751 63.7327 104.073 62.5253 110.48 61.4395C110.488 61.5871 110.493 61.7388 110.493 61.8912L110.494 61.8906Z" fill="white"/>
<path d="M101.087 71.9657C96.8364 71.9657 93.0202 69.2758 91.5902 65.2713L91.3365 64.5601L92.0727 64.3922C97.8546 63.0713 104.01 61.8551 110.368 60.7774L111.104 60.6523L111.149 61.3977C111.159 61.5586 111.164 61.7237 111.164 61.8899C111.164 67.4458 106.644 71.9657 101.087 71.9657ZM93.1401 65.5249C94.5533 68.604 97.6571 70.6245 101.087 70.6245C105.789 70.6245 109.636 66.8905 109.817 62.2321C104.039 63.2247 98.4361 64.3308 93.1401 65.5249Z" fill="#262626"/>
<path d="M207.545 390.242L121.551 341.262L188.099 224.455L247.562 258.324L258.98 299.964L207.545 390.242Z" fill="white"/>
<path opacity="0.3" d="M221.495 332.062C224.324 332.062 226.617 329.769 226.617 326.94C226.617 324.111 224.324 321.818 221.495 321.818C218.666 321.818 216.373 324.111 216.373 326.94C216.373 329.769 218.666 332.062 221.495 332.062Z" fill="#B53F3F"/>
<path opacity="0.3" d="M167.438 305.085C170.267 305.085 172.561 302.792 172.561 299.963C172.561 297.135 170.267 294.842 167.438 294.842C164.609 294.842 162.316 297.135 162.316 299.963C162.316 302.792 164.609 305.085 167.438 305.085Z" fill="#B53F3F"/>
<path d="M207.796 391.157L120.636 341.513L187.847 223.541L248.135 257.88L259.699 300.055L207.796 391.157ZM122.465 341.011L207.294 389.328L258.259 299.873L246.988 258.77L188.349 225.37L122.465 341.011H122.465Z" fill="#262626"/>
<path opacity="0.3" d="M247.562 258.324L232.449 284.852L258.98 299.964L247.562 258.324Z" fill="#B53F3F"/>
<path d="M258.98 300.635C258.866 300.635 258.751 300.606 258.648 300.547L232.117 285.435C231.795 285.252 231.683 284.843 231.866 284.521L246.98 257.993C247.114 257.757 247.378 257.626 247.646 257.659C247.915 257.693 248.137 257.886 248.209 258.148L259.627 299.787C259.699 300.049 259.605 300.327 259.391 300.494C259.271 300.587 259.126 300.634 258.98 300.634V300.635ZM233.363 284.602L257.905 298.58L247.343 260.063L233.363 284.602Z" fill="#292A2E"/>
<path d="M184.654 293.225C186.887 293.225 188.697 291.415 188.697 289.183C188.697 286.95 186.887 285.141 184.654 285.141C182.422 285.141 180.612 286.95 180.612 289.183C180.612 291.415 182.422 293.225 184.654 293.225Z" fill="#292A2E"/>
<path d="M222.574 310.465C224.807 310.465 226.617 308.655 226.617 306.423C226.617 304.191 224.807 302.381 222.574 302.381C220.341 302.381 218.531 304.191 218.531 306.423C218.531 308.655 220.341 310.465 222.574 310.465Z" fill="#292A2E"/>
<path d="M205.392 335.257C205.03 335.257 204.732 334.968 204.722 334.604C204.538 327.789 200.691 321.56 194.685 318.35C189.108 315.37 182.437 315.356 176.839 318.314C176.512 318.488 176.106 318.362 175.933 318.035C175.759 317.707 175.884 317.302 176.212 317.128C182.205 313.962 189.347 313.976 195.317 317.167C201.748 320.604 205.865 327.271 206.063 334.567C206.073 334.937 205.781 335.245 205.411 335.256C205.404 335.256 205.398 335.256 205.392 335.256V335.257Z" fill="#292A2E"/>
<path d="M188.172 285.047C184.731 285.047 182.185 283.281 182.046 283.183C181.744 282.968 181.673 282.55 181.887 282.248C182.1 281.946 182.518 281.874 182.821 282.088C182.874 282.125 186.808 284.826 191.204 283.147C191.551 283.014 191.937 283.188 192.07 283.534C192.202 283.88 192.029 284.268 191.682 284.4C190.454 284.869 189.267 285.048 188.171 285.048L188.172 285.047Z" fill="#292A2E"/>
<path d="M229.58 304.317C229.507 304.317 229.433 304.305 229.36 304.28C223.705 302.308 223.064 297.951 223.039 297.766C222.99 297.399 223.248 297.062 223.615 297.013C223.98 296.966 224.317 297.221 224.368 297.587C224.391 297.745 224.963 301.327 229.801 303.014C230.151 303.136 230.336 303.518 230.214 303.867C230.117 304.144 229.857 304.317 229.58 304.317Z" fill="#292A2E"/>
<path d="M6.8442 148.377C6.47352 148.377 6.17351 148.077 6.17351 147.707V128.788C6.17351 128.417 6.47352 128.117 6.8442 128.117C7.21488 128.117 7.51489 128.417 7.51489 128.788V147.707C7.51489 148.077 7.21488 148.377 6.8442 148.377Z" fill="#262626"/>
<path d="M13.0183 138.917H0.670694C0.300017 138.917 0 138.617 0 138.247C0 137.876 0.300017 137.576 0.670694 137.576H13.0183C13.389 137.576 13.689 137.876 13.689 138.247C13.689 138.617 13.389 138.917 13.0183 138.917Z" fill="#262626"/>
<path d="M328.92 253.746C328.549 253.746 328.249 253.446 328.249 253.076V224.298C328.249 223.927 328.549 223.627 328.92 223.627C329.29 223.627 329.59 223.927 329.59 224.298V253.076C329.59 253.446 329.29 253.746 328.92 253.746Z" fill="#262626"/>
<path d="M338.311 239.357H319.529C319.158 239.357 318.858 239.057 318.858 238.686C318.858 238.316 319.158 238.016 319.529 238.016H338.311C338.682 238.016 338.982 238.316 338.982 238.686C338.982 239.057 338.682 239.357 338.311 239.357Z" fill="#262626"/>
<path d="M374.634 162.765C374.263 162.765 373.963 162.465 373.963 162.095V147.706C373.963 147.335 374.263 147.035 374.634 147.035C375.005 147.035 375.305 147.335 375.305 147.706V162.095C375.305 162.465 375.005 162.765 374.634 162.765Z" fill="#262626"/>
<path d="M379.33 155.572H369.938C369.568 155.572 369.268 155.272 369.268 154.901C369.268 154.53 369.568 154.23 369.938 154.23H379.33C379.701 154.23 380.001 154.53 380.001 154.901C380.001 155.272 379.701 155.572 379.33 155.572Z" fill="#262626"/>
</g>
<defs>
<clipPath id="clip0_332_574">
<rect width="380" height="420" fill="white"/>
</clipPath>
</defs>
</svg>
