<svg width="144" height="123" viewBox="0 0 144 123" fill="none" xmlns="http://www.w3.org/2000/svg">
<g clip-path="url(#clip0_332_731)">
<path opacity="0.1" d="M143.34 84.8049C139.407 64.934 116.364 49.0535 111.87 28.3456C103.702 2.00079 76.7792 -2.16437 59.2841 9.27716C31.5631 27.4064 61.1356 31.9051 6.78386 74.7978C-6.63683 85.3891 -2.36039 132.141 39.8603 121.411C62.5816 115.637 69.4888 114.827 79.709 113.876C105.469 111.48 149.942 118.161 143.34 84.8043V84.8049Z" fill="#A20F0F"/>
<path d="M112.566 89.7859L72.7506 110.854L32.9956 89.7859V57.9707H112.566V89.7859Z" fill="white"/>
<path d="M72.7507 111.178C72.6988 111.178 72.6469 111.166 72.6 111.14L32.8449 90.0719C32.7394 90.0161 32.6731 89.906 32.6731 89.7865V57.9716C32.6731 57.7932 32.8176 57.6484 32.9956 57.6484H112.566C112.744 57.6484 112.888 57.7932 112.888 57.9716V89.7865C112.888 89.9065 112.822 90.0163 112.717 90.0722L72.9013 111.141C72.8541 111.166 72.8025 111.178 72.7507 111.178ZM33.3181 89.5919L72.7507 110.49L112.243 89.5916V58.2947H33.3181V89.5919Z" fill="#262626"/>
<path d="M112.566 51.1444L72.7507 30.0758L90.6421 21.4355L130.457 42.5044L112.566 51.1444Z" fill="white"/>
<path d="M112.566 51.4669C112.514 51.4669 112.462 51.4545 112.415 51.4294L72.6001 30.3608C72.4925 30.3037 72.4262 30.191 72.4283 30.069C72.4306 29.9472 72.501 29.8371 72.6107 29.7838L90.5021 21.1436C90.5945 21.0988 90.7023 21.1007 90.7929 21.149L130.608 42.2176C130.716 42.2747 130.782 42.3874 130.78 42.5094C130.778 42.6312 130.707 42.7413 130.597 42.7945L112.706 51.4348C112.662 51.4563 112.614 51.4669 112.566 51.4669ZM73.4663 30.0884L112.573 50.7818L129.742 42.4905L90.6355 21.7971L73.4663 30.0884Z" fill="#262626"/>
<path d="M32.9958 51.1444L72.8109 30.0758L54.9195 21.4355L15.1044 42.5044L32.9958 51.1444Z" fill="white"/>
<path d="M32.9957 51.4668C32.9477 51.4668 32.9 51.4562 32.8556 51.4347L14.9642 42.7945C14.8545 42.7415 14.7841 42.6311 14.7818 42.5093C14.7797 42.3873 14.846 42.2746 14.9536 42.2175L54.7688 21.1489C54.8594 21.1006 54.9672 21.099 55.0596 21.1435L72.951 29.7837C73.0606 29.8367 73.1311 29.9471 73.1334 30.0689C73.1355 30.1909 73.0692 30.3036 72.9616 30.3607L33.1464 51.4293C33.0992 51.4544 33.0476 51.4668 32.9957 51.4668ZM15.8198 42.4902L32.989 50.7815L72.0954 30.088L54.9262 21.7967L15.8198 42.4904V42.4902Z" fill="#262626"/>
<path d="M32.9957 51.1445L72.8108 72.2133L52.3392 83.4385L12.524 62.3699L32.9957 51.1445Z" fill="white"/>
<path d="M52.3392 83.7608C52.2874 83.7608 52.2358 83.7484 52.1885 83.7233L12.3734 62.6547C12.2684 62.5991 12.2023 62.4903 12.2015 62.3711C12.2008 62.2522 12.265 62.1424 12.3693 62.0855L32.8409 50.8601C32.9361 50.8078 33.0504 50.8071 33.1464 50.8577L72.9615 71.9263C73.0665 71.9819 73.1326 72.0907 73.1334 72.2099C73.1341 72.3288 73.0699 72.4387 72.9657 72.4955L52.494 83.721C52.4458 83.7476 52.3924 83.7608 52.3392 83.7608ZM13.2052 62.3639L52.3367 83.0708L72.1299 72.2174L32.9985 51.5105L13.2052 62.3639Z" fill="#262626"/>
<path d="M112.566 51.1426L72.7507 72.2114L93.2223 83.4365L133.037 62.368L112.566 51.1426Z" fill="white"/>
<path d="M93.2224 83.7605C93.169 83.7605 93.1158 83.7473 93.0676 83.721L72.5959 72.4955C72.4917 72.4384 72.4275 72.3285 72.4282 72.2099C72.429 72.0907 72.4951 71.9819 72.6001 71.9263L112.415 50.8577C112.511 50.8071 112.626 50.8078 112.721 50.8601L133.192 62.0855C133.297 62.1426 133.361 62.2525 133.36 62.3711C133.359 62.4903 133.293 62.5991 133.188 62.6547L93.3731 83.7233C93.3258 83.7484 93.2742 83.7608 93.2224 83.7608V83.7605ZM73.4317 72.2171L93.225 83.0705L132.356 62.3636L112.563 51.5102L73.4317 72.2171Z" fill="#262626"/>
<path d="M72.8108 30.0742L32.9956 51.1428L72.7506 72.2116L112.566 51.1428L72.8108 30.0742Z" fill="#262626"/>
<path d="M73.0733 72.2129H72.4282V110.855H73.0733V72.2129Z" fill="#262626"/>
<path d="M50.4423 49.2303C50.391 49.2303 50.3389 49.2148 50.2935 49.1825C50.1774 49.1 50.1497 48.9387 50.2323 48.8221C50.28 48.7544 54.9433 41.9999 49.7374 35.8424C47.6015 33.316 44.712 32.3481 42.2301 32.3481C42.2071 32.3481 42.1839 32.3481 42.1612 32.3481C42.6555 34.0687 42.5673 35.5986 41.8673 36.7723C41.2057 37.8818 40.025 38.5338 38.8533 38.4319C37.8205 38.3425 37.0044 37.7063 36.614 36.6864C36.0414 35.1902 36.6408 33.7389 38.2168 32.8044C39.0608 32.3039 40.1948 31.9657 41.465 31.8685C41.1417 30.9793 40.6616 30.0385 40.0291 29.0712C38.1495 26.195 34.7237 24.2039 30.6297 23.6085C27.1606 23.1039 23.8358 23.6982 22.1584 25.1216C22.049 25.2142 21.8862 25.1999 21.7948 25.0914C21.7027 24.9825 21.7161 24.8191 21.8248 24.7269C23.61 23.212 27.0951 22.5719 30.7038 23.0969C34.9441 23.7135 38.5001 25.7878 40.4608 28.7878C41.149 29.8408 41.664 30.8684 42.0007 31.8422C44.6702 31.7796 47.8237 32.7793 50.1307 35.5079C55.5989 41.9759 50.7029 49.0504 50.6526 49.1209C50.6023 49.1918 50.5228 49.2298 50.4421 49.2298L50.4423 49.2303ZM41.6317 32.3675C40.3971 32.4463 39.294 32.7671 38.48 33.25C37.1187 34.0574 36.6145 35.2427 37.0962 36.5021C37.4131 37.3299 38.0697 37.8459 38.8982 37.9177C39.8687 38.0018 40.8633 37.4485 41.4245 36.5078C42.0675 35.4298 42.1266 33.9969 41.6317 32.3675Z" fill="#292A2E"/>
<path d="M17.7046 29.2911C17.3217 29.4064 16.914 29.3875 16.5386 29.2337C16.1052 29.0559 15.7664 28.7198 15.5852 28.2868C15.4039 27.8538 15.4018 27.376 15.579 26.9415C15.7566 26.5072 16.092 26.1677 16.5242 25.986C17.4146 25.6122 18.4464 26.0331 18.8203 26.9267C19.1944 27.8207 18.7731 28.8527 17.8811 29.2275C17.8231 29.2518 17.7642 29.273 17.7046 29.2911ZM16.8467 26.4185C16.8052 26.4309 16.7641 26.4456 16.7234 26.463C16.4184 26.5912 16.1815 26.8306 16.0564 27.1372C15.9312 27.444 15.9328 27.7811 16.0605 28.0867C16.1885 28.3922 16.4277 28.6296 16.7337 28.7549C17.0397 28.8803 17.3759 28.879 17.6811 28.7505C18.3107 28.4861 18.6082 27.7576 18.3443 27.1266C18.0971 26.5366 17.4448 26.2381 16.8464 26.4182L16.8467 26.4185Z" fill="#292A2E"/>
<path d="M17.7014 25.2393C17.3183 25.3549 16.9106 25.3357 16.5352 25.1819C16.1015 25.0043 15.7627 24.668 15.5818 24.235C15.4004 23.802 15.3981 23.3245 15.5756 22.89C15.7529 22.4554 16.0885 22.116 16.521 21.9342C16.9524 21.7535 17.43 21.7507 17.8635 21.9283C18.2972 22.1059 18.636 22.4422 18.8169 22.8752C18.9982 23.308 19.0006 23.7857 18.8231 24.2203C18.6458 24.6548 18.3101 24.9942 17.8777 25.176C17.8196 25.2003 17.7608 25.2215 17.7014 25.2393ZM16.8445 22.3662C16.8025 22.3789 16.7612 22.3936 16.7202 22.4109C16.4152 22.5392 16.1783 22.7785 16.0529 23.0851C15.9281 23.3917 15.9294 23.7291 16.0573 24.0346C16.1853 24.3402 16.4242 24.5778 16.7305 24.7029C17.0365 24.8283 17.3712 24.8273 17.6782 24.6988C17.9832 24.5705 18.2201 24.3312 18.3455 24.0246C18.4703 23.718 18.469 23.3806 18.3411 23.075C18.2131 22.7695 17.9742 22.5319 17.6679 22.4068C17.4029 22.2982 17.1152 22.2848 16.8448 22.3662H16.8445Z" fill="#292A2E"/>
<path d="M17.2007 27.0667C18.4678 27.0667 19.495 26.3793 19.495 25.5314C19.495 24.6835 18.4678 23.9961 17.2007 23.9961C15.9336 23.9961 14.9064 24.6835 14.9064 25.5314C14.9064 26.3793 15.9336 27.0667 17.2007 27.0667Z" fill="white"/>
<path d="M18.2157 27.1806C17.9001 27.2758 17.5565 27.3259 17.2024 27.3262C15.7712 27.3275 14.6493 26.5403 14.6486 25.5344C14.6478 24.5283 15.7681 23.7398 17.1991 23.7383C17.8625 23.7378 18.4897 23.9123 18.9652 24.23C19.4728 24.5689 19.7525 25.0306 19.753 25.5298C19.7535 26.029 19.4746 26.4912 18.9676 26.8311C18.7462 26.9795 18.4915 27.0971 18.2157 27.1801V27.1806ZM16.3425 24.3794C15.653 24.5872 15.1643 25.0327 15.1646 25.5339C15.1651 26.226 16.0979 26.8099 17.2017 26.8092C17.7644 26.8086 18.2897 26.6639 18.6804 26.4017C19.0393 26.1611 19.2369 25.8516 19.2367 25.5308C19.2364 25.21 19.0383 24.9008 18.6788 24.6607C18.2872 24.399 17.7618 24.2553 17.1996 24.2558C16.8954 24.2558 16.6044 24.3003 16.3425 24.3794Z" fill="#292A2E"/>
<path d="M17.7633 27.0217L17.7092 24.0358L16.9681 24.0059L16.9163 27.0566L17.7633 27.0217Z" fill="#292A2E"/>
<path d="M14.1568 26.1817C14.2876 26.1817 14.3936 26.0754 14.3936 25.9443C14.3936 25.8133 14.2876 25.707 14.1568 25.707C14.026 25.707 13.9199 25.8133 13.9199 25.9443C13.9199 26.0754 14.026 26.1817 14.1568 26.1817Z" fill="#292A2E"/>
<path d="M14.3418 24.9121C14.4727 24.9121 14.5787 24.8059 14.5787 24.6748C14.5787 24.5437 14.4727 24.4375 14.3418 24.4375C14.211 24.4375 14.105 24.5437 14.105 24.6748C14.105 24.8059 14.211 24.9121 14.3418 24.9121Z" fill="#292A2E"/>
<path d="M90.9845 34.3217C90.8738 34.3217 90.7718 34.2504 90.7378 34.139C90.7236 34.093 89.3458 29.495 90.0654 24.31C90.7324 19.5022 93.3791 13.1911 102.2 10.4276C103.635 9.97808 104.897 9.70018 106.005 9.5536C106.421 6.9527 108.002 4.13129 111.538 2.18469C119.94 -2.44063 125.615 1.70928 125.671 1.75168C125.785 1.8375 125.808 1.99933 125.722 2.11334C125.637 2.2276 125.475 2.25035 125.361 2.16504C125.307 2.12471 119.884 -1.82045 111.787 2.63786C108.482 4.45702 106.97 7.068 106.539 9.49182C110.43 9.10793 112.294 10.4082 113.13 11.3906C114.193 12.64 114.428 14.3586 113.727 15.7693C113.133 16.9652 111.99 17.6355 110.673 17.5554C108.501 17.4277 106.703 15.5963 106.093 12.8897C105.903 12.0467 105.835 11.0941 105.935 10.0967C104.827 10.248 103.628 10.5225 102.354 10.9214C95.4792 13.0753 91.5165 17.604 90.5763 24.3814C89.8724 29.4545 91.2174 33.943 91.2311 33.9877C91.2729 34.1242 91.196 34.269 91.0601 34.3106C91.0348 34.3184 91.0095 34.3217 90.9845 34.3217ZM106.461 10.0331C106.349 11.0134 106.411 11.9505 106.597 12.7757C107.154 15.2517 108.766 16.9251 110.704 17.0391C111.806 17.1022 112.766 16.5433 113.265 15.5387C113.873 14.3139 113.666 12.8173 112.737 11.7256C111.53 10.3082 109.329 9.7356 106.461 10.0331Z" fill="#292A2E"/>
<path d="M131.682 4.36463C131.332 4.36463 130.99 4.26458 130.689 4.0707C130.275 3.80391 129.989 3.39184 129.885 2.90997C129.669 1.91547 130.302 0.930281 131.294 0.714165C132.288 0.498048 133.27 1.13166 133.486 2.12616C133.702 3.12092 133.069 4.10586 132.076 4.32197C131.945 4.35067 131.813 4.36463 131.682 4.36463ZM131.686 1.18879C131.593 1.18879 131.498 1.19888 131.404 1.2193C130.689 1.37492 130.234 2.08403 130.389 2.80011C130.464 3.14703 130.67 3.4438 130.968 3.63588C131.266 3.82795 131.621 3.89258 131.967 3.81684C132.682 3.66121 133.137 2.95211 132.982 2.23603C132.847 1.61457 132.296 1.18879 131.686 1.18879Z" fill="#292A2E"/>
<path d="M130.905 8.58367C130.555 8.58367 130.213 8.48363 129.912 8.28974C129.498 8.02296 129.212 7.61089 129.108 7.12902C129.004 6.64715 129.092 6.15339 129.359 5.73873C129.625 5.32408 130.037 5.03816 130.518 4.93347C130.998 4.82851 131.491 4.91795 131.905 5.18474C132.319 5.45153 132.604 5.8636 132.709 6.34546C132.813 6.82733 132.724 7.32109 132.458 7.73575C132.192 8.1504 131.78 8.43632 131.299 8.54102C131.168 8.56971 131.036 8.58367 130.905 8.58367ZM130.911 5.40784C130.817 5.40784 130.722 5.41792 130.627 5.4386C130.28 5.51409 129.984 5.71986 129.793 6.01845C129.601 6.31703 129.537 6.67248 129.612 7.01941C129.687 7.36633 129.893 7.66311 130.191 7.85518C130.489 8.04751 130.844 8.11163 131.19 8.03614C131.536 7.96065 131.832 7.75488 132.024 7.4563C132.215 7.15771 132.28 6.80226 132.204 6.45533C132.129 6.10841 131.923 5.81163 131.626 5.61956C131.409 5.47996 131.163 5.4081 130.911 5.4081L130.911 5.40784Z" fill="#292A2E"/>
<path d="M133.676 5.12056C133.838 4.23757 132.901 3.324 131.581 3.08005C130.262 2.8361 129.06 3.35415 128.897 4.23714C128.735 5.12013 129.673 6.0337 130.992 6.27765C132.312 6.5216 133.513 6.00355 133.676 5.12056Z" fill="white"/>
<path d="M131.643 6.59709C131.415 6.59709 131.181 6.57563 130.946 6.53246C130.259 6.40527 129.642 6.10359 129.21 5.68299C128.751 5.2355 128.55 4.70555 128.645 4.19085C128.74 3.67615 129.116 3.25296 129.705 2.9991C130.258 2.7605 130.941 2.69949 131.629 2.82642C132.317 2.95361 132.933 3.25529 133.365 3.67589C133.825 4.12338 134.026 4.65333 133.93 5.16803C133.836 5.68273 133.459 6.10591 132.871 6.35977C132.506 6.51695 132.085 6.59709 131.643 6.59709ZM130.93 3.2783C130.559 3.2783 130.209 3.34448 129.908 3.47399C129.483 3.65728 129.215 3.94526 129.152 4.28469C129.09 4.62412 129.238 4.98914 129.57 5.31228C129.929 5.66231 130.451 5.91539 131.04 6.02396C131.628 6.13228 132.206 6.08316 132.667 5.88488C133.092 5.7016 133.36 5.41362 133.423 5.07419C133.485 4.73476 133.337 4.36974 133.005 4.04634C132.646 3.69631 132.124 3.44349 131.535 3.33465C131.331 3.29691 131.128 3.27804 130.93 3.27804V3.2783Z" fill="#292A2E"/>
<path d="M130.989 3.01953L130.47 6.13875L131.235 6.3135L131.877 3.14698L130.989 3.01953Z" fill="#292A2E"/>
<path d="M134.099 6.3756C134.238 6.3756 134.35 6.2631 134.35 6.12432C134.35 5.98555 134.238 5.87305 134.099 5.87305C133.961 5.87305 133.848 5.98555 133.848 6.12432C133.848 6.2631 133.961 6.3756 134.099 6.3756Z" fill="#292A2E"/>
<path d="M134.536 5.08849C134.675 5.08849 134.787 4.97599 134.787 4.83721C134.787 4.69844 134.675 4.58594 134.536 4.58594C134.398 4.58594 134.285 4.69844 134.285 4.83721C134.285 4.97599 134.398 5.08849 134.536 5.08849Z" fill="#292A2E"/>
</g>
<defs>
<clipPath id="clip0_332_731">
<rect width="144" height="123" fill="white"/>
</clipPath>
</defs>
</svg>
