<svg width="169" height="245" viewBox="0 0 169 245" fill="none" xmlns="http://www.w3.org/2000/svg">
<path d="M-12 28L-38.8468 56.5142H14.8468L-12 28Z" fill="#38A169"/>
<path d="M-12 84.7358L-38.8468 56.2217H14.8468L-12 84.7358Z" fill="#B2F5EA"/>
<path d="M39 28L12.1532 56.5142H65.8468L39 28Z" fill="#ED8936"/>
<path d="M39 84.7358L12.1532 56.2217H65.8468L39 84.7358Z" fill="#718096"/>
<path d="M66 56L39.1532 84.5142H92.8468L66 56Z" fill="#4299E1"/>
<path d="M66 121.736L39.1532 93.2217H92.8468L66 121.736Z" fill="#F56565"/>
<path d="M138 46L111.153 74.5142H164.847L138 46Z" fill="#408B84"/>
<path d="M14 57L-12.8468 85.5142H40.8468L14 57Z" fill="#FBBE00"/>
<path d="M14 113.736L-12.8468 85.2217H40.8468L14 113.736Z" fill="#CBD5E0"/>
<path d="M-23 188L-49.8468 216.514H3.84679L-23 188Z" fill="#C05621"/>
<path d="M-23 244.736L-49.8468 216.222H3.84679L-23 244.736Z" fill="#FEB2B2"/>
<path d="M80 130L53.1532 158.514H106.847L80 130Z" fill="#285E61"/>
<path d="M80 186.736L53.1532 158.222H106.847L80 186.736Z" fill="#FBD38D"/>
<path d="M-13 85L-39.8468 113.514H13.8468L-13 85Z" fill="#E6FFFA"/>
<path d="M-13 141.736L-39.8468 113.222H13.8468L-13 141.736Z" fill="#FFF5F5"/>
<path d="M13 114L-13.8468 142.514H39.8468L13 114Z" fill="#262626"/>
<path d="M13 182.736L-13.8468 154.222H39.8468L13 182.736Z" fill="#16AF9B"/>
<path d="M13 0L-13.8468 28.5142H39.8468L13 0Z" fill="#AAAAAA"/>
<path d="M13 56.7358L-13.8468 28.2217H39.8468L13 56.7358Z" fill="#FCD354"/>
</svg>
