<svg width="374" height="278" viewBox="0 0 374 278" fill="none" xmlns="http://www.w3.org/2000/svg">
<path d="M293.111 277.135C337.785 277.135 374 273.793 374 269.671C374 265.549 337.785 262.207 293.111 262.207C248.437 262.207 212.221 265.549 212.221 269.671C212.221 273.793 248.437 277.135 293.111 277.135Z" fill="white"/>
<path opacity="0.1" d="M293.111 277.135C337.785 277.135 374 273.793 374 269.671C374 265.549 337.785 262.207 293.111 262.207C248.437 262.207 212.221 265.549 212.221 269.671C212.221 273.793 248.437 277.135 293.111 277.135Z" fill="#292A2E"/>
<path d="M94.6323 158.676H68.8484V166.178H94.6323V158.676Z" fill="#F4F4F4"/>
<path opacity="0.05" d="M75.6892 158.676H72.3108V166.178H75.6892V158.676Z" fill="#292A2E"/>
<path d="M91.3377 160.307H77.2899V164.752H91.3377V160.307Z" fill="white"/>
<path d="M115.198 159.655L91.2401 149.191L88.2373 156.066L112.195 166.53L115.198 159.655Z" fill="#F4F4F4"/>
<path opacity="0.05" d="M115.198 159.655L91.2401 149.191L88.2373 156.066L112.195 166.53L115.198 159.655Z" fill="#292A2E"/>
<path d="M111.98 158.25L108.841 156.878L105.838 163.753L108.978 165.125L111.98 158.25Z" fill="white"/>
<path d="M106.701 157.723L93.6486 152.022L91.8692 156.096L104.922 161.797L106.701 157.723Z" fill="white"/>
<path opacity="0.05" d="M115.243 253.714H108.763V258.041H115.243V253.714Z" fill="#292A2E"/>
<path opacity="0.05" d="M48.9961 253.714H42.5166V258.041H48.9961V253.714Z" fill="#292A2E"/>
<path d="M121.182 166.53H36.5773V253.567H121.182V166.53Z" fill="#F4F4F4"/>
<path opacity="0.03" d="M121.182 166.53H36.5773V253.567H121.182V166.53Z" fill="#292A2E"/>
<path d="M136.86 166.53H52.2557V253.567H136.86V166.53Z" fill="#F4F4F4"/>
<path opacity="0.05" d="M130.92 253.714H124.44V258.041H130.92V253.714Z" fill="#292A2E"/>
<path opacity="0.05" d="M64.6741 253.714H58.1946V258.041H64.6741V253.714Z" fill="#292A2E"/>
<path opacity="0.7" d="M133.685 170.606H55.4321V187.328H133.685V170.606Z" fill="white"/>
<path opacity="0.7" d="M133.685 191.421H55.4321V208.142H133.685V191.421Z" fill="white"/>
<path opacity="0.7" d="M133.685 212.235H55.4321V228.957H133.685V212.235Z" fill="white"/>
<path opacity="0.05" d="M94.5582 181.307C95.8504 181.307 96.8979 180.259 96.8979 178.967C96.8979 177.675 95.8504 176.628 94.5582 176.628C93.266 176.628 92.2185 177.675 92.2185 178.967C92.2185 180.259 93.266 181.307 94.5582 181.307Z" fill="#292A2E"/>
<path opacity="0.05" d="M94.5582 202.121C95.8504 202.121 96.8979 201.074 96.8979 199.782C96.8979 198.489 95.8504 197.442 94.5582 197.442C93.266 197.442 92.2185 198.489 92.2185 199.782C92.2185 201.074 93.266 202.121 94.5582 202.121Z" fill="#292A2E"/>
<path opacity="0.05" d="M94.5582 222.936C95.8504 222.936 96.8979 221.888 96.8979 220.596C96.8979 219.304 95.8504 218.257 94.5582 218.257C93.266 218.257 92.2185 219.304 92.2185 220.596C92.2185 221.888 93.266 222.936 94.5582 222.936Z" fill="#292A2E"/>
<path opacity="0.7" d="M133.685 233.519H55.4325V250.24H133.685V233.519Z" fill="white"/>
<path opacity="0.05" d="M94.5593 244.219C95.8515 244.219 96.899 243.172 96.899 241.88C96.899 240.587 95.8515 239.54 94.5593 239.54C93.2671 239.54 92.2196 240.587 92.2196 241.88C92.2196 243.172 93.2671 244.219 94.5593 244.219Z" fill="#292A2E"/>
<path d="M130.809 80.1416H180.836V15.0252H130.809V80.1416Z" fill="#F4F4F4"/>
<path d="M130.809 15.0251H129.186V80.1416H130.809V15.0251Z" fill="#F4F4F4"/>
<path opacity="0.05" d="M130.809 15.0251H129.186V80.1416H130.809V15.0251Z" fill="#292A2E"/>
<path opacity="0.05" d="M139.923 68.2797H171.723V26.8867L139.923 26.8867V68.2797Z" fill="#292A2E"/>
<path opacity="0.03" d="M139.923 68.2797H141.58V26.8867H139.923V68.2797Z" fill="#292A2E"/>
<path d="M89.8949 137.444H130.809V96.1545H89.8949V137.444Z" fill="#F4F4F4"/>
<path opacity="0.05" d="M97.3481 129.923H123.356V103.676H97.3481V129.923Z" fill="#292A2E"/>
<path d="M89.8954 96.1549H88.2725V137.445H89.8954V96.1549Z" fill="#F4F4F4"/>
<path opacity="0.05" d="M89.8954 96.1549H88.2725V137.445H89.8954V96.1549Z" fill="#292A2E"/>
<path opacity="0.03" d="M97.3482 129.923H99.0055V103.676H97.3482V129.923Z" fill="#292A2E"/>
<path d="M339.384 14.8702H234.985V119.269H339.384V14.8702Z" fill="#F4F4F4"/>
<path d="M234.986 14.8702H233.789V119.269H234.986V14.8702Z" fill="#F4F4F4"/>
<path opacity="0.05" d="M234.986 14.8702H233.789V119.269H234.986V14.8702Z" fill="#292A2E"/>
<path opacity="0.05" d="M260.277 86.8097V59.4954H282.651V75.3645H317.309V103.462H332.039V119.269H317.309H314.471H240.008V86.8097H260.277Z" fill="#292A2E"/>
<path opacity="0.34" d="M279.779 62.4609H263.486V65.4266H279.779V62.4609Z" fill="#FFFFFA"/>
<path opacity="0.34" d="M279.778 68.6066H263.485V71.5722H279.778V68.6066Z" fill="#FFFFFA"/>
<path opacity="0.34" d="M279.778 74.7522H263.485V77.7178H279.778V74.7522Z" fill="#FFFFFA"/>
<path opacity="0.34" d="M245.901 89.6882H242.898V92.6539H245.901V89.6882Z" fill="#FFFFFA"/>
<path opacity="0.34" d="M245.901 95.834H242.898V98.7996H245.901V95.834Z" fill="#FFFFFA"/>
<path opacity="0.34" d="M245.901 101.979H242.898V104.945H245.901V101.979Z" fill="#FFFFFA"/>
<path opacity="0.34" d="M251.457 89.6882H248.453V92.6539H251.457V89.6882Z" fill="#FFFFFA"/>
<path opacity="0.34" d="M251.457 95.834H248.453V98.7996H251.457V95.834Z" fill="#FFFFFA"/>
<path opacity="0.34" d="M251.457 101.979H248.453V104.945H251.457V101.979Z" fill="#FFFFFA"/>
<path opacity="0.34" d="M256.862 89.6882H253.859V92.6539H256.862V89.6882Z" fill="#FFFFFA"/>
<path opacity="0.34" d="M256.862 95.834H253.859V98.7996H256.862V95.834Z" fill="#FFFFFA"/>
<path opacity="0.34" d="M256.862 101.979H253.859V104.945H256.862V101.979Z" fill="#FFFFFA"/>
<path d="M234.985 66.4839H255.992V14.8699H257.73V66.4839H314.471V14.8699H316.208V66.4839H339.384V68.2211H316.208V119.269H314.471V68.2211H257.73V119.269H255.992V68.2211H234.985V66.4839Z" fill="white"/>
<path d="M343.543 119.143H230.827V122.615H343.543V119.143Z" fill="#F4F4F4"/>
<path opacity="0.1" d="M343.543 119.143H230.827V122.615H343.543V119.143Z" fill="#292A2E"/>
<path opacity="0.1" d="M230.827 119.143H229.199V122.615H230.827V119.143Z" fill="#292A2E"/>
<path opacity="0.1" d="M230.827 119.143H229.199V122.615H230.827V119.143Z" fill="#292A2E"/>
<path d="M227.632 4.43945H127.64C123.007 4.43945 119.252 8.1948 119.252 12.8273V134.216C119.252 138.849 123.007 142.604 127.64 142.604H227.632C232.265 142.604 236.02 138.849 236.02 134.216V12.8273C236.02 8.1948 232.265 4.43945 227.632 4.43945Z" fill="#292A2E"/>
<path d="M231.328 0.743774H131.335C126.703 0.743774 122.947 4.49912 122.947 9.13158V130.521C122.947 135.153 126.703 138.908 131.335 138.908H231.328C235.96 138.908 239.716 135.153 239.716 130.521V9.13158C239.716 4.49912 235.96 0.743774 231.328 0.743774Z" fill="white"/>
<path d="M231.327 139.229H131.335C126.533 139.229 122.626 135.323 122.626 130.521V9.13164C122.626 4.32963 126.533 0.422852 131.335 0.422852H231.327C236.129 0.422852 240.036 4.32963 240.036 9.13164V130.521C240.036 135.323 236.129 139.229 231.327 139.229ZM131.335 1.06483C126.887 1.06483 123.268 4.68336 123.268 9.13164V130.521C123.268 134.969 126.887 138.587 131.335 138.587H231.327C235.775 138.587 239.394 134.969 239.394 130.521V9.13164C239.394 4.68368 235.776 1.06483 231.327 1.06483H131.335Z" fill="#292A2E"/>
<path d="M321.482 137.028C305.499 137.028 292.543 141.388 292.543 146.767V158.362H350.422V146.767C350.422 141.388 337.466 137.028 321.482 137.028Z" fill="#A20F0F"/>
<path opacity="0.49" d="M321.482 137.028C305.499 137.028 292.543 141.388 292.543 146.767V158.362H350.422V146.767C350.422 141.388 337.466 137.028 321.482 137.028Z" fill="white"/>
<path opacity="0.49" d="M342.538 146.768V158.361H292.542V146.768C292.542 141.838 303.422 137.765 317.54 137.121C331.658 137.765 342.538 141.838 342.538 146.768H342.538Z" fill="white"/>
<path d="M350.422 271.021H351.393L350.422 157.333L349.459 158.304L350.145 237.718L315.859 238.301L315.168 158.296L314.205 158.304L314.897 238.317L294.2 238.669L293.505 158.296L292.542 157.341L293.513 271.021L294.468 271.013L294.208 239.633L314.905 239.281L315.168 271.021L316.131 271.013L315.868 239.264L350.154 238.681L350.422 271.021Z" fill="#292A2E"/>
<path d="M263.129 254C263.129 254 261.408 262.922 253.055 263.419C244.702 263.916 246.513 270.57 246.513 270.57H278.433V254.622L263.129 254L263.129 254Z" fill="#A20F0F"/>
<path d="M281.341 227.167C281.341 227.167 283.735 235.932 276.459 240.065C269.183 244.198 273.746 249.37 273.746 249.37L302.389 235.28L295.349 220.969L281.341 227.167H281.341Z" fill="#A20F0F"/>
<path d="M278.31 232.959L256.727 151.528C255.089 142.532 257.555 138.632 261.353 134.844C268.025 128.189 295.672 114.024 295.672 114.024L328.84 113.934C337.634 113.934 346.281 122.606 346.281 131.401C346.281 140.195 337.34 147.654 328.545 147.654L287.702 151.73L298.773 226.291L278.31 232.959Z" fill="#262626"/>
<path d="M298.774 226.291L294.415 196.937L272.333 210.407L278.311 232.959L298.774 226.291Z" fill="#0C0C0C"/>
<path d="M303.779 130.503C303.779 130.503 289.836 133.611 276.027 147.42C267.654 155.792 268.341 170.943 269.597 200.084L283.312 179.826L298.355 152.695L303.779 130.503Z" fill="#0C0C0C"/>
<path d="M352.056 113.924L329.531 113.818L329.522 114.114H322.702C322.702 114.114 305.618 129.836 291.862 139.743C281.857 146.948 275.753 153.818 275.225 161.306C273.937 179.558 259.417 257.399 259.417 257.399L281.27 260.708L300.447 167.682C300.447 167.682 330.435 153.857 337.372 149.046C343.903 144.516 348.517 142.765 350.678 137.821C354.411 129.282 352.056 113.924 352.056 113.924V113.924Z" fill="#262626"/>
<path d="M326.784 119.598L290.243 120.083L310.741 132.325L327.797 123.517C329.718 122.486 328.965 119.57 326.784 119.598Z" fill="#292A2E"/>
<path opacity="0.2" d="M326.784 119.598L290.243 120.083L310.741 132.325L327.797 123.517C329.718 122.486 328.965 119.57 326.784 119.598Z" fill="white"/>
<path d="M290.452 54.0426L280.118 87.5318L259.415 114.637L271.509 128.519L296.138 101.029C297.228 100.168 298.149 99.0014 298.717 97.626L299.101 96.6974L313.325 62.2782L290.452 54.0422L290.452 54.0426Z" fill="#A20F0F"/>
<path d="M308.502 45.0741C308.568 45.0654 309.295 57.1279 323.307 56.0764C333.008 55.3496 336.467 45.0571 336.69 45.0571C335.644 44.8346 334.351 44.4973 333.838 44.3817C332.131 43.9972 330 42.5887 329.508 39.6224C329.224 37.9125 329.706 29.1655 329.557 27.4357L314.666 30.7595C314.874 34.413 316.331 42.883 311.227 44.382C310.377 44.6298 309.462 44.8581 308.502 45.0744V45.0741Z" fill="#FF9E85"/>
<path opacity="0.22" d="M314.458 40.9201C314.669 40.247 314.795 39.6615 314.906 38.609C315.105 36.7267 314.999 34.9966 314.809 33.2334C317.817 32.8331 320.705 31.5678 323.039 29.6277C323.315 30.6488 324.836 35.1108 324.415 36.0815C323.619 37.916 319.879 40.9201 314.458 40.9201Z" fill="#0C0C0C"/>
<path d="M305.603 17.891C305.603 17.891 301.329 14.7154 300.221 7.34067C299.363 1.63057 304.664 5.29435 304.664 5.29435C304.664 5.29435 304.086 1.17669 307.091 1.56348C310.096 1.94995 311.811 6.26727 311.811 6.26727" fill="#0C0C0C"/>
<path d="M322.617 1.92981C322.617 1.92981 337.528 3.416 332.293 23.6461L330.976 23.7443L328.301 23.9437" fill="#0C0C0C"/>
<path d="M317.281 38.3037C323.151 37.733 330.154 33.9688 330.197 25.9934L330.234 18.7975C330.276 10.8225 326.121 4.33524 318.612 4.29608C311.103 4.2566 305.457 10.6925 305.415 18.6675L305.398 21.8533C305.395 22.5091 305.457 23.6862 305.661 25.121C306.067 27.9836 306.697 32.3362 308.664 35.2691C310.521 38.038 313.53 38.6684 317.281 38.3037Z" fill="#FF9E85"/>
<path d="M309.21 23.8457C309.657 23.781 309.968 23.3657 309.903 22.9181C309.838 22.4705 309.423 22.1601 308.975 22.2249C308.528 22.2896 308.217 22.7049 308.282 23.1525C308.347 23.6 308.762 23.9104 309.21 23.8457Z" fill="#0A0A0A"/>
<path d="M314.644 28.1245C314.808 28.1007 314.93 27.9566 314.924 27.7875C314.917 27.6067 314.764 27.4658 314.583 27.4732L312.841 27.5419L313.401 23.9603C313.429 23.7815 313.307 23.6139 313.128 23.586C312.95 23.5581 312.782 23.6801 312.754 23.8589L312.132 27.8343C312.117 27.9313 312.146 28.0295 312.211 28.1027C312.276 28.1759 312.371 28.216 312.469 28.2121L314.609 28.1277C314.621 28.1274 314.633 28.1261 314.644 28.1245Z" fill="#0A0A0A"/>
<path d="M315.556 31.7402C318.494 31.3152 319.111 29.4134 319.139 29.3245C319.192 29.1514 319.094 28.9685 318.921 28.9155C318.75 28.8625 318.567 28.9592 318.513 29.1306C318.487 29.2115 317.842 31.0848 314.553 31.166C314.369 31.1698 314.23 31.3207 314.234 31.5014C314.238 31.6821 314.388 31.8253 314.569 31.8208C314.924 31.8121 315.253 31.7839 315.556 31.7402Z" fill="#0A0A0A"/>
<path d="M316.142 18.4753C316.099 18.7279 317.029 18.9619 318.312 19.1143C319.595 19.2668 320.748 19.3439 320.788 19.027C320.838 18.6271 319.787 17.8545 318.504 17.7023C317.221 17.5498 316.209 18.0779 316.142 18.4753Z" fill="#0A0A0A"/>
<path d="M317.763 23.229C318.211 23.1643 318.521 22.749 318.457 22.3014C318.392 21.8538 317.977 21.5434 317.529 21.6082C317.081 21.6729 316.771 22.0882 316.836 22.5358C316.901 22.9833 317.316 23.2937 317.763 23.229Z" fill="#0A0A0A"/>
<path d="M306.325 20.068C306.388 20.3164 307.334 20.1527 308.568 19.7714C309.803 19.3901 310.887 18.993 310.795 18.6871C310.679 18.3009 309.532 17.9748 308.298 18.3558C307.063 18.7372 306.226 19.677 306.325 20.0677L306.325 20.068Z" fill="#0A0A0A"/>
<path d="M329.717 28.4208C331.999 28.4327 333.862 26.0012 333.874 23.7193C333.885 21.4373 332.042 20.1691 329.76 20.1572L328.577 21.68L327.755 28.4105L329.717 28.4208Z" fill="#FF9E85"/>
<path d="M328.114 24.7037C327.734 24.7406 327.395 24.4652 327.356 24.0852C327.105 21.6296 326.051 13.3926 323.138 12.8222C320.856 12.3751 315.354 15.6489 310.228 14.7109C307.986 14.3007 305.864 14.8708 305.656 15.9301C305.573 16.3496 304.133 10.3416 307.606 5.74761C310.37 2.08993 319.499 0.995027 323.665 2.15637C335.2 5.37237 330.234 20.6509 330.234 20.6509L329.819 23.9927C329.779 24.3153 329.52 24.567 329.196 24.5984L328.114 24.7037Z" fill="#0C0C0C"/>
<path d="M315.522 5.74042C316.022 3.25061 315.057 0.956387 313.365 0.616137C311.674 0.275887 309.897 2.01845 309.396 4.50827C308.895 6.99809 309.86 9.29231 311.552 9.63256C313.243 9.97281 315.021 8.23024 315.522 5.74042Z" fill="#0C0C0C"/>
<path d="M291.756 70.9758C292.189 76.0581 295.256 107.765 295.672 114.024H352.03C352.354 108.379 353.808 83.6909 355.036 72.6504C356.208 62.1152 357.851 57.3209 356.501 54.0468C354.12 48.2725 346.541 45.6937 341.408 44.9987C338.274 44.5744 333.56 44.2704 333.56 44.2704C333.56 44.2704 333.161 52.3443 323.645 52.7936C310.689 53.4048 311.555 44.2704 311.491 44.2704C309.392 44.2704 297.968 45.7967 295.111 47.6584C291.077 50.288 289.884 53.8719 289.837 57.1643C289.783 60.9552 291.265 65.2118 291.756 70.9758Z" fill="#A20F0F"/>
<path d="M294.614 101.53C294.532 101.53 294.462 101.467 294.455 101.384L292.319 76.9626C292.312 76.8743 292.377 76.7963 292.465 76.7886C292.555 76.7786 292.632 76.846 292.639 76.9346L294.774 101.356C294.782 101.444 294.717 101.522 294.629 101.53C294.624 101.53 294.619 101.53 294.614 101.53Z" fill="#0C0C0C"/>
<path d="M298.701 115.715L306.439 109.437L305.137 109.805C304.263 110.015 303.322 109.548 303.067 108.686C302.794 107.766 303.351 106.818 304.271 106.597L320.529 102.643L321.927 107.822C322.816 111.112 321.619 114.612 318.902 116.67L312.879 121.215C312.238 121.7 311.324 121.712 310.727 121.174C310.15 120.655 310.033 119.877 310.314 119.25C310.289 119.241 310.264 119.229 310.246 119.207C310.211 119.166 310.203 119.113 310.216 119.065L309.107 119.905C308.39 120.448 307.341 120.398 306.761 119.71C306.227 119.077 306.252 118.176 306.755 117.575C306.737 117.572 306.722 117.566 306.706 117.558L306.25 117.903C305.609 118.388 304.694 118.399 304.098 117.862C303.4 117.233 303.372 116.224 303.913 115.564C303.907 115.554 303.901 115.544 303.897 115.534L300.675 118.148C300.003 118.693 299.016 118.591 298.471 117.919C297.926 117.247 298.029 116.26 298.701 115.715L298.701 115.715Z" fill="#FF9E85"/>
<path opacity="0.2" d="M304.094 115.626C304.111 115.62 304.127 115.611 304.141 115.599L307.242 113.023C307.308 112.968 307.317 112.869 307.262 112.803C307.207 112.737 307.109 112.728 307.042 112.783L303.942 115.359C303.876 115.414 303.867 115.513 303.922 115.579C303.965 115.631 304.034 115.647 304.094 115.626Z" fill="#0A0A0A"/>
<path opacity="0.2" d="M306.827 117.572C306.843 117.566 306.858 117.557 306.873 117.546L309.325 115.54C309.392 115.486 309.402 115.387 309.347 115.321C309.293 115.254 309.195 115.244 309.128 115.298L306.675 117.304C306.608 117.359 306.598 117.457 306.653 117.524C306.696 117.576 306.766 117.593 306.827 117.572Z" fill="#0A0A0A"/>
<path opacity="0.2" d="M310.417 119.253C310.434 119.247 310.451 119.237 310.465 119.224L311.602 118.25C311.667 118.194 311.675 118.096 311.619 118.03C311.563 117.964 311.464 117.956 311.399 118.013L310.262 118.987C310.197 119.043 310.189 119.142 310.245 119.207C310.289 119.258 310.357 119.274 310.416 119.252L310.417 119.253Z" fill="#0A0A0A"/>
<path d="M367.095 100.338L367.036 100.074L356.75 54.576L336.399 59.1768L344.428 94.6909L312.265 102.595L316.223 120.743L359.084 112.567C359.181 112.548 359.322 112.519 359.42 112.497C364.897 111.259 368.334 105.815 367.095 100.338Z" fill="#A20F0F"/>
<path d="M312.107 102.628C312.089 102.544 312.142 102.46 312.226 102.44L344.246 94.5759L339.039 71.5814C339.019 71.4951 339.073 71.4091 339.16 71.3895C339.247 71.3696 339.333 71.4241 339.352 71.5105L344.593 94.6587C344.613 94.7441 344.56 94.8292 344.475 94.85L312.453 102.714C312.453 102.714 312.668 103.65 312.729 103.964C312.748 104.067 312.649 104.121 312.612 104.13C312.573 104.14 312.451 104.152 312.418 104C312.344 103.657 312.107 102.629 312.107 102.629L312.107 102.628Z" fill="#0C0C0C"/>
<path d="M313.362 127.971L300.996 89.9579C300.55 88.5876 299.273 87.6599 297.832 87.6599H247.452C245.191 87.6599 243.588 89.8664 244.288 92.0164L256.654 130.029C257.1 131.399 258.377 132.327 259.818 132.327H310.198C312.459 132.327 314.062 130.121 313.362 127.971Z" fill="#292A2E"/>
<path opacity="0.2" d="M313.24 128.311L300.874 90.298C300.428 88.9277 299.151 88 297.71 88H247.33C245.069 88 243.466 90.2065 244.166 92.3565L256.532 130.369C256.978 131.739 258.255 132.667 259.696 132.667H310.076C312.337 132.667 313.939 130.461 313.24 128.311Z" fill="white"/>
<path d="M277.374 115.277C280.292 115.277 282.657 112.912 282.657 109.993C282.657 107.075 280.292 104.71 277.374 104.71C274.455 104.71 272.09 107.075 272.09 109.993C272.09 112.912 274.455 115.277 277.374 115.277Z" fill="white"/>
<path d="M121.601 156.278C133.102 156.278 142.426 146.954 142.426 135.453C142.426 123.952 133.102 114.628 121.601 114.628C110.1 114.628 100.776 123.952 100.776 135.453C100.776 146.954 110.1 156.278 121.601 156.278Z" fill="#292A2E"/>
<path d="M117.277 132.735C116.706 132.735 116.243 132.273 116.243 131.702V126.696C116.243 123.929 118.647 121.677 121.6 121.677C124.554 121.677 126.957 123.929 126.957 126.696V131.357C126.957 131.929 126.495 132.391 125.924 132.391C125.352 132.391 124.89 131.929 124.89 131.357V126.696C124.89 125.069 123.414 123.745 121.6 123.745C119.786 123.745 118.311 125.069 118.311 126.696V131.702C118.311 132.273 117.848 132.735 117.277 132.735H117.277Z" fill="white"/>
<path d="M128.196 130.836H115.006C114.236 130.836 113.613 131.46 113.613 132.229V144.653C113.613 145.423 114.236 146.046 115.006 146.046H128.196C128.965 146.046 129.588 145.423 129.588 144.653V132.229C129.588 131.46 128.965 130.836 128.196 130.836Z" fill="white"/>
<path d="M120.288 137.211C120.288 137.732 120.59 138.179 121.027 138.393V140.411C121.027 140.73 121.286 140.984 121.6 140.984C121.916 140.984 122.174 140.73 122.174 140.411V138.393C122.612 138.179 122.913 137.732 122.913 137.211C122.913 136.485 122.327 135.898 121.6 135.898C120.873 135.898 120.287 136.484 120.287 137.211H120.288Z" fill="#292A2E"/>
<path d="M222.596 69.6838H140.067C138.097 69.6838 136.5 71.2809 136.5 73.251V84.8208C136.5 86.7909 138.097 88.388 140.067 88.388H222.596C224.566 88.388 226.163 86.7909 226.163 84.8208V73.251C226.163 71.2809 224.566 69.6838 222.596 69.6838Z" fill="white"/>
<path d="M222.595 88.7086H140.067C137.923 88.7086 136.179 86.9643 136.179 84.8204V73.251C136.179 71.1071 137.923 69.3628 140.067 69.3628H222.595C224.739 69.3628 226.484 71.1071 226.484 73.251V84.8204C226.484 86.9643 224.739 88.7086 222.595 88.7086ZM140.067 70.0045C138.277 70.0045 136.821 71.4608 136.821 73.2506V84.8201C136.821 86.6103 138.277 88.0663 140.067 88.0663H222.595C224.386 88.0663 225.842 86.6099 225.842 84.8201V73.2506C225.842 71.4605 224.385 70.0045 222.595 70.0045H140.067Z" fill="#292A2E"/>
<path d="M222.596 96.4138H140.067C138.097 96.4138 136.5 98.0109 136.5 99.981V111.551C136.5 113.521 138.097 115.118 140.067 115.118H222.596C224.566 115.118 226.163 113.521 226.163 111.551V99.981C226.163 98.0109 224.566 96.4138 222.596 96.4138Z" fill="white"/>
<path d="M222.595 115.439H140.067C137.923 115.439 136.179 113.694 136.179 111.551V99.9811C136.179 97.8372 137.923 96.0929 140.067 96.0929H222.595C224.739 96.0929 226.484 97.8372 226.484 99.9811V111.551C226.484 113.694 224.739 115.439 222.595 115.439ZM140.067 96.7346C138.277 96.7346 136.821 98.1909 136.821 99.9807V111.55C136.821 113.34 138.277 114.796 140.067 114.796H222.595C224.386 114.796 225.842 113.34 225.842 111.55V99.9807C225.842 98.1906 224.385 96.7346 222.595 96.7346H140.067Z" fill="#292A2E"/>
<path d="M181.332 55.7711C191.915 55.7711 200.493 47.1924 200.493 36.6099C200.493 26.0275 191.915 17.4487 181.332 17.4487C170.75 17.4487 162.171 26.0275 162.171 36.6099C162.171 47.1924 170.75 55.7711 181.332 55.7711Z" fill="white"/>
<path d="M181.332 56.0921C170.589 56.0921 161.849 47.3525 161.849 36.6099C161.849 25.8673 170.589 17.1277 181.332 17.1277C192.074 17.1277 200.814 25.8676 200.814 36.6099C200.814 47.3521 192.074 56.0921 181.332 56.0921ZM181.332 17.7697C170.943 17.7697 162.491 26.2213 162.491 36.6099C162.491 46.9984 170.943 55.4501 181.332 55.4501C191.72 55.4501 200.172 46.9984 200.172 36.6099C200.172 26.2213 191.72 17.7697 181.332 17.7697Z" fill="#292A2E"/>
<path opacity="0.5" d="M200.068 36.6098C200.068 41.2295 198.394 45.4525 195.629 48.7176C192.173 44.6956 187.049 42.1463 181.332 42.1463C175.616 42.1463 170.492 44.6956 167.036 48.7227C164.271 45.4525 162.597 41.2295 162.597 36.6098C162.597 26.2637 170.986 17.8743 181.332 17.8743C191.679 17.8743 200.068 26.2637 200.068 36.6098Z" fill="#A20F0F"/>
<path d="M195.629 48.7173C192.194 52.7756 187.065 55.3454 181.333 55.3454C175.601 55.3454 170.476 52.7756 167.036 48.7224C170.492 44.6953 175.611 42.146 181.333 42.146C187.054 42.146 192.173 44.6953 195.629 48.7173Z" fill="white"/>
<path d="M181.333 38.6504C185.515 38.6504 188.906 35.2598 188.906 31.0773C188.906 26.8948 185.515 23.5042 181.333 23.5042C177.15 23.5042 173.76 26.8948 173.76 31.0773C173.76 35.2598 177.15 38.6504 181.333 38.6504Z" fill="white"/>
<g opacity="0.4">
<path d="M143.447 108.044C144.705 108.044 145.725 107.024 145.725 105.766C145.725 104.508 144.705 103.488 143.447 103.488C142.189 103.488 141.17 104.508 141.17 105.766C141.17 107.024 142.189 108.044 143.447 108.044Z" fill="#292A2E"/>
<path d="M150.573 108.044C151.831 108.044 152.851 107.024 152.851 105.766C152.851 104.508 151.831 103.488 150.573 103.488C149.315 103.488 148.295 104.508 148.295 105.766C148.295 107.024 149.315 108.044 150.573 108.044Z" fill="#292A2E"/>
<path d="M157.698 108.044C158.956 108.044 159.975 107.024 159.975 105.766C159.975 104.508 158.956 103.488 157.698 103.488C156.44 103.488 155.42 104.508 155.42 105.766C155.42 107.024 156.44 108.044 157.698 108.044Z" fill="#292A2E"/>
<path d="M164.823 108.044C166.081 108.044 167.101 107.024 167.101 105.766C167.101 104.508 166.081 103.488 164.823 103.488C163.565 103.488 162.545 104.508 162.545 105.766C162.545 107.024 163.565 108.044 164.823 108.044Z" fill="#292A2E"/>
<path d="M171.948 108.044C173.206 108.044 174.225 107.024 174.225 105.766C174.225 104.508 173.206 103.488 171.948 103.488C170.69 103.488 169.67 104.508 169.67 105.766C169.67 107.024 170.69 108.044 171.948 108.044Z" fill="#292A2E"/>
<path d="M179.072 108.044C180.33 108.044 181.35 107.024 181.35 105.766C181.35 104.508 180.33 103.488 179.072 103.488C177.814 103.488 176.794 104.508 176.794 105.766C176.794 107.024 177.814 108.044 179.072 108.044Z" fill="#292A2E"/>
<path d="M186.198 108.044C187.456 108.044 188.475 107.024 188.475 105.766C188.475 104.508 187.456 103.488 186.198 103.488C184.94 103.488 183.92 104.508 183.92 105.766C183.92 107.024 184.94 108.044 186.198 108.044Z" fill="#292A2E"/>
</g>
<path d="M27.1345 255.353C27.1345 255.353 28.644 263.178 35.9702 263.614C43.2965 264.05 41.7077 269.886 41.7077 269.886H13.7111V255.899L27.1345 255.353Z" fill="#A20F0F"/>
<path d="M11.813 112.617C11.813 112.617 13.9069 110.264 13.8882 115.6C13.819 135.503 12.476 260.347 12.476 260.347L30.873 260.193L42.0173 111.808L11.813 112.617V112.617Z" fill="#262626"/>
<path d="M58.5489 255.353C58.5489 255.353 60.0584 263.178 67.3847 263.614C74.7109 264.05 73.1222 269.886 73.1222 269.886H45.1255V255.899L58.5489 255.353Z" fill="#A20F0F"/>
<path d="M62.1075 114.162C62.1075 114.162 64.4057 182.184 64.167 185.509L62.0059 259.832L43.9128 260.166L40.9954 182.821C40.9954 182.821 39.0831 161.485 33.928 141.673C31.2827 131.508 29.711 121.093 29.1912 110.601L62.1075 114.162Z" fill="#262626"/>
<path d="M38.2384 162.389L39.7472 139.318C39.7472 139.318 41.2969 148.909 41.2969 157.177C41.2969 161.218 40.4644 177.217 40.4644 177.217L38.2384 162.389Z" fill="#0A0A0A"/>
<path d="M11.6127 112.614L11.5525 112.618C11.5525 112.618 11.596 111.458 11.6127 112.614Z" fill="#333333"/>
<path d="M11.6881 112.614L11.6279 112.618C11.6279 112.618 11.6714 111.458 11.6881 112.614Z" fill="#333333"/>
<path d="M112.499 57.4035C112.256 56.9277 111.761 56.7017 111.286 56.7612C111.286 56.7398 111.285 56.7178 111.272 56.699C111.249 56.6663 111.212 56.6569 111.175 56.6593L111.998 56.0695C112.495 55.7131 112.698 55.0361 112.405 54.4991C112.101 53.9421 111.445 53.7409 110.902 53.9672C110.904 53.9555 110.896 53.9445 110.894 53.9324L111.232 53.6901C111.7 53.3547 111.902 52.7312 111.661 52.2086C111.336 51.5055 110.478 51.3023 109.882 51.7302L109.102 52.2892C109.099 52.2845 109.102 52.2792 109.099 52.2748C109.095 52.2691 109.087 52.2691 109.082 52.2641C109.444 51.8576 109.491 51.2431 109.161 50.7827C108.793 50.1903 107.942 50.3113 107.438 50.6727L102.847 53.8442L103.668 52.4627C103.997 51.9087 103.877 51.1658 103.341 50.8081C102.769 50.4266 102.003 50.6062 101.656 51.1892L97.1752 58.7328C96.0823 60.573 96.6513 62.9484 98.4597 64.0935C100.523 65.4001 103.172 65.3238 105.157 63.9012L112.09 58.9317C112.548 58.6037 112.755 57.905 112.499 57.4038L112.499 57.4035Z" fill="#FF9E85"/>
<g opacity="0.25">
<path d="M104.558 55.4238C104.593 55.472 104.66 55.4833 104.709 55.4496L109.072 52.4282C109.122 52.3938 109.134 52.3252 109.1 52.2754C109.071 52.2259 108.997 52.2132 108.947 52.2477L104.584 55.269C104.535 55.3035 104.522 55.372 104.557 55.4218L104.558 55.4238H104.558Z" fill="#0C0C0C"/>
</g>
<g opacity="0.25">
<path d="M105.835 57.3843C105.871 57.4325 105.938 57.4438 105.987 57.4101L110.855 54.038C110.905 54.0036 110.917 53.935 110.883 53.8852C110.851 53.8397 110.78 53.823 110.73 53.8575L105.862 57.2295C105.812 57.264 105.8 57.3325 105.834 57.3823L105.836 57.3843H105.835Z" fill="#0C0C0C"/>
</g>
<g opacity="0.25">
<path d="M107.21 59.5161C107.245 59.5643 107.313 59.5756 107.362 59.5419L111.245 56.8522C111.295 56.8177 111.308 56.7492 111.273 56.6994C111.237 56.6499 111.17 56.6372 111.12 56.6716L107.237 59.3613C107.187 59.3958 107.175 59.4643 107.209 59.5141L107.211 59.5161H107.21Z" fill="#0C0C0C"/>
</g>
<path d="M94.5307 57.015L81.3717 79.426L65.3154 58.3657L51.9812 70.3873L74.7529 99.8791L74.902 100.089C75.6961 101.18 76.7459 102.11 78.0207 102.78C82.4693 105.12 87.9724 103.41 90.3118 98.961L109.024 65.0751L94.5304 57.015H94.5307Z" fill="#A20F0F"/>
<path d="M80.0814 82.1211C80.0557 82.1211 80.0299 82.115 80.0052 82.1027C79.923 82.0609 79.8902 81.9599 79.9323 81.8777L81.2222 79.3498C81.264 79.2675 81.3653 79.2351 81.4472 79.2769C81.5294 79.3187 81.5622 79.4197 81.5201 79.5019L80.2302 82.0298C80.2008 82.0876 80.1419 82.1207 80.0814 82.1207V82.1211Z" fill="#0C0C0C"/>
<path d="M64.389 79.2982L63.9873 86.3767L64.3211 86.3957L64.7228 79.3172L64.389 79.2982Z" fill="#0C0C0C"/>
<path d="M21.9227 29.137C21.9227 29.137 21.3038 38.735 19.4904 41.5856C14.2695 49.7914 12.677 56.2537 17.7532 61.1704C22.8294 66.0874 55.5652 66.5338 58.1747 55.3898C60.3713 46.0078 55.9026 44.9443 54.9022 37.172C54.4496 33.6552 53.1778 26.2775 53.1778 26.2775" fill="#0A0A0A"/>
<path d="M49.8407 53.6085C49.7842 53.6011 49.157 64.0069 37.0686 63.0995C28.6999 62.4726 25.716 53.5938 25.524 53.5938C26.4264 53.4019 27.9456 53.123 28.3465 52.9094C29.6641 52.2013 31.2946 51.4644 31.7196 48.9054C31.9643 47.4303 31.5491 39.8848 31.6768 38.3923L44.5228 41.2596C44.3433 44.4113 43.0872 51.7182 47.4904 53.011C48.2229 53.225 49.0122 53.4216 49.8407 53.6085Z" fill="#FF9E85"/>
<path opacity="0.22" d="M44.7034 50.0248C44.5215 49.444 44.4132 48.9389 44.3169 48.0311C44.1447 46.4076 44.2363 44.9148 44.4008 43.394C41.8057 43.0486 39.3143 41.957 37.3009 40.2833C37.0625 41.1643 35.559 44.4163 35.9221 45.2535C36.6088 46.8362 40.0267 50.0248 44.7034 50.0248Z" fill="#0C0C0C"/>
<path d="M43.0011 46.7496C37.9312 47.1826 32.495 45.0763 31.2158 38.3164L28.9685 32.2199C27.6893 25.46 30.2025 19.3083 36.5672 18.1037C42.9319 16.8991 48.0441 19.0031 49.3236 25.7629C49.3236 25.7629 50.1133 29.6305 50.235 30.9387C50.6937 35.8721 50.6937 46.0923 43.0014 46.7493L43.0011 46.7496Z" fill="#FF9E85"/>
<path d="M49.1709 29.695C49.1475 29.9144 48.322 29.8913 47.2238 29.7188C46.1255 29.5463 45.1529 29.3413 45.1934 29.0695C45.2448 28.7265 46.1813 28.5891 47.2796 28.7619C48.3779 28.9348 49.2077 29.35 49.1709 29.695Z" fill="#0A0A0A"/>
<path d="M23.876 34.3462L31.0421 36.3231C35.363 34.5746 35.2092 24.0712 35.2092 24.0712C35.2092 24.0712 40.4579 29.1868 53.1772 26.2774C53.1772 26.2774 50.6269 9.10277 31.8358 14.2605C25.7767 15.9235 21.428 22.5931 21.9696 30.7535C22.3491 36.4722 23.8756 34.3459 23.8756 34.3459L23.876 34.3462Z" fill="#0A0A0A"/>
<path d="M30.9067 40.3044C28.9726 40.6705 26.9809 39.9831 26.4376 37.0701C26.0769 35.135 27.6469 33.6663 29.581 33.3002L30.8231 34.4075L32.5696 39.9898L30.9067 40.3044Z" fill="#FF9E85"/>
<path d="M47.9802 32.4863C48.3692 32.4863 48.6846 32.1709 48.6846 31.7818C48.6846 31.3928 48.3692 31.0774 47.9802 31.0774C47.5911 31.0774 47.2758 31.3928 47.2758 31.7818C47.2758 32.1709 47.5911 32.4863 47.9802 32.4863Z" fill="#0A0A0A"/>
<path d="M43.9859 37.3645C43.8435 37.3645 43.7211 37.2568 43.7061 37.1121C43.6897 36.9573 43.802 36.8185 43.9571 36.8025L45.4496 36.6463L44.5309 33.6648C44.485 33.516 44.5686 33.3582 44.7174 33.3124C44.8662 33.2666 45.0237 33.3498 45.0698 33.4986L46.0892 36.8078C46.1139 36.8884 46.1012 36.976 46.0547 37.0462C46.0083 37.1164 45.9327 37.1622 45.8488 37.1712L44.0153 37.3628C44.0053 37.3638 43.9956 37.3645 43.9859 37.3645Z" fill="#0A0A0A"/>
<path d="M42.7459 40.7727C40.1913 40.7727 39.431 39.2288 39.3969 39.1566C39.3307 39.0158 39.3909 38.848 39.5316 38.7814C39.6714 38.7152 39.8389 38.7747 39.9061 38.9145C39.9378 38.98 40.7182 40.4962 43.5292 40.1602C43.687 40.1408 43.8245 40.2522 43.8428 40.4066C43.8612 40.5611 43.7509 40.7015 43.5964 40.7199C43.2932 40.756 43.0097 40.7727 42.7459 40.7727Z" fill="#0A0A0A"/>
<path d="M40.6141 29.5475C40.6816 29.7575 39.918 30.0714 38.8441 30.3593C37.7703 30.6471 36.7984 30.8544 36.7251 30.5896C36.6329 30.2553 37.4333 29.7498 38.5071 29.4619C39.581 29.1741 40.5078 29.2175 40.6141 29.5475Z" fill="#0A0A0A"/>
<path d="M40.706 32.9982C41.0952 32.9982 41.4108 32.6826 41.4108 32.2934C41.4108 31.9042 41.0952 31.5886 40.706 31.5886C40.3168 31.5886 40.0012 31.9042 40.0012 32.2934C40.0012 32.6826 40.3168 32.9982 40.706 32.9982Z" fill="#0A0A0A"/>
<path d="M26.9714 31.9625L26.8832 34.6508C27.3937 34.037 28.1309 33.61 28.9868 33.5081C29.1994 33.48 29.4107 33.4827 29.617 33.5C30.9022 34.5184 29.9891 36.3783 31.0429 36.3232C31.6414 36.2917 33.0058 34.8792 33.3328 34.0025C33.5401 33.4469 32.0449 31.3155 32.0523 30.7224" fill="#0A0A0A"/>
<path d="M64.7727 76.4057C64.3932 80.863 62.5477 108.672 62.1829 114.162H13.9147C13.6308 109.21 10.3493 87.5577 9.27246 77.8741C8.24439 68.6338 6.22736 64.0076 7.70578 61.2758C10.1217 56.8111 16.7234 54.2311 21.2248 53.6216C23.9737 53.2495 28.1077 52.9827 28.1077 52.9827C28.1077 52.9827 28.4578 60.0642 36.8047 60.458C48.1674 60.9939 47.4084 52.9827 47.4646 52.9827C49.3054 52.9827 59.8209 54.1478 62.3936 55.6727C69.4038 59.8241 65.5781 66.9594 64.7727 76.4053V76.4057Z" fill="#A20F0F"/>
<path d="M96.1034 79.5192L91.4505 102.133C91.2559 103.08 90.4267 103.762 89.4605 103.77L57.4228 104.042C56.1179 104.054 55.1349 102.858 55.3981 101.58L60.051 78.9659C60.2455 78.0197 61.0747 77.3377 62.0409 77.3297L94.0787 77.0568C95.3836 77.0458 96.3665 78.241 96.1034 79.5192Z" fill="#292A2E"/>
<path d="M66.2288 95.5826C66.2857 96.1911 65.8343 96.7327 65.2359 96.8664L64.2496 97.0837C64.283 97.0971 64.3131 97.1205 64.3231 97.1606C64.3265 97.1807 64.3198 97.2041 64.3098 97.2208C64.7711 97.3545 65.1389 97.7557 65.1723 98.2907C65.2125 98.849 64.7477 99.4107 64.1994 99.5344L55.8712 101.383C55.4399 101.48 55.0053 101.527 54.574 101.527C52.6282 101.527 50.7693 100.578 49.6359 98.9292C48.4223 97.1673 48.8302 94.7568 50.5587 93.4963L57.6432 88.3175C57.8036 88.2005 57.9875 88.127 58.1714 88.1002L57.5195 91.2663L57.6933 91.2262L57.7301 91.2195L63.163 90.1129C63.7681 89.9792 64.5973 90.1998 64.7043 90.8886C64.8246 91.4435 64.5404 91.9885 64.049 92.2225C64.0523 92.2259 64.059 92.2292 64.059 92.2359C64.0624 92.2426 64.0557 92.2459 64.0557 92.2526L64.9951 92.0453C65.7106 91.8849 66.4194 92.4098 66.4428 93.1821C66.4595 93.7571 66.0282 94.2519 65.4665 94.3756L65.062 94.4659C65.0587 94.4793 65.062 94.4927 65.0553 94.5027C65.6437 94.506 66.1686 94.9507 66.2288 95.5826Z" fill="#FF9E85"/>
<g opacity="0.25">
<path d="M58.6472 93.3499C58.6606 93.4077 58.7177 93.4448 58.7762 93.4328L63.9744 92.3666C64.0339 92.3542 64.0721 92.2964 64.06 92.2369C64.053 92.18 63.9898 92.1392 63.9303 92.1513L58.7321 93.2175C58.6726 93.2298 58.6345 93.2877 58.6465 93.3472L58.6472 93.3499Z" fill="#0C0C0C"/>
</g>
<g opacity="0.25">
<path d="M59.0533 95.6554C59.0667 95.7132 59.1238 95.7503 59.1824 95.7383L64.9837 94.5487C65.0432 94.5364 65.0813 94.4785 65.0693 94.419C65.0579 94.3649 64.9991 94.3214 64.9396 94.3334L59.1382 95.523C59.0787 95.5354 59.0406 95.5932 59.0526 95.6527L59.0533 95.6554Z" fill="#0C0C0C"/>
</g>
<g opacity="0.25">
<path d="M59.4798 98.1552C59.4932 98.2131 59.5504 98.2502 59.6089 98.2382L64.2364 97.2893C64.2959 97.2769 64.334 97.2191 64.322 97.1596C64.3086 97.0998 64.2517 97.062 64.1922 97.074L59.5647 98.0228C59.5052 98.0352 59.4671 98.0931 59.4791 98.1526L59.4798 98.1552Z" fill="#0C0C0C"/>
</g>
<path d="M55.3557 104.679L10.1723 112.844C9.84035 112.88 9.5087 112.898 9.17838 112.898C6.6662 112.898 4.24597 111.866 2.50242 110.017C0.529528 107.926 -0.349767 105.031 0.127326 102.196L6.4529 64.5977C7.29408 59.5984 12.0276 56.2287 17.0278 57.0689C22.0271 57.9101 25.3979 62.6445 24.5567 67.6438L20.2434 93.5262L53.3694 89.3661L55.3557 104.679V104.679Z" fill="#A20F0F"/>
<path d="M10.1727 113.011C10.0935 113.011 10.0232 112.954 10.0085 112.873C9.99215 112.783 10.0527 112.695 10.1433 112.679L55.1702 104.542L53.2257 89.5519L20.2649 93.6913C20.2104 93.698 20.1602 93.6796 20.1234 93.6415C20.0867 93.6033 20.0703 93.5505 20.079 93.498L22.8208 76.9559C22.8359 76.8653 22.9211 76.8011 23.0131 76.8185C23.104 76.8336 23.1655 76.9198 23.1505 77.0108L20.4451 93.3312L53.3487 89.1992C53.4383 89.1882 53.5233 89.252 53.5356 89.3436L55.5219 104.657C55.5333 104.745 55.4734 104.827 55.3858 104.843L10.2024 113.008C10.1924 113.01 10.1824 113.011 10.1724 113.011L10.1727 113.011Z" fill="#0C0C0C"/>
<path d="M20.2169 93.3608L17.3104 93.826L17.3633 94.1565L20.2698 93.6912L20.2169 93.3608Z" fill="#0C0C0C"/>
</svg>
