<svg width="639" height="357" viewBox="0 0 639 357" fill="none" xmlns="http://www.w3.org/2000/svg">
<g clip-path="url(#clip0_170_3346)">
<path d="M622.721 138.235L615.946 155.6L620.749 157.481L627.523 140.116L622.721 138.235Z" fill="#A20F0F"/>
<path d="M199.553 95.6543L195.712 99.1012L208.126 112.99L211.968 109.543L199.553 95.6543Z" fill="#FBBE00"/>
<path d="M256.469 157.816L241.576 168.994L244.668 173.13L259.561 161.952L256.469 157.816Z" fill="#A20F0F"/>
<path d="M428.726 29.551L425.192 33.3136L438.744 46.0909L442.278 42.3283L428.726 29.551Z" fill="#A20F0F"/>
<path d="M330.186 33.7058L320.911 49.87L325.382 52.445L334.656 36.2808L330.186 33.7058Z" fill="#FBBE00"/>
<path d="M464.862 171.936L460.501 174.693L470.432 190.461L474.793 187.703L464.862 171.936Z" fill="#FBBE00"/>
<path d="M262.652 248.715L258.04 251.024L266.356 267.703L270.969 265.394L262.652 248.715Z" fill="#FBBE00"/>
<path d="M195.164 204.831L189.82 222.69L194.759 224.173L200.103 206.314L195.164 204.831Z" fill="#A20F0F"/>
<path d="M517.964 260.482L502.509 270.866L505.381 275.157L520.836 264.773L517.964 260.482Z" fill="#A20F0F"/>
<path d="M520.278 0.00136548L511.004 16.1652L515.475 18.7401L524.749 2.5763L520.278 0.00136548Z" fill="#FBBE00"/>
<path d="M4.80223 132.239L-0.000488281 134.12L6.77375 151.485L11.5765 149.604L4.80223 132.239Z" fill="#FBBE00"/>
<path d="M503.356 110.786L500.265 114.922L515.158 126.099L518.25 121.964L503.356 110.786Z" fill="#FBBE00"/>
<path d="M85.0057 34.6071L71.4536 47.3844L74.9874 51.147L88.5395 38.3697L85.0057 34.6071Z" fill="#A20F0F"/>
<path d="M235.11 19.3913L230.64 21.9663L239.914 38.1305L244.385 35.5555L235.11 19.3913Z" fill="#A20F0F"/>
<path d="M52.769 222.341L42.8384 238.109L47.1992 240.866L57.1299 225.098L52.769 222.341Z" fill="#FBBE00"/>
<path d="M8.66059 265.532L5.78857 269.823L21.2433 280.207L24.1153 275.916L8.66059 265.532Z" fill="#A20F0F"/>
<path d="M605.369 59.6314L600.898 62.2063L610.172 78.3701L614.643 75.7952L605.369 59.6314Z" fill="#A20F0F"/>
<path d="M517.869 184.096C518.016 184.077 519.65 211.246 551.152 208.878C572.96 207.241 580.736 184.058 581.236 184.058C578.884 183.558 575.979 182.797 574.824 182.536C570.987 181.67 566.197 178.498 565.091 171.816C564.453 167.965 565.535 148.263 565.202 144.367L531.726 151.853C532.194 160.082 535.468 179.161 523.993 182.537C522.084 183.096 520.027 183.609 517.868 184.097L517.869 184.096Z" fill="#FF9E85"/>
<path opacity="0.22" d="M531.257 174.739C531.732 173.223 532.013 171.904 532.264 169.533C532.713 165.294 532.474 161.397 532.046 157.425C538.808 156.523 545.301 153.673 550.547 149.304C551.169 151.604 554.588 161.654 553.641 163.84C551.852 167.972 543.445 174.739 531.258 174.739L531.257 174.739Z" fill="#0C0C0C"/>
<path d="M517.827 116.522C517.827 116.522 509.683 107.735 510.255 90.9476C510.699 77.9497 520.913 88.2396 520.913 88.2396C520.913 88.2396 521.323 78.8836 527.807 80.9735C534.291 83.0634 536.313 93.3287 536.313 93.3287" fill="#0C0C0C"/>
<path d="M561.974 88.1582C561.974 88.1582 594.325 97.5711 574.464 140.226L571.511 139.902L565.517 139.245" fill="#0C0C0C"/>
<path d="M535.275 166.524C548.485 167.67 565.508 162.208 568.868 144.563L571.9 128.642C575.26 110.996 568.735 94.9245 552.153 91.7548C535.572 88.5851 520.454 100.52 517.094 118.164L515.752 125.213C515.475 126.664 515.132 129.297 514.994 132.558C514.72 139.065 514.328 148.963 517.475 156.266C520.445 163.16 526.836 165.791 535.275 166.524Z" fill="#FF9E85"/>
<path d="M523.833 126.917C523.873 125.899 523.082 125.042 522.067 125.001C521.051 124.961 520.194 125.753 520.154 126.771C520.114 127.789 520.905 128.647 521.92 128.687C522.936 128.728 523.793 127.935 523.833 126.917Z" fill="#0A0A0A"/>
<path d="M533.62 142.898C533.992 142.913 534.323 142.644 534.377 142.267C534.435 141.864 534.156 141.489 533.754 141.431L529.874 140.868L532.581 133.166C532.716 132.781 532.515 132.36 532.131 132.225C531.747 132.09 531.327 132.291 531.191 132.675L528.187 141.224C528.114 141.432 528.138 141.663 528.252 141.851C528.366 142.04 528.558 142.168 528.777 142.199L533.543 142.891C533.569 142.895 533.595 142.897 533.62 142.898Z" fill="#0A0A0A"/>
<path d="M540.883 120.065C540.685 120.607 542.646 121.507 545.419 122.372C548.192 123.237 550.709 123.88 550.926 123.195C551.202 122.33 549.195 120.187 546.422 119.323C543.648 118.459 541.195 119.213 540.883 120.065Z" fill="#0A0A0A"/>
<path d="M543.672 128.893C543.713 127.875 542.922 127.017 541.906 126.976C540.89 126.936 540.034 127.728 539.993 128.746C539.953 129.764 540.744 130.622 541.76 130.663C542.776 130.703 543.632 129.911 543.672 128.893Z" fill="#0A0A0A"/>
<path d="M518.53 119.562C518.568 120.138 520.725 120.164 523.61 119.826C526.495 119.488 529.054 119.054 528.976 118.339C528.878 117.437 526.477 116.243 523.591 116.581C520.706 116.919 518.469 118.656 518.529 119.562H518.53Z" fill="#0A0A0A"/>
<path d="M566.814 149.742C571.853 150.706 576.967 146.085 577.928 141.036C578.89 135.987 575.335 132.422 570.296 131.459L567.055 134.346L562.481 148.914L566.814 149.742Z" fill="#FF9E85"/>
<path d="M564.795 140.852C563.939 140.777 563.303 140.028 563.372 139.171C563.825 133.629 564.869 114.955 558.663 112.495C553.802 110.568 540.299 115.559 529.354 111.378C524.565 109.548 519.642 109.94 518.748 112.2C518.393 113.095 517.672 99.1986 527.23 90.4503C534.84 83.4851 555.467 84.8077 564.199 89.0895C588.377 100.947 571.141 132.746 571.141 132.746L568.854 139.977C568.633 140.675 567.959 141.126 567.23 141.063L564.795 140.852Z" fill="#0C0C0C"/>
<path d="M544.731 93.6845C546.859 88.376 545.665 82.8988 542.066 81.4508C538.466 80.0028 533.824 83.1323 531.696 88.4409C529.569 93.7494 530.763 99.2267 534.362 100.675C537.962 102.123 542.604 98.9931 544.731 93.6845Z" fill="#0C0C0C"/>
<path d="M529.517 148.401C529.241 148.383 529.034 148.64 529.096 148.911C529.908 152.425 533.183 154.459 536.84 153.904C540.497 153.35 543.201 150.431 542.981 146.848C542.963 146.562 542.672 146.379 542.408 146.491C541.569 146.848 539.605 147.528 535.896 148.062C532.71 148.52 530.476 148.463 529.516 148.401H529.517Z" fill="white"/>
<path d="M65.718 124.268C65.718 124.268 66.5656 149.754 62.5254 157.744C50.8941 180.747 48.3681 198.211 63.0062 209.872C77.6438 221.533 163.97 214.244 167.965 184.164C171.328 158.839 159.285 157.19 154.644 136.94C152.544 127.778 147.29 108.639 147.29 108.639" fill="#0A0A0A"/>
<path d="M141.638 184.068C141.49 184.049 139.852 211.281 108.277 208.907C86.4179 207.267 78.6244 184.03 78.1235 184.03C80.4801 183.528 84.4487 182.798 85.4955 182.238C88.9375 180.385 93.1962 178.457 94.3061 171.759C94.9455 167.899 93.8607 148.151 94.1946 144.246L127.748 151.75C127.28 159.998 123.998 179.121 135.499 182.505C137.413 183.065 139.474 183.579 141.638 184.068H141.638Z" fill="#FF9E85"/>
<path opacity="0.22" d="M128.218 174.69C127.743 173.169 127.46 171.848 127.208 169.472C126.759 165.222 126.998 161.317 127.428 157.336C120.649 156.432 114.142 153.576 108.883 149.196C108.259 151.501 104.833 161.575 105.782 163.766C107.575 167.908 116.002 174.69 128.217 174.69L128.218 174.69Z" fill="#0C0C0C"/>
<path d="M123.84 165.291C110.6 167.744 97.6738 163.593 92.5598 146.087L85.0673 130.582C79.9533 113.077 84.9842 96.1935 101.435 91.3692C117.886 86.5448 131.892 90.7743 137.006 108.28C137.006 108.28 140.084 118.281 140.742 121.702C143.224 134.601 143.928 161.568 123.839 165.291H123.84Z" fill="#FF9E85"/>
<path d="M127.745 145.904C128.025 145.853 128.265 146.09 128.233 146.373C127.817 150.048 124.72 152.503 120.931 152.369C117.142 152.234 114.048 149.579 113.852 145.904C113.836 145.611 114.111 145.39 114.392 145.473C115.289 145.738 117.369 146.2 121.209 146.307C124.507 146.4 126.775 146.08 127.745 145.904Z" fill="white"/>
<path d="M137.622 119.33C137.617 119.914 135.438 120.067 132.501 119.896C129.563 119.724 126.949 119.435 126.986 118.708C127.033 117.79 129.464 117.185 132.401 117.357C135.338 117.528 137.63 118.41 137.622 119.33Z" fill="#0A0A0A"/>
<path d="M72.2074 137.508L91.5897 140.871C102.518 135.14 99.4019 107.464 99.4019 107.464C99.4019 107.464 114.545 119.605 147.291 108.639C147.291 108.639 136.141 63.9798 87.9859 82.4497C72.4582 88.4055 62.7277 107.129 66.2606 128.521C68.7364 143.512 72.2074 137.508 72.2074 137.508Z" fill="#0A0A0A"/>
<path d="M92.2621 151.411C87.2628 152.878 81.8407 151.579 79.6582 144.033C78.2086 139.02 81.9638 134.738 86.9631 133.272L90.5199 135.873L96.5608 150.151L92.2628 151.411H92.2621Z" fill="#FF9E85"/>
<path d="M129.721 127.524C130.746 127.423 131.495 126.509 131.395 125.483C131.294 124.456 130.382 123.705 129.358 123.806C128.333 123.907 127.584 124.82 127.684 125.847C127.785 126.874 128.697 127.624 129.721 127.524Z" fill="#0A0A0A"/>
<path d="M121.533 141.078C121.157 141.115 120.808 140.863 120.731 140.484C120.648 140.08 120.908 139.685 121.312 139.602L125.203 138.804L122.013 131.175C121.855 130.794 122.033 130.357 122.414 130.197C122.793 130.039 123.23 130.218 123.389 130.598L126.928 139.066C127.014 139.272 127.004 139.506 126.899 139.704C126.795 139.902 126.608 140.042 126.389 140.087L121.61 141.067C121.584 141.073 121.558 141.076 121.532 141.079L121.533 141.078Z" fill="#0A0A0A"/>
<path d="M115.047 120.518C115.279 121.055 113.349 122.08 110.595 123.117C107.841 124.154 105.334 124.953 105.074 124.273C104.745 123.415 106.721 121.874 109.476 120.837C112.229 119.8 114.681 119.674 115.047 120.518Z" fill="#0A0A0A"/>
<path d="M111.229 130.537C112.254 130.436 113.004 129.522 112.903 128.495C112.803 127.468 111.891 126.717 110.866 126.818C109.841 126.918 109.091 127.833 109.192 128.859C109.292 129.886 110.204 130.637 111.229 130.537Z" fill="#0A0A0A"/>
<path d="M79.7427 130.418L80.2042 137.534C81.3896 135.782 83.2214 134.465 85.4491 133.975C86.0021 133.846 86.559 133.798 87.1063 133.79C90.7539 136.145 88.8292 141.289 91.5899 140.87C93.1581 140.633 96.3861 136.552 97.0217 134.155C97.4245 132.635 92.9364 127.398 92.803 125.831" fill="#0A0A0A"/>
<path d="M411.628 103.681L399.213 117.57L403.055 121.017L415.469 107.128L411.628 103.681Z" fill="#A20F0F"/>
<path d="M302.642 260.228L294.326 276.906L298.939 279.215L307.255 262.537L302.642 260.228Z" fill="#FBBE00"/>
<path d="M370.134 216.344L365.195 217.828L370.539 235.687L375.478 234.203L370.134 216.344Z" fill="#A20F0F"/>
<path d="M371.797 226.536L354.221 213.15C352.603 211.917 350.258 212.315 349.148 214.076C348.165 215.636 348.671 217.715 350.138 218.832L353.907 221.702L337.92 218.126C336.149 217.698 333.703 218.307 333.355 220.328C332.965 221.944 333.765 223.566 335.188 224.278C335.183 224.295 335.171 224.309 335.168 224.327C335.165 224.341 335.168 224.354 335.168 224.368L332.437 223.707C330.332 223.197 328.211 224.716 328.123 227.01C328.057 228.69 329.292 230.146 330.923 230.541L332.085 230.823C332.092 230.86 332.106 230.896 332.126 230.928C330.463 230.912 328.955 232.093 328.653 233.834C328.333 235.679 329.621 237.428 331.438 237.867L334.323 238.566C334.231 238.605 334.155 238.682 334.129 238.788C334.115 238.851 334.125 238.911 334.146 238.967C332.715 239.354 331.582 240.636 331.555 242.331C331.528 243.979 332.757 245.387 334.358 245.775L358.706 251.669C365.673 253.355 372.966 250.637 377.14 244.798C380.798 239.68 379.728 232.575 374.726 228.766L371.797 226.535L371.797 226.536Z" fill="#FF9E85"/>
<g opacity="0.2">
<path d="M350.994 227.896C350.952 228.066 350.782 228.172 350.611 228.133L335.412 224.714C335.238 224.674 335.129 224.502 335.168 224.328C335.192 224.161 335.38 224.044 335.554 224.083L350.753 227.503C350.926 227.543 351.036 227.715 350.996 227.889L350.994 227.896Z" fill="#0C0C0C"/>
</g>
<g opacity="0.2">
<path d="M349.674 234.654C349.631 234.824 349.462 234.93 349.29 234.891L332.328 231.074C332.155 231.035 332.045 230.863 332.085 230.688C332.121 230.529 332.296 230.405 332.47 230.444L349.432 234.261C349.605 234.3 349.715 234.473 349.676 234.647L349.674 234.654Z" fill="#0C0C0C"/>
</g>
<g opacity="0.2">
<path d="M348.286 241.982C348.243 242.152 348.074 242.258 347.902 242.219L334.372 239.174C334.199 239.135 334.089 238.963 334.129 238.788C334.172 238.613 334.34 238.505 334.514 238.544L348.044 241.589C348.218 241.628 348.327 241.8 348.288 241.975L348.286 241.982Z" fill="#0C0C0C"/>
</g>
<path d="M288.355 134.464L298.168 114.65C299.072 112.826 301.349 112.139 303.123 113.222C304.697 114.182 305.164 116.27 304.345 117.924L302.241 122.172L314.979 111.854C316.375 110.683 318.837 110.139 320.045 111.795C321.111 113.069 321.113 114.878 320.153 116.15C320.166 116.162 320.182 116.17 320.192 116.184C320.201 116.195 320.204 116.209 320.211 116.221L322.364 114.414C324.024 113.02 326.598 113.437 327.694 115.453C328.496 116.928 328.037 118.783 326.751 119.863L325.834 120.632C325.844 120.669 325.848 120.707 325.844 120.745C327.327 119.991 329.201 120.378 330.244 121.802C331.348 123.313 330.969 125.453 329.537 126.656L327.261 128.566C327.362 128.56 327.463 128.595 327.534 128.679C327.574 128.728 327.592 128.787 327.598 128.846C329.052 128.556 330.636 129.2 331.411 130.707C332.166 132.173 331.689 133.981 330.427 135.04L311.225 151.156C305.73 155.768 297.991 156.578 291.663 153.204C286.117 150.246 283.925 143.405 286.718 137.767L288.353 134.464H288.355Z" fill="#FF9E85"/>
<g opacity="0.2">
<path d="M307.596 126.425C307.709 126.558 307.909 126.578 308.045 126.467L320.146 116.638C320.284 116.526 320.305 116.323 320.193 116.184C320.098 116.046 319.878 116.025 319.74 116.137L307.639 125.965C307.501 126.078 307.479 126.281 307.592 126.419L307.597 126.425H307.596Z" fill="#0C0C0C"/>
</g>
<g opacity="0.2">
<path d="M311.775 131.893C311.888 132.026 312.087 132.045 312.223 131.934L325.728 120.966C325.866 120.854 325.888 120.65 325.775 120.512C325.672 120.386 325.46 120.353 325.322 120.465L311.817 131.433C311.679 131.545 311.658 131.749 311.77 131.887L311.775 131.893H311.775Z" fill="#0C0C0C"/>
</g>
<g opacity="0.2">
<path d="M316.267 137.84C316.38 137.973 316.58 137.992 316.716 137.881L327.488 129.132C327.626 129.02 327.647 128.816 327.535 128.678C327.419 128.54 327.22 128.518 327.082 128.631L316.309 137.38C316.172 137.492 316.15 137.696 316.262 137.834L316.268 137.84H316.267Z" fill="#0C0C0C"/>
</g>
<path d="M167.681 187.297L263.03 219.231L235.036 231.698L282.577 133.973L321.433 152.117L277.321 251.443C272.647 261.967 261.023 267.217 250.274 264.181L249.326 263.911L152.533 236.683L167.68 187.297H167.681Z" fill="#A20F0F"/>
<path d="M107.742 202.156C85.7668 201.119 84.8419 182.43 84.8419 182.43C84.8419 182.43 73.9538 183.136 66.7159 184.117C54.8661 185.723 47.0488 189.749 40.828 195.982C35.0411 201.78 31.5178 208.053 35.246 248.107C37.9455 277.108 36.0453 340.898 36.0453 340.898H169.955C169.955 340.898 179.306 248.741 180.414 235.686C182.53 210.765 188.507 205.263 176.397 192.425C167.615 183.115 144.944 182.43 135.816 182.432C135.668 182.432 137.668 203.57 107.742 202.156L107.742 202.156Z" fill="#A20F0F"/>
<path d="M180.116 244.765C180.103 244.765 180.09 244.765 180.076 244.762C179.9 244.741 179.774 244.579 179.796 244.402L181.87 227.561C181.891 227.384 182.045 227.255 182.229 227.28C182.405 227.301 182.531 227.462 182.51 227.64L180.436 244.481C180.416 244.645 180.277 244.764 180.117 244.764L180.116 244.765Z" fill="#0C0C0C"/>
<path d="M551.962 202.156C573.937 201.119 574.862 182.43 574.862 182.43C574.862 182.43 585.75 183.136 592.988 184.117C604.838 185.723 612.655 189.749 618.876 195.982C624.663 201.78 628.186 208.053 624.458 248.107C621.758 277.108 623.659 340.898 623.659 340.898H489.749C489.749 340.898 480.398 248.741 479.29 235.686C477.173 210.765 471.197 205.263 483.307 192.425C492.089 183.115 514.76 182.43 523.887 182.432C524.036 182.432 522.036 203.57 551.962 202.156L551.962 202.156Z" fill="#A20F0F"/>
<path d="M478.973 198.198L444.351 271.739L376.075 220.295L348.957 256.426L439.365 324.545C440.13 325.114 441.042 325.719 441.896 326.199C452.759 332.297 466.501 328.417 472.588 317.532L472.979 316.832L525.8 222.368L478.973 198.198Z" fill="#A20F0F"/>
<path d="M628.797 341.545H18.9795C18.6237 341.545 18.335 341.255 18.335 340.899C18.335 340.542 18.6237 340.253 18.9795 340.253H628.796C629.152 340.253 629.441 340.542 629.441 340.899C629.441 341.255 629.152 341.545 628.796 341.545H628.797Z" fill="#292A2E"/>
<path d="M496.157 244.838H169.605V356.676H496.157V244.838Z" fill="white"/>
<path d="M496.479 357H169.283V244.516H496.479V357ZM169.928 356.354H495.834V245.162H169.928V356.354Z" fill="#0C0C0C"/>
<path d="M153.481 279.018L173.639 269.998C175.494 269.167 177.688 270.091 178.368 272.058C178.97 273.802 178.005 275.711 176.323 276.463L172 278.397L188.379 278.566C190.201 278.553 192.444 279.704 192.324 281.752C192.336 283.415 191.188 284.811 189.64 285.18C189.642 285.197 189.65 285.214 189.648 285.232C189.648 285.246 189.641 285.258 189.639 285.271L192.448 285.251C194.614 285.236 196.334 287.199 195.898 289.453C195.579 291.103 194.046 292.239 192.369 292.252L191.173 292.26C191.157 292.295 191.136 292.326 191.109 292.353C192.732 292.717 193.932 294.212 193.83 295.975C193.722 297.844 192.07 299.253 190.201 299.266L187.232 299.288C187.314 299.347 187.37 299.438 187.371 299.549C187.371 299.613 187.347 299.669 187.314 299.719C188.619 300.423 189.431 301.93 189.072 303.586C188.722 305.198 187.206 306.288 185.559 306.3L160.511 306.478C153.343 306.529 146.861 302.218 144.125 295.579C141.727 289.761 144.385 283.087 150.121 280.52L153.48 279.017L153.481 279.018Z" fill="#FF9E85"/>
<g opacity="0.2">
<path d="M173.427 285.093C173.429 285.268 173.571 285.41 173.746 285.412L189.323 285.552C189.501 285.554 189.647 285.411 189.648 285.232C189.663 285.065 189.506 284.908 189.328 284.907L173.752 284.766C173.574 284.764 173.428 284.907 173.427 285.086V285.093Z" fill="#0C0C0C"/>
</g>
<g opacity="0.2">
<path d="M173.175 291.975C173.178 292.15 173.32 292.291 173.495 292.293L190.878 292.45C191.056 292.451 191.202 292.308 191.203 292.13C191.203 291.967 191.061 291.805 190.884 291.804L173.5 291.647C173.322 291.646 173.177 291.789 173.175 291.967V291.975Z" fill="#0C0C0C"/>
</g>
<g opacity="0.2">
<path d="M172.86 299.426C172.862 299.601 173.004 299.743 173.18 299.744L187.046 299.87C187.224 299.871 187.37 299.728 187.371 299.549C187.369 299.369 187.229 299.225 187.051 299.224L173.185 299.099C173.007 299.097 172.861 299.24 172.86 299.419V299.427V299.426Z" fill="#0C0C0C"/>
</g>
<path d="M159.25 314.979L47.4903 340.435C46.6163 340.53 45.7423 340.577 44.8727 340.577C38.2569 340.577 31.8846 337.854 27.2927 332.977C22.0968 327.459 19.7822 319.821 21.0384 312.34L33.828 209.264C36.0434 196.075 48.5081 187.184 61.6747 189.4C74.8388 191.619 83.7158 204.11 81.5011 217.3L75.3422 291.076L152.99 273.47L159.251 314.979H159.25Z" fill="#A20F0F"/>
<path d="M59.6292 293.977C59.4719 293.977 59.3346 293.862 59.3107 293.702C59.2843 293.526 59.4055 293.362 59.5815 293.335L75.1549 290.003C75.3373 289.976 75.4953 290.098 75.5217 290.275C75.5481 290.451 75.4269 290.615 75.251 290.642L59.6775 293.973C59.6614 293.976 59.6453 293.977 59.6292 293.977Z" fill="#0C0C0C"/>
<path d="M50.8433 340.899C50.6835 340.899 50.5455 340.78 50.5243 340.617C50.5011 340.441 50.6255 340.279 50.8021 340.255L158.549 314.828L152.444 273.947L75.2603 290.642C75.1585 290.654 75.0573 290.62 74.9864 290.547C74.9155 290.473 74.8832 290.37 74.9 290.268L79.2289 248.115C79.2579 247.94 79.421 247.818 79.6002 247.85C79.7755 247.88 79.8941 248.047 79.8645 248.222L75.6077 289.944L152.591 273.237C152.675 273.213 152.765 273.226 152.84 273.269C152.914 273.313 152.968 273.386 152.99 273.47L159.251 314.979C159.294 315.149 159.192 315.323 159.024 315.369L50.8859 340.897C50.8717 340.899 50.8575 340.9 50.844 340.9L50.8433 340.899Z" fill="#0C0C0C"/>
<path d="M506.222 298.393L486.065 289.372C484.209 288.542 482.016 289.465 481.336 291.433C480.733 293.177 481.699 295.085 483.381 295.838L487.703 297.772L471.324 297.941C469.503 297.928 467.259 299.079 467.379 301.127C467.368 302.79 468.515 304.186 470.063 304.555C470.061 304.572 470.054 304.589 470.056 304.607C470.056 304.621 470.062 304.633 470.064 304.646L467.255 304.626C465.089 304.611 463.37 306.574 463.805 308.827C464.124 310.477 465.657 311.614 467.335 311.626L468.53 311.635C468.546 311.67 468.567 311.701 468.594 311.728C466.971 312.092 465.772 313.586 465.874 315.349C465.981 317.219 467.633 318.628 469.503 318.641L472.472 318.663C472.39 318.721 472.334 318.813 472.332 318.923C472.333 318.987 472.357 319.044 472.39 319.094C471.084 319.797 470.273 321.305 470.632 322.961C470.981 324.573 472.498 325.663 474.144 325.674L499.192 325.853C506.36 325.904 512.843 321.593 515.578 314.954C517.976 309.135 515.319 302.461 509.582 299.895L506.223 298.392L506.222 298.393Z" fill="#FF9E85"/>
<g opacity="0.2">
<path d="M486.277 304.468C486.274 304.643 486.133 304.785 485.957 304.786L470.381 304.927C470.203 304.929 470.057 304.786 470.056 304.607C470.041 304.44 470.197 304.283 470.375 304.281L485.952 304.141C486.13 304.139 486.276 304.282 486.277 304.461V304.468Z" fill="#0C0C0C"/>
</g>
<g opacity="0.2">
<path d="M486.528 311.349C486.526 311.524 486.384 311.666 486.209 311.668L468.825 311.825C468.647 311.826 468.502 311.683 468.5 311.504C468.5 311.342 468.642 311.18 468.82 311.179L486.204 311.022C486.382 311.021 486.527 311.163 486.528 311.342V311.349Z" fill="#0C0C0C"/>
</g>
<g opacity="0.2">
<path d="M486.844 318.801C486.841 318.976 486.699 319.117 486.524 319.119L472.657 319.245C472.479 319.246 472.334 319.103 472.333 318.924C472.334 318.744 472.474 318.6 472.652 318.599L486.519 318.473C486.697 318.472 486.842 318.615 486.844 318.794V318.801V318.801Z" fill="#0C0C0C"/>
</g>
<path d="M506.899 334.354L612.213 340.435C613.087 340.53 613.961 340.577 614.831 340.577C621.447 340.577 627.819 337.854 632.411 332.977C637.607 327.459 639.921 319.821 638.665 312.34L625.875 209.264C623.66 196.075 611.195 187.184 598.029 189.4C584.865 191.619 575.988 204.11 578.202 217.3L584.361 295.597L507.358 292.845L506.898 334.354H506.899Z" fill="#A20F0F"/>
<path d="M600.074 295.269C600.231 295.269 600.368 295.154 600.392 294.994C600.419 294.817 600.298 294.653 600.122 294.627L584.548 294.524C584.366 294.496 584.208 294.619 584.181 294.795C584.155 294.972 584.276 295.136 584.452 295.162L600.026 295.265C600.042 295.268 600.058 295.269 600.074 295.269Z" fill="#0C0C0C"/>
<path d="M608.861 340.899C609.021 340.899 609.159 340.78 609.18 340.617C609.203 340.441 609.079 340.279 608.902 340.255L507.601 334.203L507.904 293.322L584.444 295.163C584.546 295.175 584.647 295.14 584.718 295.067C584.789 294.994 584.821 294.89 584.804 294.789L580.475 248.115C580.446 247.94 580.283 247.818 580.104 247.85C579.929 247.88 579.81 248.047 579.84 248.222L584.096 294.465L507.757 292.611C507.674 292.587 507.584 292.6 507.509 292.644C507.434 292.688 507.38 292.76 507.359 292.845L506.899 334.354C506.856 334.524 506.958 334.698 507.126 334.744L608.818 340.897C608.833 340.899 608.847 340.9 608.86 340.9L608.861 340.899Z" fill="#0C0C0C"/>
<path d="M247.024 318.014H238.464L233.663 299.354C233.485 298.69 233.182 297.317 232.754 295.236C232.325 293.154 232.078 291.758 232.014 291.045C231.918 291.919 231.675 293.324 231.287 295.26C230.899 297.195 230.6 298.576 230.389 299.403L225.612 318.014H217.077L208.031 282.493H215.428L219.962 301.881C220.754 305.461 221.328 308.563 221.684 311.187C221.781 310.264 222.003 308.834 222.351 306.899C222.698 304.963 223.026 303.461 223.333 302.392L228.498 282.493H235.603L240.768 302.392C240.995 303.282 241.278 304.643 241.617 306.473C241.956 308.304 242.215 309.875 242.393 311.187C242.554 309.923 242.813 308.348 243.169 306.461C243.524 304.575 243.848 303.047 244.139 301.881L248.649 282.493H256.045L247.025 318.014H247.024Z" fill="#FBBE00"/>
<path d="M280.925 318.014H260.506V282.493H280.925V288.664H268.024V296.464H280.028V302.635H268.024V311.796H280.925V318.015V318.014Z" fill="#FBBE00"/>
<path d="M288.321 318.014V282.493H295.838V311.795H310.219V318.015H288.321V318.014Z" fill="#FBBE00"/>
<path d="M331.437 288.25C328.607 288.25 326.417 289.315 324.865 291.445C323.313 293.575 322.538 296.544 322.538 300.35C322.538 308.271 325.504 312.231 331.437 312.231C333.927 312.231 336.942 311.608 340.483 310.361V316.677C337.572 317.892 334.323 318.5 330.734 318.5C325.577 318.5 321.632 316.932 318.9 313.798C316.168 310.664 314.802 306.165 314.802 300.301C314.802 296.608 315.473 293.373 316.815 290.594C318.157 287.817 320.085 285.687 322.599 284.205C325.112 282.722 328.059 281.982 331.438 281.982C334.882 281.982 338.341 282.816 341.817 284.484L339.392 290.607C338.066 289.975 336.732 289.424 335.391 288.955C334.049 288.485 332.732 288.25 331.438 288.25H331.437Z" fill="#FBBE00"/>
<path d="M380.203 300.204C380.203 306.084 378.748 310.603 375.839 313.762C372.928 316.921 368.758 318.5 363.326 318.5C357.893 318.5 353.723 316.921 350.813 313.762C347.903 310.603 346.448 306.068 346.448 300.156C346.448 294.243 347.908 289.728 350.826 286.61C353.744 283.492 357.927 281.933 363.375 281.933C368.823 281.933 372.99 283.505 375.876 286.647C378.762 289.79 380.204 294.309 380.204 300.205L380.203 300.204ZM354.329 300.204C354.329 304.173 355.08 307.162 356.584 309.17C358.087 311.178 360.334 312.182 363.325 312.182C369.323 312.182 372.322 308.19 372.322 300.204C372.322 292.219 369.339 288.202 363.373 288.202C360.383 288.202 358.127 289.21 356.608 291.227C355.089 293.243 354.329 296.236 354.329 300.204Z" fill="#FBBE00"/>
<path d="M402.562 318.014L394.026 290.146H393.808C394.114 295.815 394.268 299.597 394.268 301.492V318.014H387.551V282.493H397.785L406.175 309.657H406.321L415.221 282.493H425.454V318.014H418.446V301.201C418.446 300.407 418.459 299.492 418.482 298.455C418.507 297.419 418.616 294.665 418.81 290.194H418.592L409.449 318.014H402.562H402.562Z" fill="#FBBE00"/>
<path d="M454.795 318.014H434.376V282.493H454.795V288.664H441.894V296.464H453.898V302.635H441.894V311.796H454.795V318.015V318.014Z" fill="#FBBE00"/>
</g>
<defs>
<clipPath id="clip0_170_3346">
<rect width="639" height="357" fill="white"/>
</clipPath>
</defs>
</svg>
